%TF.GenerationSoftware,KiCad,Pcbnew,7.0.8*%
%TF.CreationDate,2024-03-31T13:52:50+01:00*%
%TF.ProjectId,cryoskills_sensor_kit,6372796f-736b-4696-9c6c-735f73656e73,rev?*%
%TF.SameCoordinates,Original*%
%TF.FileFunction,AssemblyDrawing,Bot*%
%FSLAX46Y46*%
G04 Gerber Fmt 4.6, Leading zero omitted, Abs format (unit mm)*
G04 Created by KiCad (PCBNEW 7.0.8) date 2024-03-31 13:52:50*
%MOMM*%
%LPD*%
G01*
G04 APERTURE LIST*
%ADD10C,0.150000*%
G04 APERTURE END LIST*
D10*
X154579552Y-74912763D02*
X153579552Y-74912763D01*
X153579552Y-74912763D02*
X153579552Y-75293715D01*
X153579552Y-75293715D02*
X153627171Y-75388953D01*
X153627171Y-75388953D02*
X153674790Y-75436572D01*
X153674790Y-75436572D02*
X153770028Y-75484191D01*
X153770028Y-75484191D02*
X153912885Y-75484191D01*
X153912885Y-75484191D02*
X154008123Y-75436572D01*
X154008123Y-75436572D02*
X154055742Y-75388953D01*
X154055742Y-75388953D02*
X154103361Y-75293715D01*
X154103361Y-75293715D02*
X154103361Y-74912763D01*
X153579552Y-75817525D02*
X154579552Y-76055620D01*
X154579552Y-76055620D02*
X153865266Y-76246096D01*
X153865266Y-76246096D02*
X154579552Y-76436572D01*
X154579552Y-76436572D02*
X153579552Y-76674668D01*
X154579552Y-77627048D02*
X154103361Y-77293715D01*
X154579552Y-77055620D02*
X153579552Y-77055620D01*
X153579552Y-77055620D02*
X153579552Y-77436572D01*
X153579552Y-77436572D02*
X153627171Y-77531810D01*
X153627171Y-77531810D02*
X153674790Y-77579429D01*
X153674790Y-77579429D02*
X153770028Y-77627048D01*
X153770028Y-77627048D02*
X153912885Y-77627048D01*
X153912885Y-77627048D02*
X154008123Y-77579429D01*
X154008123Y-77579429D02*
X154055742Y-77531810D01*
X154055742Y-77531810D02*
X154103361Y-77436572D01*
X154103361Y-77436572D02*
X154103361Y-77055620D01*
X154674790Y-77817525D02*
X154674790Y-78579429D01*
X154531933Y-78769906D02*
X154579552Y-78912763D01*
X154579552Y-78912763D02*
X154579552Y-79150858D01*
X154579552Y-79150858D02*
X154531933Y-79246096D01*
X154531933Y-79246096D02*
X154484313Y-79293715D01*
X154484313Y-79293715D02*
X154389075Y-79341334D01*
X154389075Y-79341334D02*
X154293837Y-79341334D01*
X154293837Y-79341334D02*
X154198599Y-79293715D01*
X154198599Y-79293715D02*
X154150980Y-79246096D01*
X154150980Y-79246096D02*
X154103361Y-79150858D01*
X154103361Y-79150858D02*
X154055742Y-78960382D01*
X154055742Y-78960382D02*
X154008123Y-78865144D01*
X154008123Y-78865144D02*
X153960504Y-78817525D01*
X153960504Y-78817525D02*
X153865266Y-78769906D01*
X153865266Y-78769906D02*
X153770028Y-78769906D01*
X153770028Y-78769906D02*
X153674790Y-78817525D01*
X153674790Y-78817525D02*
X153627171Y-78865144D01*
X153627171Y-78865144D02*
X153579552Y-78960382D01*
X153579552Y-78960382D02*
X153579552Y-79198477D01*
X153579552Y-79198477D02*
X153627171Y-79341334D01*
X154055742Y-79769906D02*
X154055742Y-80103239D01*
X154579552Y-80246096D02*
X154579552Y-79769906D01*
X154579552Y-79769906D02*
X153579552Y-79769906D01*
X153579552Y-79769906D02*
X153579552Y-80246096D01*
X154579552Y-80674668D02*
X153579552Y-80674668D01*
X153579552Y-80674668D02*
X154579552Y-81246096D01*
X154579552Y-81246096D02*
X153579552Y-81246096D01*
X154531933Y-81674668D02*
X154579552Y-81817525D01*
X154579552Y-81817525D02*
X154579552Y-82055620D01*
X154579552Y-82055620D02*
X154531933Y-82150858D01*
X154531933Y-82150858D02*
X154484313Y-82198477D01*
X154484313Y-82198477D02*
X154389075Y-82246096D01*
X154389075Y-82246096D02*
X154293837Y-82246096D01*
X154293837Y-82246096D02*
X154198599Y-82198477D01*
X154198599Y-82198477D02*
X154150980Y-82150858D01*
X154150980Y-82150858D02*
X154103361Y-82055620D01*
X154103361Y-82055620D02*
X154055742Y-81865144D01*
X154055742Y-81865144D02*
X154008123Y-81769906D01*
X154008123Y-81769906D02*
X153960504Y-81722287D01*
X153960504Y-81722287D02*
X153865266Y-81674668D01*
X153865266Y-81674668D02*
X153770028Y-81674668D01*
X153770028Y-81674668D02*
X153674790Y-81722287D01*
X153674790Y-81722287D02*
X153627171Y-81769906D01*
X153627171Y-81769906D02*
X153579552Y-81865144D01*
X153579552Y-81865144D02*
X153579552Y-82103239D01*
X153579552Y-82103239D02*
X153627171Y-82246096D01*
X154055742Y-82674668D02*
X154055742Y-83008001D01*
X154579552Y-83150858D02*
X154579552Y-82674668D01*
X154579552Y-82674668D02*
X153579552Y-82674668D01*
X153579552Y-82674668D02*
X153579552Y-83150858D01*
X154674790Y-83341335D02*
X154674790Y-84103239D01*
X154579552Y-84341335D02*
X153579552Y-84341335D01*
X153579552Y-84341335D02*
X153579552Y-84722287D01*
X153579552Y-84722287D02*
X153627171Y-84817525D01*
X153627171Y-84817525D02*
X153674790Y-84865144D01*
X153674790Y-84865144D02*
X153770028Y-84912763D01*
X153770028Y-84912763D02*
X153912885Y-84912763D01*
X153912885Y-84912763D02*
X154008123Y-84865144D01*
X154008123Y-84865144D02*
X154055742Y-84817525D01*
X154055742Y-84817525D02*
X154103361Y-84722287D01*
X154103361Y-84722287D02*
X154103361Y-84341335D01*
X154579552Y-85769906D02*
X154055742Y-85769906D01*
X154055742Y-85769906D02*
X153960504Y-85722287D01*
X153960504Y-85722287D02*
X153912885Y-85627049D01*
X153912885Y-85627049D02*
X153912885Y-85436573D01*
X153912885Y-85436573D02*
X153960504Y-85341335D01*
X154531933Y-85769906D02*
X154579552Y-85674668D01*
X154579552Y-85674668D02*
X154579552Y-85436573D01*
X154579552Y-85436573D02*
X154531933Y-85341335D01*
X154531933Y-85341335D02*
X154436694Y-85293716D01*
X154436694Y-85293716D02*
X154341456Y-85293716D01*
X154341456Y-85293716D02*
X154246218Y-85341335D01*
X154246218Y-85341335D02*
X154198599Y-85436573D01*
X154198599Y-85436573D02*
X154198599Y-85674668D01*
X154198599Y-85674668D02*
X154150980Y-85769906D01*
X153912885Y-86246097D02*
X154579552Y-86246097D01*
X154008123Y-86246097D02*
X153960504Y-86293716D01*
X153960504Y-86293716D02*
X153912885Y-86388954D01*
X153912885Y-86388954D02*
X153912885Y-86531811D01*
X153912885Y-86531811D02*
X153960504Y-86627049D01*
X153960504Y-86627049D02*
X154055742Y-86674668D01*
X154055742Y-86674668D02*
X154579552Y-86674668D01*
X154531933Y-87531811D02*
X154579552Y-87436573D01*
X154579552Y-87436573D02*
X154579552Y-87246097D01*
X154579552Y-87246097D02*
X154531933Y-87150859D01*
X154531933Y-87150859D02*
X154436694Y-87103240D01*
X154436694Y-87103240D02*
X154055742Y-87103240D01*
X154055742Y-87103240D02*
X153960504Y-87150859D01*
X153960504Y-87150859D02*
X153912885Y-87246097D01*
X153912885Y-87246097D02*
X153912885Y-87436573D01*
X153912885Y-87436573D02*
X153960504Y-87531811D01*
X153960504Y-87531811D02*
X154055742Y-87579430D01*
X154055742Y-87579430D02*
X154150980Y-87579430D01*
X154150980Y-87579430D02*
X154246218Y-87103240D01*
X154579552Y-88150859D02*
X154531933Y-88055621D01*
X154531933Y-88055621D02*
X154436694Y-88008002D01*
X154436694Y-88008002D02*
X153579552Y-88008002D01*
M02*
