%TF.GenerationSoftware,KiCad,Pcbnew,7.0.8*%
%TF.CreationDate,2024-03-31T13:52:44+01:00*%
%TF.ProjectId,cryoskills_sensor_kit,6372796f-736b-4696-9c6c-735f73656e73,rev?*%
%TF.SameCoordinates,Original*%
%TF.FileFunction,Drillmap*%
%TF.FilePolarity,Positive*%
%FSLAX45Y45*%
G04 Gerber Fmt 4.5, Leading zero omitted, Abs format (unit mm)*
G04 Created by KiCad (PCBNEW 7.0.8) date 2024-03-31 13:52:44*
%MOMM*%
%LPD*%
G01*
G04 APERTURE LIST*
%ADD10C,0.100000*%
%ADD11C,0.200000*%
%ADD12C,0.040000*%
%ADD13C,0.040640*%
%ADD14C,0.045000*%
%ADD15C,0.080000*%
%ADD16C,0.110000*%
%ADD17C,0.152000*%
%ADD18C,0.185000*%
G04 APERTURE END LIST*
D10*
X3350000Y-5200000D02*
X15350000Y-5200000D01*
X2850000Y-10700000D02*
G75*
G03*
X3350000Y-11200000I500000J0D01*
G01*
X3350000Y-5200000D02*
G75*
G03*
X2850000Y-5700000I0J-500000D01*
G01*
X15850000Y-5700000D02*
X15850000Y-10700000D01*
X15350000Y-11200000D02*
G75*
G03*
X15850000Y-10700000I0J500000D01*
G01*
X3350000Y-11200000D02*
X15350000Y-11200000D01*
X2850000Y-10700000D02*
X2850000Y-5700000D01*
X15850000Y-5700000D02*
G75*
G03*
X15350000Y-5200000I-500000J0D01*
G01*
D11*
D12*
X12370000Y-7880000D02*
X12410000Y-7920000D01*
X12410000Y-7880000D02*
X12370000Y-7920000D01*
X12920000Y-7880000D02*
X12960000Y-7920000D01*
X12960000Y-7880000D02*
X12920000Y-7920000D01*
X13005000Y-6358750D02*
X13045000Y-6398750D01*
X13045000Y-6358750D02*
X13005000Y-6398750D01*
X13005000Y-6655000D02*
X13045000Y-6695000D01*
X13045000Y-6655000D02*
X13005000Y-6695000D01*
D13*
X5095320Y-6975000D02*
G75*
G03*
X5095320Y-6975000I-20320J0D01*
G01*
X5120320Y-5850000D02*
G75*
G03*
X5120320Y-5850000I-20320J0D01*
G01*
X5245320Y-6625000D02*
G75*
G03*
X5245320Y-6625000I-20320J0D01*
G01*
X5395320Y-6975000D02*
G75*
G03*
X5395320Y-6975000I-20320J0D01*
G01*
X5520320Y-8150000D02*
G75*
G03*
X5520320Y-8150000I-20320J0D01*
G01*
X5520320Y-8400000D02*
G75*
G03*
X5520320Y-8400000I-20320J0D01*
G01*
X5695320Y-7425000D02*
G75*
G03*
X5695320Y-7425000I-20320J0D01*
G01*
X5895320Y-6950000D02*
G75*
G03*
X5895320Y-6950000I-20320J0D01*
G01*
X5945320Y-6000000D02*
G75*
G03*
X5945320Y-6000000I-20320J0D01*
G01*
X6095320Y-7425000D02*
G75*
G03*
X6095320Y-7425000I-20320J0D01*
G01*
X6170320Y-9500000D02*
G75*
G03*
X6170320Y-9500000I-20320J0D01*
G01*
X6220320Y-7200000D02*
G75*
G03*
X6220320Y-7200000I-20320J0D01*
G01*
X6320320Y-7650000D02*
G75*
G03*
X6320320Y-7650000I-20320J0D01*
G01*
X6320320Y-7900000D02*
G75*
G03*
X6320320Y-7900000I-20320J0D01*
G01*
X6370320Y-10850000D02*
G75*
G03*
X6370320Y-10850000I-20320J0D01*
G01*
X6395320Y-7000000D02*
G75*
G03*
X6395320Y-7000000I-20320J0D01*
G01*
X6545320Y-7525000D02*
G75*
G03*
X6545320Y-7525000I-20320J0D01*
G01*
X6570320Y-7875000D02*
G75*
G03*
X6570320Y-7875000I-20320J0D01*
G01*
X6570320Y-8125000D02*
G75*
G03*
X6570320Y-8125000I-20320J0D01*
G01*
X6570320Y-10350000D02*
G75*
G03*
X6570320Y-10350000I-20320J0D01*
G01*
X6720320Y-7350000D02*
G75*
G03*
X6720320Y-7350000I-20320J0D01*
G01*
X6745320Y-7700000D02*
G75*
G03*
X6745320Y-7700000I-20320J0D01*
G01*
X6820320Y-8025000D02*
G75*
G03*
X6820320Y-8025000I-20320J0D01*
G01*
X6820320Y-8325000D02*
G75*
G03*
X6820320Y-8325000I-20320J0D01*
G01*
X6870320Y-10600000D02*
G75*
G03*
X6870320Y-10600000I-20320J0D01*
G01*
X7070320Y-10900000D02*
G75*
G03*
X7070320Y-10900000I-20320J0D01*
G01*
X7170320Y-11000000D02*
G75*
G03*
X7170320Y-11000000I-20320J0D01*
G01*
X7220320Y-7450000D02*
G75*
G03*
X7220320Y-7450000I-20320J0D01*
G01*
X7220320Y-7700000D02*
G75*
G03*
X7220320Y-7700000I-20320J0D01*
G01*
X7220320Y-7950000D02*
G75*
G03*
X7220320Y-7950000I-20320J0D01*
G01*
X7220320Y-8200000D02*
G75*
G03*
X7220320Y-8200000I-20320J0D01*
G01*
X7220320Y-8450000D02*
G75*
G03*
X7220320Y-8450000I-20320J0D01*
G01*
X7220320Y-8700000D02*
G75*
G03*
X7220320Y-8700000I-20320J0D01*
G01*
X7220320Y-8950000D02*
G75*
G03*
X7220320Y-8950000I-20320J0D01*
G01*
X7220320Y-9200000D02*
G75*
G03*
X7220320Y-9200000I-20320J0D01*
G01*
X7220320Y-9450000D02*
G75*
G03*
X7220320Y-9450000I-20320J0D01*
G01*
X7270320Y-7050000D02*
G75*
G03*
X7270320Y-7050000I-20320J0D01*
G01*
X7270320Y-9700000D02*
G75*
G03*
X7270320Y-9700000I-20320J0D01*
G01*
X7270320Y-10000000D02*
G75*
G03*
X7270320Y-10000000I-20320J0D01*
G01*
X7270320Y-11100000D02*
G75*
G03*
X7270320Y-11100000I-20320J0D01*
G01*
X7330320Y-10410000D02*
G75*
G03*
X7330320Y-10410000I-20320J0D01*
G01*
X7420320Y-6950000D02*
G75*
G03*
X7420320Y-6950000I-20320J0D01*
G01*
X7470320Y-7450000D02*
G75*
G03*
X7470320Y-7450000I-20320J0D01*
G01*
X7470320Y-7700000D02*
G75*
G03*
X7470320Y-7700000I-20320J0D01*
G01*
X7470320Y-7950000D02*
G75*
G03*
X7470320Y-7950000I-20320J0D01*
G01*
X7470320Y-8200000D02*
G75*
G03*
X7470320Y-8200000I-20320J0D01*
G01*
X7470320Y-8450000D02*
G75*
G03*
X7470320Y-8450000I-20320J0D01*
G01*
X7470320Y-8700000D02*
G75*
G03*
X7470320Y-8700000I-20320J0D01*
G01*
X7470320Y-8950000D02*
G75*
G03*
X7470320Y-8950000I-20320J0D01*
G01*
X7470320Y-9200000D02*
G75*
G03*
X7470320Y-9200000I-20320J0D01*
G01*
X7470320Y-9550000D02*
G75*
G03*
X7470320Y-9550000I-20320J0D01*
G01*
X7470320Y-10000000D02*
G75*
G03*
X7470320Y-10000000I-20320J0D01*
G01*
X7470320Y-10600000D02*
G75*
G03*
X7470320Y-10600000I-20320J0D01*
G01*
X7620320Y-7100000D02*
G75*
G03*
X7620320Y-7100000I-20320J0D01*
G01*
X7620320Y-9850000D02*
G75*
G03*
X7620320Y-9850000I-20320J0D01*
G01*
X7670320Y-6750000D02*
G75*
G03*
X7670320Y-6750000I-20320J0D01*
G01*
X7720320Y-7550000D02*
G75*
G03*
X7720320Y-7550000I-20320J0D01*
G01*
X7720320Y-7750000D02*
G75*
G03*
X7720320Y-7750000I-20320J0D01*
G01*
X7720320Y-7950000D02*
G75*
G03*
X7720320Y-7950000I-20320J0D01*
G01*
X7720320Y-8150000D02*
G75*
G03*
X7720320Y-8150000I-20320J0D01*
G01*
X7720320Y-8350000D02*
G75*
G03*
X7720320Y-8350000I-20320J0D01*
G01*
X7720320Y-8850000D02*
G75*
G03*
X7720320Y-8850000I-20320J0D01*
G01*
X7720320Y-9050000D02*
G75*
G03*
X7720320Y-9050000I-20320J0D01*
G01*
X7720320Y-9250000D02*
G75*
G03*
X7720320Y-9250000I-20320J0D01*
G01*
X7720320Y-9450000D02*
G75*
G03*
X7720320Y-9450000I-20320J0D01*
G01*
X7720320Y-9650000D02*
G75*
G03*
X7720320Y-9650000I-20320J0D01*
G01*
X7820320Y-6600000D02*
G75*
G03*
X7820320Y-6600000I-20320J0D01*
G01*
X7820320Y-6900000D02*
G75*
G03*
X7820320Y-6900000I-20320J0D01*
G01*
X7920320Y-9650000D02*
G75*
G03*
X7920320Y-9650000I-20320J0D01*
G01*
X7970320Y-6750000D02*
G75*
G03*
X7970320Y-6750000I-20320J0D01*
G01*
X7970320Y-7050000D02*
G75*
G03*
X7970320Y-7050000I-20320J0D01*
G01*
X8120320Y-6900000D02*
G75*
G03*
X8120320Y-6900000I-20320J0D01*
G01*
X8220320Y-6600000D02*
G75*
G03*
X8220320Y-6600000I-20320J0D01*
G01*
X8370320Y-6850000D02*
G75*
G03*
X8370320Y-6850000I-20320J0D01*
G01*
X8420320Y-10100000D02*
G75*
G03*
X8420320Y-10100000I-20320J0D01*
G01*
X8520320Y-6600000D02*
G75*
G03*
X8520320Y-6600000I-20320J0D01*
G01*
X8570320Y-9550000D02*
G75*
G03*
X8570320Y-9550000I-20320J0D01*
G01*
X8670320Y-6850000D02*
G75*
G03*
X8670320Y-6850000I-20320J0D01*
G01*
X8770320Y-6600000D02*
G75*
G03*
X8770320Y-6600000I-20320J0D01*
G01*
X8920320Y-6850000D02*
G75*
G03*
X8920320Y-6850000I-20320J0D01*
G01*
X9020320Y-6300000D02*
G75*
G03*
X9020320Y-6300000I-20320J0D01*
G01*
X9070320Y-6600000D02*
G75*
G03*
X9070320Y-6600000I-20320J0D01*
G01*
X9170320Y-6850000D02*
G75*
G03*
X9170320Y-6850000I-20320J0D01*
G01*
X9270320Y-11100000D02*
G75*
G03*
X9270320Y-11100000I-20320J0D01*
G01*
X9370320Y-11000000D02*
G75*
G03*
X9370320Y-11000000I-20320J0D01*
G01*
X9420320Y-8150000D02*
G75*
G03*
X9420320Y-8150000I-20320J0D01*
G01*
X9920320Y-9950000D02*
G75*
G03*
X9920320Y-9950000I-20320J0D01*
G01*
X9970320Y-6200000D02*
G75*
G03*
X9970320Y-6200000I-20320J0D01*
G01*
X10020320Y-7700000D02*
G75*
G03*
X10020320Y-7700000I-20320J0D01*
G01*
X10310320Y-6160000D02*
G75*
G03*
X10310320Y-6160000I-20320J0D01*
G01*
X10420320Y-6850000D02*
G75*
G03*
X10420320Y-6850000I-20320J0D01*
G01*
X10445320Y-7075000D02*
G75*
G03*
X10445320Y-7075000I-20320J0D01*
G01*
X10689542Y-5862250D02*
G75*
G03*
X10689542Y-5862250I-20320J0D01*
G01*
X10690320Y-6315000D02*
G75*
G03*
X10690320Y-6315000I-20320J0D01*
G01*
X10770320Y-6500000D02*
G75*
G03*
X10770320Y-6500000I-20320J0D01*
G01*
X10810320Y-5900000D02*
G75*
G03*
X10810320Y-5900000I-20320J0D01*
G01*
X10820320Y-9950000D02*
G75*
G03*
X10820320Y-9950000I-20320J0D01*
G01*
X11045320Y-7075000D02*
G75*
G03*
X11045320Y-7075000I-20320J0D01*
G01*
X11130320Y-5900000D02*
G75*
G03*
X11130320Y-5900000I-20320J0D01*
G01*
X11245320Y-6762000D02*
G75*
G03*
X11245320Y-6762000I-20320J0D01*
G01*
X11320320Y-5885000D02*
G75*
G03*
X11320320Y-5885000I-20320J0D01*
G01*
X11320320Y-6200000D02*
G75*
G03*
X11320320Y-6200000I-20320J0D01*
G01*
X11420320Y-7375000D02*
G75*
G03*
X11420320Y-7375000I-20320J0D01*
G01*
X11490320Y-5310000D02*
G75*
G03*
X11490320Y-5310000I-20320J0D01*
G01*
X11545320Y-6600000D02*
G75*
G03*
X11545320Y-6600000I-20320J0D01*
G01*
X11545320Y-6750000D02*
G75*
G03*
X11545320Y-6750000I-20320J0D01*
G01*
X11545320Y-8290000D02*
G75*
G03*
X11545320Y-8290000I-20320J0D01*
G01*
X11600320Y-8400000D02*
G75*
G03*
X11600320Y-8400000I-20320J0D01*
G01*
X11770320Y-9900000D02*
G75*
G03*
X11770320Y-9900000I-20320J0D01*
G01*
X11895320Y-6600000D02*
G75*
G03*
X11895320Y-6600000I-20320J0D01*
G01*
X11895320Y-6725000D02*
G75*
G03*
X11895320Y-6725000I-20320J0D01*
G01*
X11941945Y-9900000D02*
G75*
G03*
X11941945Y-9900000I-20320J0D01*
G01*
X11970320Y-5800000D02*
G75*
G03*
X11970320Y-5800000I-20320J0D01*
G01*
X11970320Y-6875000D02*
G75*
G03*
X11970320Y-6875000I-20320J0D01*
G01*
X12020320Y-6300000D02*
G75*
G03*
X12020320Y-6300000I-20320J0D01*
G01*
X12070320Y-6875000D02*
G75*
G03*
X12070320Y-6875000I-20320J0D01*
G01*
X12141945Y-9900000D02*
G75*
G03*
X12141945Y-9900000I-20320J0D01*
G01*
X12170320Y-6875000D02*
G75*
G03*
X12170320Y-6875000I-20320J0D01*
G01*
X12170320Y-7740000D02*
G75*
G03*
X12170320Y-7740000I-20320J0D01*
G01*
X12270320Y-6525000D02*
G75*
G03*
X12270320Y-6525000I-20320J0D01*
G01*
X12270320Y-6900000D02*
G75*
G03*
X12270320Y-6900000I-20320J0D01*
G01*
X12270320Y-7740000D02*
G75*
G03*
X12270320Y-7740000I-20320J0D01*
G01*
X12341945Y-9900000D02*
G75*
G03*
X12341945Y-9900000I-20320J0D01*
G01*
X12370320Y-6900000D02*
G75*
G03*
X12370320Y-6900000I-20320J0D01*
G01*
X12420320Y-8550000D02*
G75*
G03*
X12420320Y-8550000I-20320J0D01*
G01*
X12470320Y-6900000D02*
G75*
G03*
X12470320Y-6900000I-20320J0D01*
G01*
X12495320Y-8250000D02*
G75*
G03*
X12495320Y-8250000I-20320J0D01*
G01*
X12510320Y-7740000D02*
G75*
G03*
X12510320Y-7740000I-20320J0D01*
G01*
X12520320Y-8550000D02*
G75*
G03*
X12520320Y-8550000I-20320J0D01*
G01*
X12570320Y-6900000D02*
G75*
G03*
X12570320Y-6900000I-20320J0D01*
G01*
X12570320Y-7850000D02*
G75*
G03*
X12570320Y-7850000I-20320J0D01*
G01*
X12670320Y-6900000D02*
G75*
G03*
X12670320Y-6900000I-20320J0D01*
G01*
X12710320Y-7450000D02*
G75*
G03*
X12710320Y-7450000I-20320J0D01*
G01*
X12795320Y-7450000D02*
G75*
G03*
X12795320Y-7450000I-20320J0D01*
G01*
X12820320Y-7850000D02*
G75*
G03*
X12820320Y-7850000I-20320J0D01*
G01*
X12870320Y-8250000D02*
G75*
G03*
X12870320Y-8250000I-20320J0D01*
G01*
X12895320Y-7425000D02*
G75*
G03*
X12895320Y-7425000I-20320J0D01*
G01*
X13070320Y-7775000D02*
G75*
G03*
X13070320Y-7775000I-20320J0D01*
G01*
X13120320Y-6550000D02*
G75*
G03*
X13120320Y-6550000I-20320J0D01*
G01*
X13170320Y-6450000D02*
G75*
G03*
X13170320Y-6450000I-20320J0D01*
G01*
X13220320Y-6550000D02*
G75*
G03*
X13220320Y-6550000I-20320J0D01*
G01*
X13220320Y-7050000D02*
G75*
G03*
X13220320Y-7050000I-20320J0D01*
G01*
X13320320Y-6950000D02*
G75*
G03*
X13320320Y-6950000I-20320J0D01*
G01*
X13320320Y-7050000D02*
G75*
G03*
X13320320Y-7050000I-20320J0D01*
G01*
X13328320Y-6500000D02*
G75*
G03*
X13328320Y-6500000I-20320J0D01*
G01*
X13348320Y-6760000D02*
G75*
G03*
X13348320Y-6760000I-20320J0D01*
G01*
X13370320Y-6850000D02*
G75*
G03*
X13370320Y-6850000I-20320J0D01*
G01*
X13420320Y-6950000D02*
G75*
G03*
X13420320Y-6950000I-20320J0D01*
G01*
X13420320Y-7050000D02*
G75*
G03*
X13420320Y-7050000I-20320J0D01*
G01*
X13428320Y-6575000D02*
G75*
G03*
X13428320Y-6575000I-20320J0D01*
G01*
X13430320Y-7300000D02*
G75*
G03*
X13430320Y-7300000I-20320J0D01*
G01*
X13430320Y-7450000D02*
G75*
G03*
X13430320Y-7450000I-20320J0D01*
G01*
X13470320Y-7150000D02*
G75*
G03*
X13470320Y-7150000I-20320J0D01*
G01*
X13520320Y-9225000D02*
G75*
G03*
X13520320Y-9225000I-20320J0D01*
G01*
X13578320Y-6725000D02*
G75*
G03*
X13578320Y-6725000I-20320J0D01*
G01*
X13750320Y-9080000D02*
G75*
G03*
X13750320Y-9080000I-20320J0D01*
G01*
X13753820Y-7760000D02*
G75*
G03*
X13753820Y-7760000I-20320J0D01*
G01*
X13753820Y-8620000D02*
G75*
G03*
X13753820Y-8620000I-20320J0D01*
G01*
X13753820Y-9920000D02*
G75*
G03*
X13753820Y-9920000I-20320J0D01*
G01*
D14*
X10558222Y-5327500D02*
X10558222Y-5372500D01*
X10535722Y-5350000D02*
X10580722Y-5350000D01*
D11*
X10580722Y-5390000D02*
X10580722Y-5310000D01*
X10580722Y-5310000D02*
G75*
G03*
X10535722Y-5310000I-22500J0D01*
G01*
X10535722Y-5310000D02*
X10535722Y-5390000D01*
X10535722Y-5390000D02*
G75*
G03*
X10580722Y-5390000I22500J0D01*
G01*
D14*
X11273222Y-5327500D02*
X11273222Y-5372500D01*
X11250722Y-5350000D02*
X11295722Y-5350000D01*
D11*
X11250722Y-5310000D02*
X11250722Y-5390000D01*
X11250722Y-5390000D02*
G75*
G03*
X11295722Y-5390000I22500J0D01*
G01*
X11295722Y-5390000D02*
X11295722Y-5310000D01*
X11295722Y-5310000D02*
G75*
G03*
X11250722Y-5310000I-22500J0D01*
G01*
D15*
X3128284Y-6228284D02*
X3128284Y-6171715D01*
X3071715Y-6171715D01*
X3071715Y-6228284D01*
X3128284Y-6228284D01*
X3128284Y-6478284D02*
X3128284Y-6421715D01*
X3071715Y-6421715D01*
X3071715Y-6478284D01*
X3128284Y-6478284D01*
X3128284Y-6728284D02*
X3128284Y-6671715D01*
X3071715Y-6671715D01*
X3071715Y-6728284D01*
X3128284Y-6728284D01*
X3128284Y-6978284D02*
X3128284Y-6921715D01*
X3071715Y-6921715D01*
X3071715Y-6978284D01*
X3128284Y-6978284D01*
X3128284Y-7228284D02*
X3128284Y-7171715D01*
X3071715Y-7171715D01*
X3071715Y-7228284D01*
X3128284Y-7228284D01*
X3128284Y-7478284D02*
X3128284Y-7421715D01*
X3071715Y-7421715D01*
X3071715Y-7478284D01*
X3128284Y-7478284D01*
X3128284Y-7728284D02*
X3128284Y-7671715D01*
X3071715Y-7671715D01*
X3071715Y-7728284D01*
X3128284Y-7728284D01*
X3128284Y-8228284D02*
X3128284Y-8171715D01*
X3071715Y-8171715D01*
X3071715Y-8228284D01*
X3128284Y-8228284D01*
X3128284Y-8478285D02*
X3128284Y-8421716D01*
X3071715Y-8421716D01*
X3071715Y-8478285D01*
X3128284Y-8478285D01*
X3628284Y-6228284D02*
X3628284Y-6171715D01*
X3571715Y-6171715D01*
X3571715Y-6228284D01*
X3628284Y-6228284D01*
X3628284Y-6728284D02*
X3628284Y-6671715D01*
X3571715Y-6671715D01*
X3571715Y-6728284D01*
X3628284Y-6728284D01*
X3628284Y-7228284D02*
X3628284Y-7171715D01*
X3571715Y-7171715D01*
X3571715Y-7228284D01*
X3628284Y-7228284D01*
X3628284Y-7728284D02*
X3628284Y-7671715D01*
X3571715Y-7671715D01*
X3571715Y-7728284D01*
X3628284Y-7728284D01*
X3628284Y-8228284D02*
X3628284Y-8171715D01*
X3571715Y-8171715D01*
X3571715Y-8228284D01*
X3628284Y-8228284D01*
X3628284Y-8728285D02*
X3628284Y-8671716D01*
X3571715Y-8671716D01*
X3571715Y-8728285D01*
X3628284Y-8728285D01*
X3628284Y-9228285D02*
X3628284Y-9171716D01*
X3571715Y-9171716D01*
X3571715Y-9228285D01*
X3628284Y-9228285D01*
X3628284Y-9728285D02*
X3628284Y-9671716D01*
X3571715Y-9671716D01*
X3571715Y-9728285D01*
X3628284Y-9728285D01*
X3628284Y-10228285D02*
X3628284Y-10171716D01*
X3571715Y-10171716D01*
X3571715Y-10228285D01*
X3628284Y-10228285D01*
X3878284Y-10728285D02*
X3878284Y-10671716D01*
X3821715Y-10671716D01*
X3821715Y-10728285D01*
X3878284Y-10728285D01*
X4128284Y-7728284D02*
X4128284Y-7671715D01*
X4071715Y-7671715D01*
X4071715Y-7728284D01*
X4128284Y-7728284D01*
X4128284Y-8228284D02*
X4128284Y-8171715D01*
X4071715Y-8171715D01*
X4071715Y-8228284D01*
X4128284Y-8228284D01*
X4628285Y-7728284D02*
X4628285Y-7671715D01*
X4571716Y-7671715D01*
X4571716Y-7728284D01*
X4628285Y-7728284D01*
X5128285Y-7728284D02*
X5128285Y-7671715D01*
X5071716Y-7671715D01*
X5071716Y-7728284D01*
X5128285Y-7728284D01*
X5378285Y-10728285D02*
X5378285Y-10671716D01*
X5321716Y-10671716D01*
X5321716Y-10728285D01*
X5378285Y-10728285D01*
X5878284Y-10978285D02*
X5878284Y-10921716D01*
X5821715Y-10921716D01*
X5821715Y-10978285D01*
X5878284Y-10978285D01*
X6028284Y-9371285D02*
X6028284Y-9314716D01*
X5971715Y-9314716D01*
X5971715Y-9371285D01*
X6028284Y-9371285D01*
X6128284Y-10228285D02*
X6128284Y-10171716D01*
X6071715Y-10171716D01*
X6071715Y-10228285D01*
X6128284Y-10228285D01*
X6178284Y-9123285D02*
X6178284Y-9066716D01*
X6121715Y-9066716D01*
X6121715Y-9123285D01*
X6178284Y-9123285D01*
X6378284Y-5728284D02*
X6378284Y-5671715D01*
X6321715Y-5671715D01*
X6321715Y-5728284D01*
X6378284Y-5728284D01*
X6378284Y-6228284D02*
X6378284Y-6171715D01*
X6321715Y-6171715D01*
X6321715Y-6228284D01*
X6378284Y-6228284D01*
X6378284Y-10728285D02*
X6378284Y-10671716D01*
X6321715Y-10671716D01*
X6321715Y-10728285D01*
X6378284Y-10728285D01*
X6578284Y-10528285D02*
X6578284Y-10471716D01*
X6521715Y-10471716D01*
X6521715Y-10528285D01*
X6578284Y-10528285D01*
X6628284Y-10978285D02*
X6628284Y-10921716D01*
X6571715Y-10921716D01*
X6571715Y-10978285D01*
X6628284Y-10978285D01*
X7378284Y-5978284D02*
X7378284Y-5921715D01*
X7321715Y-5921715D01*
X7321715Y-5978284D01*
X7378284Y-5978284D01*
X7378284Y-6628284D02*
X7378284Y-6571715D01*
X7321715Y-6571715D01*
X7321715Y-6628284D01*
X7378284Y-6628284D01*
X7778284Y-6428284D02*
X7778284Y-6371715D01*
X7721715Y-6371715D01*
X7721715Y-6428284D01*
X7778284Y-6428284D01*
X7828284Y-7378284D02*
X7828284Y-7321715D01*
X7771715Y-7321715D01*
X7771715Y-7378284D01*
X7828284Y-7378284D01*
X7878284Y-5978284D02*
X7878284Y-5921715D01*
X7821715Y-5921715D01*
X7821715Y-5978284D01*
X7878284Y-5978284D01*
X8078284Y-9728285D02*
X8078284Y-9671716D01*
X8021715Y-9671716D01*
X8021715Y-9728285D01*
X8078284Y-9728285D01*
X8128284Y-6328284D02*
X8128284Y-6271715D01*
X8071715Y-6271715D01*
X8071715Y-6328284D01*
X8128284Y-6328284D01*
X8128284Y-10728285D02*
X8128284Y-10671716D01*
X8071715Y-10671716D01*
X8071715Y-10728285D01*
X8128284Y-10728285D01*
X8278284Y-7228284D02*
X8278284Y-7171715D01*
X8221715Y-7171715D01*
X8221715Y-7228284D01*
X8278284Y-7228284D01*
X8278284Y-10128285D02*
X8278284Y-10071716D01*
X8221715Y-10071716D01*
X8221715Y-10128285D01*
X8278284Y-10128285D01*
X8378284Y-5978284D02*
X8378284Y-5921715D01*
X8321715Y-5921715D01*
X8321715Y-5978284D01*
X8378284Y-5978284D01*
X8378284Y-10478285D02*
X8378284Y-10421716D01*
X8321715Y-10421716D01*
X8321715Y-10478285D01*
X8378284Y-10478285D01*
X8478285Y-9471285D02*
X8478285Y-9414716D01*
X8421716Y-9414716D01*
X8421716Y-9471285D01*
X8478285Y-9471285D01*
X8628285Y-6328284D02*
X8628285Y-6271715D01*
X8571716Y-6271715D01*
X8571716Y-6328284D01*
X8628285Y-6328284D01*
X8628285Y-10728285D02*
X8628285Y-10671716D01*
X8571716Y-10671716D01*
X8571716Y-10728285D01*
X8628285Y-10728285D01*
X8878285Y-5978284D02*
X8878285Y-5921715D01*
X8821716Y-5921715D01*
X8821716Y-5978284D01*
X8878285Y-5978284D01*
X9878285Y-10133285D02*
X9878285Y-10076716D01*
X9821716Y-10076716D01*
X9821716Y-10133285D01*
X9878285Y-10133285D01*
X10078285Y-9879285D02*
X10078285Y-9822716D01*
X10021716Y-9822716D01*
X10021716Y-9879285D01*
X10078285Y-9879285D01*
X10528285Y-6070784D02*
X10528285Y-6014215D01*
X10471716Y-6014215D01*
X10471716Y-6070784D01*
X10528285Y-6070784D01*
X10678285Y-9153285D02*
X10678285Y-9096716D01*
X10621716Y-9096716D01*
X10621716Y-9153285D01*
X10678285Y-9153285D01*
X10760785Y-6070784D02*
X10760785Y-6014215D01*
X10704216Y-6014215D01*
X10704216Y-6070784D01*
X10760785Y-6070784D01*
X10778285Y-10133285D02*
X10778285Y-10076716D01*
X10721716Y-10076716D01*
X10721716Y-10133285D01*
X10778285Y-10133285D01*
X10978285Y-9879285D02*
X10978285Y-9822716D01*
X10921716Y-9822716D01*
X10921716Y-9879285D01*
X10978285Y-9879285D01*
X11251506Y-6548284D02*
X11251506Y-6491715D01*
X11194937Y-6491715D01*
X11194937Y-6548284D01*
X11251506Y-6548284D01*
X11303284Y-10153285D02*
X11303284Y-10096716D01*
X11246715Y-10096716D01*
X11246715Y-10153285D01*
X11303284Y-10153285D01*
X11436284Y-7540284D02*
X11436284Y-7483715D01*
X11379715Y-7483715D01*
X11379715Y-7540284D01*
X11436284Y-7540284D01*
X11498507Y-6078284D02*
X11498507Y-6021715D01*
X11441938Y-6021715D01*
X11441938Y-6078284D01*
X11498507Y-6078284D01*
X11528284Y-8920785D02*
X11528284Y-8864216D01*
X11471715Y-8864216D01*
X11471715Y-8920785D01*
X11528284Y-8920785D01*
X11528284Y-9118285D02*
X11528284Y-9061716D01*
X11471715Y-9061716D01*
X11471715Y-9118285D01*
X11528284Y-9118285D01*
X11588284Y-7778284D02*
X11588284Y-7721715D01*
X11531715Y-7721715D01*
X11531715Y-7778284D01*
X11588284Y-7778284D01*
X11678284Y-7928284D02*
X11678284Y-7871715D01*
X11621715Y-7871715D01*
X11621715Y-7928284D01*
X11678284Y-7928284D01*
X11828284Y-7728284D02*
X11828284Y-7671715D01*
X11771715Y-7671715D01*
X11771715Y-7728284D01*
X11828284Y-7728284D01*
X11928284Y-5553285D02*
X11928284Y-5496716D01*
X11871715Y-5496716D01*
X11871715Y-5553285D01*
X11928284Y-5553285D01*
X12161284Y-8638285D02*
X12161284Y-8581716D01*
X12104715Y-8581716D01*
X12104715Y-8638285D01*
X12161284Y-8638285D01*
X12217484Y-6753284D02*
X12217484Y-6696715D01*
X12160915Y-6696715D01*
X12160915Y-6753284D01*
X12217484Y-6753284D01*
X12303284Y-8728285D02*
X12303284Y-8671716D01*
X12246715Y-8671716D01*
X12246715Y-8728285D01*
X12303284Y-8728285D01*
X12453284Y-6028284D02*
X12453284Y-5971715D01*
X12396715Y-5971715D01*
X12396715Y-6028284D01*
X12453284Y-6028284D01*
X12511284Y-6328284D02*
X12511284Y-6271715D01*
X12454715Y-6271715D01*
X12454715Y-6328284D01*
X12511284Y-6328284D01*
X12928284Y-8753285D02*
X12928284Y-8696716D01*
X12871715Y-8696716D01*
X12871715Y-8753285D01*
X12928284Y-8753285D01*
X13078284Y-7028284D02*
X13078284Y-6971715D01*
X13021715Y-6971715D01*
X13021715Y-7028284D01*
X13078284Y-7028284D01*
X13258284Y-7288284D02*
X13258284Y-7231715D01*
X13201715Y-7231715D01*
X13201715Y-7288284D01*
X13258284Y-7288284D01*
X13338284Y-7603284D02*
X13338284Y-7546715D01*
X13281715Y-7546715D01*
X13281715Y-7603284D01*
X13338284Y-7603284D01*
X13978284Y-7128284D02*
X13978284Y-7071715D01*
X13921715Y-7071715D01*
X13921715Y-7128284D01*
X13978284Y-7128284D01*
X13978284Y-7528284D02*
X13978284Y-7471715D01*
X13921715Y-7471715D01*
X13921715Y-7528284D01*
X13978284Y-7528284D01*
X14178284Y-5728284D02*
X14178284Y-5671715D01*
X14121715Y-5671715D01*
X14121715Y-5728284D01*
X14178284Y-5728284D01*
X14178284Y-6328284D02*
X14178284Y-6271715D01*
X14121715Y-6271715D01*
X14121715Y-6328284D01*
X14178284Y-6328284D01*
X14278284Y-7128284D02*
X14278284Y-7071715D01*
X14221715Y-7071715D01*
X14221715Y-7128284D01*
X14278284Y-7128284D01*
X14378284Y-7528284D02*
X14378284Y-7471715D01*
X14321715Y-7471715D01*
X14321715Y-7528284D01*
X14378284Y-7528284D01*
X14478284Y-6328284D02*
X14478284Y-6271715D01*
X14421715Y-6271715D01*
X14421715Y-6328284D01*
X14478284Y-6328284D01*
X14478284Y-8878285D02*
X14478284Y-8821716D01*
X14421715Y-8821716D01*
X14421715Y-8878285D01*
X14478284Y-8878285D01*
X14503284Y-10178285D02*
X14503284Y-10121716D01*
X14446715Y-10121716D01*
X14446715Y-10178285D01*
X14503284Y-10178285D01*
X14578284Y-7128284D02*
X14578284Y-7071715D01*
X14521715Y-7071715D01*
X14521715Y-7128284D01*
X14578284Y-7128284D01*
X14628284Y-8878285D02*
X14628284Y-8821716D01*
X14571715Y-8821716D01*
X14571715Y-8878285D01*
X14628284Y-8878285D01*
X4250000Y-6840000D02*
X4290000Y-6800000D01*
X4250000Y-6760000D01*
X4210000Y-6800000D01*
X4250000Y-6840000D01*
X4758000Y-6840000D02*
X4798000Y-6800000D01*
X4758000Y-6760000D01*
X4718000Y-6800000D01*
X4758000Y-6840000D01*
X5242000Y-6840000D02*
X5282000Y-6800000D01*
X5242000Y-6760000D01*
X5202000Y-6800000D01*
X5242000Y-6840000D01*
X5250000Y-6040000D02*
X5290000Y-6000000D01*
X5250000Y-5960000D01*
X5210000Y-6000000D01*
X5250000Y-6040000D01*
X5750000Y-6840000D02*
X5790000Y-6800000D01*
X5750000Y-6760000D01*
X5710000Y-6800000D01*
X5750000Y-6840000D01*
X5758000Y-6040000D02*
X5798000Y-6000000D01*
X5758000Y-5960000D01*
X5718000Y-6000000D01*
X5758000Y-6040000D01*
X7050000Y-6335000D02*
X7090000Y-6295000D01*
X7050000Y-6255000D01*
X7010000Y-6295000D01*
X7050000Y-6335000D01*
X7050000Y-6589000D02*
X7090000Y-6549000D01*
X7050000Y-6509000D01*
X7010000Y-6549000D01*
X7050000Y-6589000D01*
X7050000Y-6843000D02*
X7090000Y-6803000D01*
X7050000Y-6763000D01*
X7010000Y-6803000D01*
X7050000Y-6843000D01*
X7050000Y-7097000D02*
X7090000Y-7057000D01*
X7050000Y-7017000D01*
X7010000Y-7057000D01*
X7050000Y-7097000D01*
X7050000Y-7351000D02*
X7090000Y-7311000D01*
X7050000Y-7271000D01*
X7010000Y-7311000D01*
X7050000Y-7351000D01*
X7050000Y-7605000D02*
X7090000Y-7565000D01*
X7050000Y-7525000D01*
X7010000Y-7565000D01*
X7050000Y-7605000D01*
X7050000Y-7859000D02*
X7090000Y-7819000D01*
X7050000Y-7779000D01*
X7010000Y-7819000D01*
X7050000Y-7859000D01*
X7050000Y-8113000D02*
X7090000Y-8073000D01*
X7050000Y-8033000D01*
X7010000Y-8073000D01*
X7050000Y-8113000D01*
X7050000Y-8367000D02*
X7090000Y-8327000D01*
X7050000Y-8287000D01*
X7010000Y-8327000D01*
X7050000Y-8367000D01*
X7050000Y-8621000D02*
X7090000Y-8581000D01*
X7050000Y-8541000D01*
X7010000Y-8581000D01*
X7050000Y-8621000D01*
X7050000Y-8875000D02*
X7090000Y-8835000D01*
X7050000Y-8795000D01*
X7010000Y-8835000D01*
X7050000Y-8875000D01*
X7050000Y-9129000D02*
X7090000Y-9089000D01*
X7050000Y-9049000D01*
X7010000Y-9089000D01*
X7050000Y-9129000D01*
X7050000Y-9383000D02*
X7090000Y-9343000D01*
X7050000Y-9303000D01*
X7010000Y-9343000D01*
X7050000Y-9383000D01*
X7050000Y-9637000D02*
X7090000Y-9597000D01*
X7050000Y-9557000D01*
X7010000Y-9597000D01*
X7050000Y-9637000D01*
X7050000Y-9891000D02*
X7090000Y-9851000D01*
X7050000Y-9811000D01*
X7010000Y-9851000D01*
X7050000Y-9891000D01*
X7050000Y-10145000D02*
X7090000Y-10105000D01*
X7050000Y-10065000D01*
X7010000Y-10105000D01*
X7050000Y-10145000D01*
X9082000Y-7351000D02*
X9122000Y-7311000D01*
X9082000Y-7271000D01*
X9042000Y-7311000D01*
X9082000Y-7351000D01*
X9082000Y-7605000D02*
X9122000Y-7565000D01*
X9082000Y-7525000D01*
X9042000Y-7565000D01*
X9082000Y-7605000D01*
X9082000Y-7859000D02*
X9122000Y-7819000D01*
X9082000Y-7779000D01*
X9042000Y-7819000D01*
X9082000Y-7859000D01*
X9082000Y-8113000D02*
X9122000Y-8073000D01*
X9082000Y-8033000D01*
X9042000Y-8073000D01*
X9082000Y-8113000D01*
X9082000Y-8367000D02*
X9122000Y-8327000D01*
X9082000Y-8287000D01*
X9042000Y-8327000D01*
X9082000Y-8367000D01*
X9082000Y-8621000D02*
X9122000Y-8581000D01*
X9082000Y-8541000D01*
X9042000Y-8581000D01*
X9082000Y-8621000D01*
X9082000Y-8875000D02*
X9122000Y-8835000D01*
X9082000Y-8795000D01*
X9042000Y-8835000D01*
X9082000Y-8875000D01*
X9082000Y-9129000D02*
X9122000Y-9089000D01*
X9082000Y-9049000D01*
X9042000Y-9089000D01*
X9082000Y-9129000D01*
X9082000Y-9383000D02*
X9122000Y-9343000D01*
X9082000Y-9303000D01*
X9042000Y-9343000D01*
X9082000Y-9383000D01*
X9082000Y-9637000D02*
X9122000Y-9597000D01*
X9082000Y-9557000D01*
X9042000Y-9597000D01*
X9082000Y-9637000D01*
X9082000Y-9891000D02*
X9122000Y-9851000D01*
X9082000Y-9811000D01*
X9042000Y-9851000D01*
X9082000Y-9891000D01*
X9082000Y-10145000D02*
X9122000Y-10105000D01*
X9082000Y-10065000D01*
X9042000Y-10105000D01*
X9082000Y-10145000D01*
X13250000Y-10486000D02*
X13290000Y-10446000D01*
X13250000Y-10406000D01*
X13210000Y-10446000D01*
X13250000Y-10486000D01*
X13250000Y-10994000D02*
X13290000Y-10954000D01*
X13250000Y-10914000D01*
X13210000Y-10954000D01*
X13250000Y-10994000D01*
D10*
X3060000Y-8734000D02*
X3160000Y-8834000D01*
X3160000Y-8734000D02*
X3060000Y-8834000D01*
X3160000Y-8784000D02*
G75*
G03*
X3160000Y-8784000I-50000J0D01*
G01*
X3060000Y-8988000D02*
X3160000Y-9088000D01*
X3160000Y-8988000D02*
X3060000Y-9088000D01*
X3160000Y-9038000D02*
G75*
G03*
X3160000Y-9038000I-50000J0D01*
G01*
X3060000Y-9242000D02*
X3160000Y-9342000D01*
X3160000Y-9242000D02*
X3060000Y-9342000D01*
X3160000Y-9292000D02*
G75*
G03*
X3160000Y-9292000I-50000J0D01*
G01*
X3060000Y-9496000D02*
X3160000Y-9596000D01*
X3160000Y-9496000D02*
X3060000Y-9596000D01*
X3160000Y-9546000D02*
G75*
G03*
X3160000Y-9546000I-50000J0D01*
G01*
X3060000Y-9750000D02*
X3160000Y-9850000D01*
X3160000Y-9750000D02*
X3060000Y-9850000D01*
X3160000Y-9800000D02*
G75*
G03*
X3160000Y-9800000I-50000J0D01*
G01*
X4100000Y-10250000D02*
X4200000Y-10350000D01*
X4200000Y-10250000D02*
X4100000Y-10350000D01*
X4200000Y-10300000D02*
G75*
G03*
X4200000Y-10300000I-50000J0D01*
G01*
X4354000Y-10250000D02*
X4454000Y-10350000D01*
X4454000Y-10250000D02*
X4354000Y-10350000D01*
X4454000Y-10300000D02*
G75*
G03*
X4454000Y-10300000I-50000J0D01*
G01*
X4608000Y-10250000D02*
X4708000Y-10350000D01*
X4708000Y-10250000D02*
X4608000Y-10350000D01*
X4708000Y-10300000D02*
G75*
G03*
X4708000Y-10300000I-50000J0D01*
G01*
X4862000Y-10250000D02*
X4962000Y-10350000D01*
X4962000Y-10250000D02*
X4862000Y-10350000D01*
X4962000Y-10300000D02*
G75*
G03*
X4962000Y-10300000I-50000J0D01*
G01*
X5600000Y-7718000D02*
X5700000Y-7818000D01*
X5700000Y-7718000D02*
X5600000Y-7818000D01*
X5700000Y-7768000D02*
G75*
G03*
X5700000Y-7768000I-50000J0D01*
G01*
X5600000Y-7972000D02*
X5700000Y-8072000D01*
X5700000Y-7972000D02*
X5600000Y-8072000D01*
X5700000Y-8022000D02*
G75*
G03*
X5700000Y-8022000I-50000J0D01*
G01*
X5600000Y-8226000D02*
X5700000Y-8326000D01*
X5700000Y-8226000D02*
X5600000Y-8326000D01*
X5700000Y-8276000D02*
G75*
G03*
X5700000Y-8276000I-50000J0D01*
G01*
X5600000Y-8480000D02*
X5700000Y-8580000D01*
X5700000Y-8480000D02*
X5600000Y-8580000D01*
X5700000Y-8530000D02*
G75*
G03*
X5700000Y-8530000I-50000J0D01*
G01*
X5600000Y-8734000D02*
X5700000Y-8834000D01*
X5700000Y-8734000D02*
X5600000Y-8834000D01*
X5700000Y-8784000D02*
G75*
G03*
X5700000Y-8784000I-50000J0D01*
G01*
X5600000Y-8988000D02*
X5700000Y-9088000D01*
X5700000Y-8988000D02*
X5600000Y-9088000D01*
X5700000Y-9038000D02*
G75*
G03*
X5700000Y-9038000I-50000J0D01*
G01*
X5600000Y-9242000D02*
X5700000Y-9342000D01*
X5700000Y-9242000D02*
X5600000Y-9342000D01*
X5700000Y-9292000D02*
G75*
G03*
X5700000Y-9292000I-50000J0D01*
G01*
X5600000Y-9496000D02*
X5700000Y-9596000D01*
X5700000Y-9496000D02*
X5600000Y-9596000D01*
X5700000Y-9546000D02*
G75*
G03*
X5700000Y-9546000I-50000J0D01*
G01*
X5600000Y-9750000D02*
X5700000Y-9850000D01*
X5700000Y-9750000D02*
X5600000Y-9850000D01*
X5700000Y-9800000D02*
G75*
G03*
X5700000Y-9800000I-50000J0D01*
G01*
X6746000Y-5375000D02*
X6846000Y-5475000D01*
X6846000Y-5375000D02*
X6746000Y-5475000D01*
X6846000Y-5425000D02*
G75*
G03*
X6846000Y-5425000I-50000J0D01*
G01*
X7000000Y-5375000D02*
X7100000Y-5475000D01*
X7100000Y-5375000D02*
X7000000Y-5475000D01*
X7100000Y-5425000D02*
G75*
G03*
X7100000Y-5425000I-50000J0D01*
G01*
X9620000Y-6170000D02*
X9720000Y-6270000D01*
X9720000Y-6170000D02*
X9620000Y-6270000D01*
X9720000Y-6220000D02*
G75*
G03*
X9720000Y-6220000I-50000J0D01*
G01*
X9620000Y-6424000D02*
X9720000Y-6524000D01*
X9720000Y-6424000D02*
X9620000Y-6524000D01*
X9720000Y-6474000D02*
G75*
G03*
X9720000Y-6474000I-50000J0D01*
G01*
X9620000Y-6678000D02*
X9720000Y-6778000D01*
X9720000Y-6678000D02*
X9620000Y-6778000D01*
X9720000Y-6728000D02*
G75*
G03*
X9720000Y-6728000I-50000J0D01*
G01*
X9620000Y-6932000D02*
X9720000Y-7032000D01*
X9720000Y-6932000D02*
X9620000Y-7032000D01*
X9720000Y-6982000D02*
G75*
G03*
X9720000Y-6982000I-50000J0D01*
G01*
X9700000Y-7375000D02*
X9800000Y-7475000D01*
X9800000Y-7375000D02*
X9700000Y-7475000D01*
X9800000Y-7425000D02*
G75*
G03*
X9800000Y-7425000I-50000J0D01*
G01*
X9700000Y-7850000D02*
X9800000Y-7950000D01*
X9800000Y-7850000D02*
X9700000Y-7950000D01*
X9800000Y-7900000D02*
G75*
G03*
X9800000Y-7900000I-50000J0D01*
G01*
X9954000Y-7375000D02*
X10054000Y-7475000D01*
X10054000Y-7375000D02*
X9954000Y-7475000D01*
X10054000Y-7425000D02*
G75*
G03*
X10054000Y-7425000I-50000J0D01*
G01*
X9954000Y-7850000D02*
X10054000Y-7950000D01*
X10054000Y-7850000D02*
X9954000Y-7950000D01*
X10054000Y-7900000D02*
G75*
G03*
X10054000Y-7900000I-50000J0D01*
G01*
D16*
X9595000Y-8295000D02*
X9705000Y-8405000D01*
X9705000Y-8295000D02*
X9595000Y-8405000D01*
X9650000Y-8295000D02*
X9650000Y-8405000D01*
X9595000Y-8350000D02*
X9705000Y-8350000D01*
X9595000Y-8945000D02*
X9705000Y-9055000D01*
X9705000Y-8945000D02*
X9595000Y-9055000D01*
X9650000Y-8945000D02*
X9650000Y-9055000D01*
X9595000Y-9000000D02*
X9705000Y-9000000D01*
X10045000Y-8295000D02*
X10155000Y-8405000D01*
X10155000Y-8295000D02*
X10045000Y-8405000D01*
X10100000Y-8295000D02*
X10100000Y-8405000D01*
X10045000Y-8350000D02*
X10155000Y-8350000D01*
X10045000Y-8945000D02*
X10155000Y-9055000D01*
X10155000Y-8945000D02*
X10045000Y-9055000D01*
X10100000Y-8945000D02*
X10100000Y-9055000D01*
X10045000Y-9000000D02*
X10155000Y-9000000D01*
D17*
X4174000Y-5624000D02*
X4326000Y-5776000D01*
X4326000Y-5624000D02*
X4174000Y-5776000D01*
X4303741Y-5753741D02*
X4303741Y-5646259D01*
X4196259Y-5646259D01*
X4196259Y-5753741D01*
X4303741Y-5753741D01*
X4682000Y-5624000D02*
X4834000Y-5776000D01*
X4834000Y-5624000D02*
X4682000Y-5776000D01*
X4811741Y-5753741D02*
X4811741Y-5646259D01*
X4704259Y-5646259D01*
X4704259Y-5753741D01*
X4811741Y-5753741D01*
X11612000Y-10624000D02*
X11764000Y-10776000D01*
X11764000Y-10624000D02*
X11612000Y-10776000D01*
X11741740Y-10753741D02*
X11741740Y-10646259D01*
X11634259Y-10646259D01*
X11634259Y-10753741D01*
X11741740Y-10753741D01*
X12120000Y-10624000D02*
X12272000Y-10776000D01*
X12272000Y-10624000D02*
X12120000Y-10776000D01*
X12249740Y-10753741D02*
X12249740Y-10646259D01*
X12142259Y-10646259D01*
X12142259Y-10753741D01*
X12249740Y-10753741D01*
X12628000Y-10624000D02*
X12780000Y-10776000D01*
X12780000Y-10624000D02*
X12628000Y-10776000D01*
X12757740Y-10753741D02*
X12757740Y-10646259D01*
X12650259Y-10646259D01*
X12650259Y-10753741D01*
X12757740Y-10753741D01*
X14974000Y-6616000D02*
X15126000Y-6768000D01*
X15126000Y-6616000D02*
X14974000Y-6768000D01*
X15103741Y-6745741D02*
X15103741Y-6638259D01*
X14996259Y-6638259D01*
X14996259Y-6745741D01*
X15103741Y-6745741D01*
X14974000Y-7124000D02*
X15126000Y-7276000D01*
X15126000Y-7124000D02*
X14974000Y-7276000D01*
X15103741Y-7253741D02*
X15103741Y-7146259D01*
X14996259Y-7146259D01*
X14996259Y-7253741D01*
X15103741Y-7253741D01*
X14974000Y-7870000D02*
X15126000Y-8022000D01*
X15126000Y-7870000D02*
X14974000Y-8022000D01*
X15103741Y-7999741D02*
X15103741Y-7892259D01*
X14996259Y-7892259D01*
X14996259Y-7999741D01*
X15103741Y-7999741D01*
X14974000Y-8378000D02*
X15126000Y-8530000D01*
X15126000Y-8378000D02*
X14974000Y-8530000D01*
X15103741Y-8507741D02*
X15103741Y-8400259D01*
X14996259Y-8400259D01*
X14996259Y-8507741D01*
X15103741Y-8507741D01*
X14974000Y-9170000D02*
X15126000Y-9322000D01*
X15126000Y-9170000D02*
X14974000Y-9322000D01*
X15103741Y-9299741D02*
X15103741Y-9192259D01*
X14996259Y-9192259D01*
X14996259Y-9299741D01*
X15103741Y-9299741D01*
X14974000Y-9678000D02*
X15126000Y-9830000D01*
X15126000Y-9678000D02*
X14974000Y-9830000D01*
X15103741Y-9807741D02*
X15103741Y-9700259D01*
X14996259Y-9700259D01*
X14996259Y-9807741D01*
X15103741Y-9807741D01*
D18*
X12245500Y-5607500D02*
X12430500Y-5792500D01*
X12430500Y-5607500D02*
X12245500Y-5792500D01*
X12338000Y-5792500D02*
X12430500Y-5700000D01*
X12338000Y-5607500D01*
X12245500Y-5700000D01*
X12338000Y-5792500D01*
X12715500Y-5607500D02*
X12900500Y-5792500D01*
X12900500Y-5607500D02*
X12715500Y-5792500D01*
X12808000Y-5792500D02*
X12900500Y-5700000D01*
X12808000Y-5607500D01*
X12715500Y-5700000D01*
X12808000Y-5792500D01*
X13185500Y-5607500D02*
X13370500Y-5792500D01*
X13370500Y-5607500D02*
X13185500Y-5792500D01*
X13278000Y-5792500D02*
X13370500Y-5700000D01*
X13278000Y-5607500D01*
X13185500Y-5700000D01*
X13278000Y-5792500D01*
D11*
X3105777Y-11516484D02*
X3105777Y-11316484D01*
X3105777Y-11316484D02*
X3153396Y-11316484D01*
X3153396Y-11316484D02*
X3181967Y-11326008D01*
X3181967Y-11326008D02*
X3201015Y-11345055D01*
X3201015Y-11345055D02*
X3210539Y-11364103D01*
X3210539Y-11364103D02*
X3220062Y-11402198D01*
X3220062Y-11402198D02*
X3220062Y-11430769D01*
X3220062Y-11430769D02*
X3210539Y-11468865D01*
X3210539Y-11468865D02*
X3201015Y-11487912D01*
X3201015Y-11487912D02*
X3181967Y-11506960D01*
X3181967Y-11506960D02*
X3153396Y-11516484D01*
X3153396Y-11516484D02*
X3105777Y-11516484D01*
X3305777Y-11516484D02*
X3305777Y-11383150D01*
X3305777Y-11421246D02*
X3315301Y-11402198D01*
X3315301Y-11402198D02*
X3324824Y-11392674D01*
X3324824Y-11392674D02*
X3343872Y-11383150D01*
X3343872Y-11383150D02*
X3362920Y-11383150D01*
X3429586Y-11516484D02*
X3429586Y-11383150D01*
X3429586Y-11316484D02*
X3420062Y-11326008D01*
X3420062Y-11326008D02*
X3429586Y-11335531D01*
X3429586Y-11335531D02*
X3439110Y-11326008D01*
X3439110Y-11326008D02*
X3429586Y-11316484D01*
X3429586Y-11316484D02*
X3429586Y-11335531D01*
X3553396Y-11516484D02*
X3534348Y-11506960D01*
X3534348Y-11506960D02*
X3524824Y-11487912D01*
X3524824Y-11487912D02*
X3524824Y-11316484D01*
X3658158Y-11516484D02*
X3639110Y-11506960D01*
X3639110Y-11506960D02*
X3629586Y-11487912D01*
X3629586Y-11487912D02*
X3629586Y-11316484D01*
X3886729Y-11516484D02*
X3886729Y-11316484D01*
X3886729Y-11316484D02*
X3953396Y-11459341D01*
X3953396Y-11459341D02*
X4020062Y-11316484D01*
X4020062Y-11316484D02*
X4020062Y-11516484D01*
X4201015Y-11516484D02*
X4201015Y-11411722D01*
X4201015Y-11411722D02*
X4191491Y-11392674D01*
X4191491Y-11392674D02*
X4172443Y-11383150D01*
X4172443Y-11383150D02*
X4134348Y-11383150D01*
X4134348Y-11383150D02*
X4115301Y-11392674D01*
X4201015Y-11506960D02*
X4181967Y-11516484D01*
X4181967Y-11516484D02*
X4134348Y-11516484D01*
X4134348Y-11516484D02*
X4115301Y-11506960D01*
X4115301Y-11506960D02*
X4105777Y-11487912D01*
X4105777Y-11487912D02*
X4105777Y-11468865D01*
X4105777Y-11468865D02*
X4115301Y-11449817D01*
X4115301Y-11449817D02*
X4134348Y-11440293D01*
X4134348Y-11440293D02*
X4181967Y-11440293D01*
X4181967Y-11440293D02*
X4201015Y-11430769D01*
X4296253Y-11383150D02*
X4296253Y-11583150D01*
X4296253Y-11392674D02*
X4315301Y-11383150D01*
X4315301Y-11383150D02*
X4353396Y-11383150D01*
X4353396Y-11383150D02*
X4372444Y-11392674D01*
X4372444Y-11392674D02*
X4381967Y-11402198D01*
X4381967Y-11402198D02*
X4391491Y-11421246D01*
X4391491Y-11421246D02*
X4391491Y-11478388D01*
X4391491Y-11478388D02*
X4381967Y-11497436D01*
X4381967Y-11497436D02*
X4372444Y-11506960D01*
X4372444Y-11506960D02*
X4353396Y-11516484D01*
X4353396Y-11516484D02*
X4315301Y-11516484D01*
X4315301Y-11516484D02*
X4296253Y-11506960D01*
X4477205Y-11497436D02*
X4486729Y-11506960D01*
X4486729Y-11506960D02*
X4477205Y-11516484D01*
X4477205Y-11516484D02*
X4467682Y-11506960D01*
X4467682Y-11506960D02*
X4477205Y-11497436D01*
X4477205Y-11497436D02*
X4477205Y-11516484D01*
X4477205Y-11392674D02*
X4486729Y-11402198D01*
X4486729Y-11402198D02*
X4477205Y-11411722D01*
X4477205Y-11411722D02*
X4467682Y-11402198D01*
X4467682Y-11402198D02*
X4477205Y-11392674D01*
X4477205Y-11392674D02*
X4477205Y-11411722D01*
D12*
X2805000Y-11825000D02*
X2845000Y-11865000D01*
X2845000Y-11825000D02*
X2805000Y-11865000D01*
D11*
X3143872Y-11736484D02*
X3162920Y-11736484D01*
X3162920Y-11736484D02*
X3181967Y-11746008D01*
X3181967Y-11746008D02*
X3191491Y-11755531D01*
X3191491Y-11755531D02*
X3201015Y-11774579D01*
X3201015Y-11774579D02*
X3210539Y-11812674D01*
X3210539Y-11812674D02*
X3210539Y-11860293D01*
X3210539Y-11860293D02*
X3201015Y-11898388D01*
X3201015Y-11898388D02*
X3191491Y-11917436D01*
X3191491Y-11917436D02*
X3181967Y-11926960D01*
X3181967Y-11926960D02*
X3162920Y-11936484D01*
X3162920Y-11936484D02*
X3143872Y-11936484D01*
X3143872Y-11936484D02*
X3124824Y-11926960D01*
X3124824Y-11926960D02*
X3115301Y-11917436D01*
X3115301Y-11917436D02*
X3105777Y-11898388D01*
X3105777Y-11898388D02*
X3096253Y-11860293D01*
X3096253Y-11860293D02*
X3096253Y-11812674D01*
X3096253Y-11812674D02*
X3105777Y-11774579D01*
X3105777Y-11774579D02*
X3115301Y-11755531D01*
X3115301Y-11755531D02*
X3124824Y-11746008D01*
X3124824Y-11746008D02*
X3143872Y-11736484D01*
X3296253Y-11917436D02*
X3305777Y-11926960D01*
X3305777Y-11926960D02*
X3296253Y-11936484D01*
X3296253Y-11936484D02*
X3286729Y-11926960D01*
X3286729Y-11926960D02*
X3296253Y-11917436D01*
X3296253Y-11917436D02*
X3296253Y-11936484D01*
X3477205Y-11803150D02*
X3477205Y-11936484D01*
X3429586Y-11726960D02*
X3381967Y-11869817D01*
X3381967Y-11869817D02*
X3505777Y-11869817D01*
X3620062Y-11736484D02*
X3639110Y-11736484D01*
X3639110Y-11736484D02*
X3658158Y-11746008D01*
X3658158Y-11746008D02*
X3667682Y-11755531D01*
X3667682Y-11755531D02*
X3677205Y-11774579D01*
X3677205Y-11774579D02*
X3686729Y-11812674D01*
X3686729Y-11812674D02*
X3686729Y-11860293D01*
X3686729Y-11860293D02*
X3677205Y-11898388D01*
X3677205Y-11898388D02*
X3667682Y-11917436D01*
X3667682Y-11917436D02*
X3658158Y-11926960D01*
X3658158Y-11926960D02*
X3639110Y-11936484D01*
X3639110Y-11936484D02*
X3620062Y-11936484D01*
X3620062Y-11936484D02*
X3601015Y-11926960D01*
X3601015Y-11926960D02*
X3591491Y-11917436D01*
X3591491Y-11917436D02*
X3581967Y-11898388D01*
X3581967Y-11898388D02*
X3572443Y-11860293D01*
X3572443Y-11860293D02*
X3572443Y-11812674D01*
X3572443Y-11812674D02*
X3581967Y-11774579D01*
X3581967Y-11774579D02*
X3591491Y-11755531D01*
X3591491Y-11755531D02*
X3601015Y-11746008D01*
X3601015Y-11746008D02*
X3620062Y-11736484D01*
X3810539Y-11736484D02*
X3829586Y-11736484D01*
X3829586Y-11736484D02*
X3848634Y-11746008D01*
X3848634Y-11746008D02*
X3858158Y-11755531D01*
X3858158Y-11755531D02*
X3867682Y-11774579D01*
X3867682Y-11774579D02*
X3877205Y-11812674D01*
X3877205Y-11812674D02*
X3877205Y-11860293D01*
X3877205Y-11860293D02*
X3867682Y-11898388D01*
X3867682Y-11898388D02*
X3858158Y-11917436D01*
X3858158Y-11917436D02*
X3848634Y-11926960D01*
X3848634Y-11926960D02*
X3829586Y-11936484D01*
X3829586Y-11936484D02*
X3810539Y-11936484D01*
X3810539Y-11936484D02*
X3791491Y-11926960D01*
X3791491Y-11926960D02*
X3781967Y-11917436D01*
X3781967Y-11917436D02*
X3772443Y-11898388D01*
X3772443Y-11898388D02*
X3762920Y-11860293D01*
X3762920Y-11860293D02*
X3762920Y-11812674D01*
X3762920Y-11812674D02*
X3772443Y-11774579D01*
X3772443Y-11774579D02*
X3781967Y-11755531D01*
X3781967Y-11755531D02*
X3791491Y-11746008D01*
X3791491Y-11746008D02*
X3810539Y-11736484D01*
X3962920Y-11936484D02*
X3962920Y-11803150D01*
X3962920Y-11822198D02*
X3972443Y-11812674D01*
X3972443Y-11812674D02*
X3991491Y-11803150D01*
X3991491Y-11803150D02*
X4020063Y-11803150D01*
X4020063Y-11803150D02*
X4039110Y-11812674D01*
X4039110Y-11812674D02*
X4048634Y-11831722D01*
X4048634Y-11831722D02*
X4048634Y-11936484D01*
X4048634Y-11831722D02*
X4058158Y-11812674D01*
X4058158Y-11812674D02*
X4077205Y-11803150D01*
X4077205Y-11803150D02*
X4105777Y-11803150D01*
X4105777Y-11803150D02*
X4124824Y-11812674D01*
X4124824Y-11812674D02*
X4134348Y-11831722D01*
X4134348Y-11831722D02*
X4134348Y-11936484D01*
X4229586Y-11936484D02*
X4229586Y-11803150D01*
X4229586Y-11822198D02*
X4239110Y-11812674D01*
X4239110Y-11812674D02*
X4258158Y-11803150D01*
X4258158Y-11803150D02*
X4286729Y-11803150D01*
X4286729Y-11803150D02*
X4305777Y-11812674D01*
X4305777Y-11812674D02*
X4315301Y-11831722D01*
X4315301Y-11831722D02*
X4315301Y-11936484D01*
X4315301Y-11831722D02*
X4324825Y-11812674D01*
X4324825Y-11812674D02*
X4343872Y-11803150D01*
X4343872Y-11803150D02*
X4372444Y-11803150D01*
X4372444Y-11803150D02*
X4391491Y-11812674D01*
X4391491Y-11812674D02*
X4401015Y-11831722D01*
X4401015Y-11831722D02*
X4401015Y-11936484D01*
X4791491Y-11726960D02*
X4620063Y-11984103D01*
X5048634Y-11736484D02*
X5067682Y-11736484D01*
X5067682Y-11736484D02*
X5086729Y-11746008D01*
X5086729Y-11746008D02*
X5096253Y-11755531D01*
X5096253Y-11755531D02*
X5105777Y-11774579D01*
X5105777Y-11774579D02*
X5115301Y-11812674D01*
X5115301Y-11812674D02*
X5115301Y-11860293D01*
X5115301Y-11860293D02*
X5105777Y-11898388D01*
X5105777Y-11898388D02*
X5096253Y-11917436D01*
X5096253Y-11917436D02*
X5086729Y-11926960D01*
X5086729Y-11926960D02*
X5067682Y-11936484D01*
X5067682Y-11936484D02*
X5048634Y-11936484D01*
X5048634Y-11936484D02*
X5029587Y-11926960D01*
X5029587Y-11926960D02*
X5020063Y-11917436D01*
X5020063Y-11917436D02*
X5010539Y-11898388D01*
X5010539Y-11898388D02*
X5001015Y-11860293D01*
X5001015Y-11860293D02*
X5001015Y-11812674D01*
X5001015Y-11812674D02*
X5010539Y-11774579D01*
X5010539Y-11774579D02*
X5020063Y-11755531D01*
X5020063Y-11755531D02*
X5029587Y-11746008D01*
X5029587Y-11746008D02*
X5048634Y-11736484D01*
X5201015Y-11917436D02*
X5210539Y-11926960D01*
X5210539Y-11926960D02*
X5201015Y-11936484D01*
X5201015Y-11936484D02*
X5191491Y-11926960D01*
X5191491Y-11926960D02*
X5201015Y-11917436D01*
X5201015Y-11917436D02*
X5201015Y-11936484D01*
X5334348Y-11736484D02*
X5353396Y-11736484D01*
X5353396Y-11736484D02*
X5372444Y-11746008D01*
X5372444Y-11746008D02*
X5381968Y-11755531D01*
X5381968Y-11755531D02*
X5391491Y-11774579D01*
X5391491Y-11774579D02*
X5401015Y-11812674D01*
X5401015Y-11812674D02*
X5401015Y-11860293D01*
X5401015Y-11860293D02*
X5391491Y-11898388D01*
X5391491Y-11898388D02*
X5381968Y-11917436D01*
X5381968Y-11917436D02*
X5372444Y-11926960D01*
X5372444Y-11926960D02*
X5353396Y-11936484D01*
X5353396Y-11936484D02*
X5334348Y-11936484D01*
X5334348Y-11936484D02*
X5315301Y-11926960D01*
X5315301Y-11926960D02*
X5305777Y-11917436D01*
X5305777Y-11917436D02*
X5296253Y-11898388D01*
X5296253Y-11898388D02*
X5286729Y-11860293D01*
X5286729Y-11860293D02*
X5286729Y-11812674D01*
X5286729Y-11812674D02*
X5296253Y-11774579D01*
X5296253Y-11774579D02*
X5305777Y-11755531D01*
X5305777Y-11755531D02*
X5315301Y-11746008D01*
X5315301Y-11746008D02*
X5334348Y-11736484D01*
X5591491Y-11936484D02*
X5477206Y-11936484D01*
X5534348Y-11936484D02*
X5534348Y-11736484D01*
X5534348Y-11736484D02*
X5515301Y-11765055D01*
X5515301Y-11765055D02*
X5496253Y-11784103D01*
X5496253Y-11784103D02*
X5477206Y-11793627D01*
X5772444Y-11736484D02*
X5677206Y-11736484D01*
X5677206Y-11736484D02*
X5667682Y-11831722D01*
X5667682Y-11831722D02*
X5677206Y-11822198D01*
X5677206Y-11822198D02*
X5696253Y-11812674D01*
X5696253Y-11812674D02*
X5743872Y-11812674D01*
X5743872Y-11812674D02*
X5762920Y-11822198D01*
X5762920Y-11822198D02*
X5772444Y-11831722D01*
X5772444Y-11831722D02*
X5781967Y-11850769D01*
X5781967Y-11850769D02*
X5781967Y-11898388D01*
X5781967Y-11898388D02*
X5772444Y-11917436D01*
X5772444Y-11917436D02*
X5762920Y-11926960D01*
X5762920Y-11926960D02*
X5743872Y-11936484D01*
X5743872Y-11936484D02*
X5696253Y-11936484D01*
X5696253Y-11936484D02*
X5677206Y-11926960D01*
X5677206Y-11926960D02*
X5667682Y-11917436D01*
X5848634Y-11736484D02*
X5981967Y-11736484D01*
X5981967Y-11736484D02*
X5896253Y-11936484D01*
X6048634Y-11736484D02*
X6048634Y-11774579D01*
X6124825Y-11736484D02*
X6124825Y-11774579D01*
X6420063Y-12012674D02*
X6410539Y-12003150D01*
X6410539Y-12003150D02*
X6391491Y-11974579D01*
X6391491Y-11974579D02*
X6381968Y-11955531D01*
X6381968Y-11955531D02*
X6372444Y-11926960D01*
X6372444Y-11926960D02*
X6362920Y-11879341D01*
X6362920Y-11879341D02*
X6362920Y-11841246D01*
X6362920Y-11841246D02*
X6372444Y-11793627D01*
X6372444Y-11793627D02*
X6381968Y-11765055D01*
X6381968Y-11765055D02*
X6391491Y-11746008D01*
X6391491Y-11746008D02*
X6410539Y-11717436D01*
X6410539Y-11717436D02*
X6420063Y-11707912D01*
X6581968Y-11803150D02*
X6581968Y-11936484D01*
X6534348Y-11726960D02*
X6486729Y-11869817D01*
X6486729Y-11869817D02*
X6610539Y-11869817D01*
X6839110Y-11936484D02*
X6839110Y-11736484D01*
X6924825Y-11936484D02*
X6924825Y-11831722D01*
X6924825Y-11831722D02*
X6915301Y-11812674D01*
X6915301Y-11812674D02*
X6896253Y-11803150D01*
X6896253Y-11803150D02*
X6867682Y-11803150D01*
X6867682Y-11803150D02*
X6848634Y-11812674D01*
X6848634Y-11812674D02*
X6839110Y-11822198D01*
X7048634Y-11936484D02*
X7029587Y-11926960D01*
X7029587Y-11926960D02*
X7020063Y-11917436D01*
X7020063Y-11917436D02*
X7010539Y-11898388D01*
X7010539Y-11898388D02*
X7010539Y-11841246D01*
X7010539Y-11841246D02*
X7020063Y-11822198D01*
X7020063Y-11822198D02*
X7029587Y-11812674D01*
X7029587Y-11812674D02*
X7048634Y-11803150D01*
X7048634Y-11803150D02*
X7077206Y-11803150D01*
X7077206Y-11803150D02*
X7096253Y-11812674D01*
X7096253Y-11812674D02*
X7105777Y-11822198D01*
X7105777Y-11822198D02*
X7115301Y-11841246D01*
X7115301Y-11841246D02*
X7115301Y-11898388D01*
X7115301Y-11898388D02*
X7105777Y-11917436D01*
X7105777Y-11917436D02*
X7096253Y-11926960D01*
X7096253Y-11926960D02*
X7077206Y-11936484D01*
X7077206Y-11936484D02*
X7048634Y-11936484D01*
X7229587Y-11936484D02*
X7210539Y-11926960D01*
X7210539Y-11926960D02*
X7201015Y-11907912D01*
X7201015Y-11907912D02*
X7201015Y-11736484D01*
X7381968Y-11926960D02*
X7362920Y-11936484D01*
X7362920Y-11936484D02*
X7324825Y-11936484D01*
X7324825Y-11936484D02*
X7305777Y-11926960D01*
X7305777Y-11926960D02*
X7296253Y-11907912D01*
X7296253Y-11907912D02*
X7296253Y-11831722D01*
X7296253Y-11831722D02*
X7305777Y-11812674D01*
X7305777Y-11812674D02*
X7324825Y-11803150D01*
X7324825Y-11803150D02*
X7362920Y-11803150D01*
X7362920Y-11803150D02*
X7381968Y-11812674D01*
X7381968Y-11812674D02*
X7391491Y-11831722D01*
X7391491Y-11831722D02*
X7391491Y-11850769D01*
X7391491Y-11850769D02*
X7296253Y-11869817D01*
X7467682Y-11926960D02*
X7486730Y-11936484D01*
X7486730Y-11936484D02*
X7524825Y-11936484D01*
X7524825Y-11936484D02*
X7543872Y-11926960D01*
X7543872Y-11926960D02*
X7553396Y-11907912D01*
X7553396Y-11907912D02*
X7553396Y-11898388D01*
X7553396Y-11898388D02*
X7543872Y-11879341D01*
X7543872Y-11879341D02*
X7524825Y-11869817D01*
X7524825Y-11869817D02*
X7496253Y-11869817D01*
X7496253Y-11869817D02*
X7477206Y-11860293D01*
X7477206Y-11860293D02*
X7467682Y-11841246D01*
X7467682Y-11841246D02*
X7467682Y-11831722D01*
X7467682Y-11831722D02*
X7477206Y-11812674D01*
X7477206Y-11812674D02*
X7496253Y-11803150D01*
X7496253Y-11803150D02*
X7524825Y-11803150D01*
X7524825Y-11803150D02*
X7543872Y-11812674D01*
X7620063Y-12012674D02*
X7629587Y-12003150D01*
X7629587Y-12003150D02*
X7648634Y-11974579D01*
X7648634Y-11974579D02*
X7658158Y-11955531D01*
X7658158Y-11955531D02*
X7667682Y-11926960D01*
X7667682Y-11926960D02*
X7677206Y-11879341D01*
X7677206Y-11879341D02*
X7677206Y-11841246D01*
X7677206Y-11841246D02*
X7667682Y-11793627D01*
X7667682Y-11793627D02*
X7658158Y-11765055D01*
X7658158Y-11765055D02*
X7648634Y-11746008D01*
X7648634Y-11746008D02*
X7629587Y-11717436D01*
X7629587Y-11717436D02*
X7620063Y-11707912D01*
D13*
X2845000Y-12109000D02*
G75*
G03*
X2845000Y-12109000I-20320J0D01*
G01*
D11*
X3143872Y-12000484D02*
X3162920Y-12000484D01*
X3162920Y-12000484D02*
X3181967Y-12010008D01*
X3181967Y-12010008D02*
X3191491Y-12019531D01*
X3191491Y-12019531D02*
X3201015Y-12038579D01*
X3201015Y-12038579D02*
X3210539Y-12076674D01*
X3210539Y-12076674D02*
X3210539Y-12124293D01*
X3210539Y-12124293D02*
X3201015Y-12162388D01*
X3201015Y-12162388D02*
X3191491Y-12181436D01*
X3191491Y-12181436D02*
X3181967Y-12190960D01*
X3181967Y-12190960D02*
X3162920Y-12200484D01*
X3162920Y-12200484D02*
X3143872Y-12200484D01*
X3143872Y-12200484D02*
X3124824Y-12190960D01*
X3124824Y-12190960D02*
X3115301Y-12181436D01*
X3115301Y-12181436D02*
X3105777Y-12162388D01*
X3105777Y-12162388D02*
X3096253Y-12124293D01*
X3096253Y-12124293D02*
X3096253Y-12076674D01*
X3096253Y-12076674D02*
X3105777Y-12038579D01*
X3105777Y-12038579D02*
X3115301Y-12019531D01*
X3115301Y-12019531D02*
X3124824Y-12010008D01*
X3124824Y-12010008D02*
X3143872Y-12000484D01*
X3296253Y-12181436D02*
X3305777Y-12190960D01*
X3305777Y-12190960D02*
X3296253Y-12200484D01*
X3296253Y-12200484D02*
X3286729Y-12190960D01*
X3286729Y-12190960D02*
X3296253Y-12181436D01*
X3296253Y-12181436D02*
X3296253Y-12200484D01*
X3477205Y-12067150D02*
X3477205Y-12200484D01*
X3429586Y-11990960D02*
X3381967Y-12133817D01*
X3381967Y-12133817D02*
X3505777Y-12133817D01*
X3620062Y-12000484D02*
X3639110Y-12000484D01*
X3639110Y-12000484D02*
X3658158Y-12010008D01*
X3658158Y-12010008D02*
X3667682Y-12019531D01*
X3667682Y-12019531D02*
X3677205Y-12038579D01*
X3677205Y-12038579D02*
X3686729Y-12076674D01*
X3686729Y-12076674D02*
X3686729Y-12124293D01*
X3686729Y-12124293D02*
X3677205Y-12162388D01*
X3677205Y-12162388D02*
X3667682Y-12181436D01*
X3667682Y-12181436D02*
X3658158Y-12190960D01*
X3658158Y-12190960D02*
X3639110Y-12200484D01*
X3639110Y-12200484D02*
X3620062Y-12200484D01*
X3620062Y-12200484D02*
X3601015Y-12190960D01*
X3601015Y-12190960D02*
X3591491Y-12181436D01*
X3591491Y-12181436D02*
X3581967Y-12162388D01*
X3581967Y-12162388D02*
X3572443Y-12124293D01*
X3572443Y-12124293D02*
X3572443Y-12076674D01*
X3572443Y-12076674D02*
X3581967Y-12038579D01*
X3581967Y-12038579D02*
X3591491Y-12019531D01*
X3591491Y-12019531D02*
X3601015Y-12010008D01*
X3601015Y-12010008D02*
X3620062Y-12000484D01*
X3858158Y-12000484D02*
X3820062Y-12000484D01*
X3820062Y-12000484D02*
X3801015Y-12010008D01*
X3801015Y-12010008D02*
X3791491Y-12019531D01*
X3791491Y-12019531D02*
X3772443Y-12048103D01*
X3772443Y-12048103D02*
X3762920Y-12086198D01*
X3762920Y-12086198D02*
X3762920Y-12162388D01*
X3762920Y-12162388D02*
X3772443Y-12181436D01*
X3772443Y-12181436D02*
X3781967Y-12190960D01*
X3781967Y-12190960D02*
X3801015Y-12200484D01*
X3801015Y-12200484D02*
X3839110Y-12200484D01*
X3839110Y-12200484D02*
X3858158Y-12190960D01*
X3858158Y-12190960D02*
X3867682Y-12181436D01*
X3867682Y-12181436D02*
X3877205Y-12162388D01*
X3877205Y-12162388D02*
X3877205Y-12114769D01*
X3877205Y-12114769D02*
X3867682Y-12095722D01*
X3867682Y-12095722D02*
X3858158Y-12086198D01*
X3858158Y-12086198D02*
X3839110Y-12076674D01*
X3839110Y-12076674D02*
X3801015Y-12076674D01*
X3801015Y-12076674D02*
X3781967Y-12086198D01*
X3781967Y-12086198D02*
X3772443Y-12095722D01*
X3772443Y-12095722D02*
X3762920Y-12114769D01*
X3962920Y-12200484D02*
X3962920Y-12067150D01*
X3962920Y-12086198D02*
X3972443Y-12076674D01*
X3972443Y-12076674D02*
X3991491Y-12067150D01*
X3991491Y-12067150D02*
X4020063Y-12067150D01*
X4020063Y-12067150D02*
X4039110Y-12076674D01*
X4039110Y-12076674D02*
X4048634Y-12095722D01*
X4048634Y-12095722D02*
X4048634Y-12200484D01*
X4048634Y-12095722D02*
X4058158Y-12076674D01*
X4058158Y-12076674D02*
X4077205Y-12067150D01*
X4077205Y-12067150D02*
X4105777Y-12067150D01*
X4105777Y-12067150D02*
X4124824Y-12076674D01*
X4124824Y-12076674D02*
X4134348Y-12095722D01*
X4134348Y-12095722D02*
X4134348Y-12200484D01*
X4229586Y-12200484D02*
X4229586Y-12067150D01*
X4229586Y-12086198D02*
X4239110Y-12076674D01*
X4239110Y-12076674D02*
X4258158Y-12067150D01*
X4258158Y-12067150D02*
X4286729Y-12067150D01*
X4286729Y-12067150D02*
X4305777Y-12076674D01*
X4305777Y-12076674D02*
X4315301Y-12095722D01*
X4315301Y-12095722D02*
X4315301Y-12200484D01*
X4315301Y-12095722D02*
X4324825Y-12076674D01*
X4324825Y-12076674D02*
X4343872Y-12067150D01*
X4343872Y-12067150D02*
X4372444Y-12067150D01*
X4372444Y-12067150D02*
X4391491Y-12076674D01*
X4391491Y-12076674D02*
X4401015Y-12095722D01*
X4401015Y-12095722D02*
X4401015Y-12200484D01*
X4791491Y-11990960D02*
X4620063Y-12248103D01*
X5048634Y-12000484D02*
X5067682Y-12000484D01*
X5067682Y-12000484D02*
X5086729Y-12010008D01*
X5086729Y-12010008D02*
X5096253Y-12019531D01*
X5096253Y-12019531D02*
X5105777Y-12038579D01*
X5105777Y-12038579D02*
X5115301Y-12076674D01*
X5115301Y-12076674D02*
X5115301Y-12124293D01*
X5115301Y-12124293D02*
X5105777Y-12162388D01*
X5105777Y-12162388D02*
X5096253Y-12181436D01*
X5096253Y-12181436D02*
X5086729Y-12190960D01*
X5086729Y-12190960D02*
X5067682Y-12200484D01*
X5067682Y-12200484D02*
X5048634Y-12200484D01*
X5048634Y-12200484D02*
X5029587Y-12190960D01*
X5029587Y-12190960D02*
X5020063Y-12181436D01*
X5020063Y-12181436D02*
X5010539Y-12162388D01*
X5010539Y-12162388D02*
X5001015Y-12124293D01*
X5001015Y-12124293D02*
X5001015Y-12076674D01*
X5001015Y-12076674D02*
X5010539Y-12038579D01*
X5010539Y-12038579D02*
X5020063Y-12019531D01*
X5020063Y-12019531D02*
X5029587Y-12010008D01*
X5029587Y-12010008D02*
X5048634Y-12000484D01*
X5201015Y-12181436D02*
X5210539Y-12190960D01*
X5210539Y-12190960D02*
X5201015Y-12200484D01*
X5201015Y-12200484D02*
X5191491Y-12190960D01*
X5191491Y-12190960D02*
X5201015Y-12181436D01*
X5201015Y-12181436D02*
X5201015Y-12200484D01*
X5334348Y-12000484D02*
X5353396Y-12000484D01*
X5353396Y-12000484D02*
X5372444Y-12010008D01*
X5372444Y-12010008D02*
X5381968Y-12019531D01*
X5381968Y-12019531D02*
X5391491Y-12038579D01*
X5391491Y-12038579D02*
X5401015Y-12076674D01*
X5401015Y-12076674D02*
X5401015Y-12124293D01*
X5401015Y-12124293D02*
X5391491Y-12162388D01*
X5391491Y-12162388D02*
X5381968Y-12181436D01*
X5381968Y-12181436D02*
X5372444Y-12190960D01*
X5372444Y-12190960D02*
X5353396Y-12200484D01*
X5353396Y-12200484D02*
X5334348Y-12200484D01*
X5334348Y-12200484D02*
X5315301Y-12190960D01*
X5315301Y-12190960D02*
X5305777Y-12181436D01*
X5305777Y-12181436D02*
X5296253Y-12162388D01*
X5296253Y-12162388D02*
X5286729Y-12124293D01*
X5286729Y-12124293D02*
X5286729Y-12076674D01*
X5286729Y-12076674D02*
X5296253Y-12038579D01*
X5296253Y-12038579D02*
X5305777Y-12019531D01*
X5305777Y-12019531D02*
X5315301Y-12010008D01*
X5315301Y-12010008D02*
X5334348Y-12000484D01*
X5591491Y-12200484D02*
X5477206Y-12200484D01*
X5534348Y-12200484D02*
X5534348Y-12000484D01*
X5534348Y-12000484D02*
X5515301Y-12029055D01*
X5515301Y-12029055D02*
X5496253Y-12048103D01*
X5496253Y-12048103D02*
X5477206Y-12057627D01*
X5762920Y-12000484D02*
X5724825Y-12000484D01*
X5724825Y-12000484D02*
X5705777Y-12010008D01*
X5705777Y-12010008D02*
X5696253Y-12019531D01*
X5696253Y-12019531D02*
X5677206Y-12048103D01*
X5677206Y-12048103D02*
X5667682Y-12086198D01*
X5667682Y-12086198D02*
X5667682Y-12162388D01*
X5667682Y-12162388D02*
X5677206Y-12181436D01*
X5677206Y-12181436D02*
X5686729Y-12190960D01*
X5686729Y-12190960D02*
X5705777Y-12200484D01*
X5705777Y-12200484D02*
X5743872Y-12200484D01*
X5743872Y-12200484D02*
X5762920Y-12190960D01*
X5762920Y-12190960D02*
X5772444Y-12181436D01*
X5772444Y-12181436D02*
X5781967Y-12162388D01*
X5781967Y-12162388D02*
X5781967Y-12114769D01*
X5781967Y-12114769D02*
X5772444Y-12095722D01*
X5772444Y-12095722D02*
X5762920Y-12086198D01*
X5762920Y-12086198D02*
X5743872Y-12076674D01*
X5743872Y-12076674D02*
X5705777Y-12076674D01*
X5705777Y-12076674D02*
X5686729Y-12086198D01*
X5686729Y-12086198D02*
X5677206Y-12095722D01*
X5677206Y-12095722D02*
X5667682Y-12114769D01*
X5905777Y-12000484D02*
X5924825Y-12000484D01*
X5924825Y-12000484D02*
X5943872Y-12010008D01*
X5943872Y-12010008D02*
X5953396Y-12019531D01*
X5953396Y-12019531D02*
X5962920Y-12038579D01*
X5962920Y-12038579D02*
X5972444Y-12076674D01*
X5972444Y-12076674D02*
X5972444Y-12124293D01*
X5972444Y-12124293D02*
X5962920Y-12162388D01*
X5962920Y-12162388D02*
X5953396Y-12181436D01*
X5953396Y-12181436D02*
X5943872Y-12190960D01*
X5943872Y-12190960D02*
X5924825Y-12200484D01*
X5924825Y-12200484D02*
X5905777Y-12200484D01*
X5905777Y-12200484D02*
X5886729Y-12190960D01*
X5886729Y-12190960D02*
X5877206Y-12181436D01*
X5877206Y-12181436D02*
X5867682Y-12162388D01*
X5867682Y-12162388D02*
X5858158Y-12124293D01*
X5858158Y-12124293D02*
X5858158Y-12076674D01*
X5858158Y-12076674D02*
X5867682Y-12038579D01*
X5867682Y-12038579D02*
X5877206Y-12019531D01*
X5877206Y-12019531D02*
X5886729Y-12010008D01*
X5886729Y-12010008D02*
X5905777Y-12000484D01*
X6048634Y-12000484D02*
X6048634Y-12038579D01*
X6124825Y-12000484D02*
X6124825Y-12038579D01*
X6420063Y-12276674D02*
X6410539Y-12267150D01*
X6410539Y-12267150D02*
X6391491Y-12238579D01*
X6391491Y-12238579D02*
X6381968Y-12219531D01*
X6381968Y-12219531D02*
X6372444Y-12190960D01*
X6372444Y-12190960D02*
X6362920Y-12143341D01*
X6362920Y-12143341D02*
X6362920Y-12105246D01*
X6362920Y-12105246D02*
X6372444Y-12057627D01*
X6372444Y-12057627D02*
X6381968Y-12029055D01*
X6381968Y-12029055D02*
X6391491Y-12010008D01*
X6391491Y-12010008D02*
X6410539Y-11981436D01*
X6410539Y-11981436D02*
X6420063Y-11971912D01*
X6601015Y-12200484D02*
X6486729Y-12200484D01*
X6543872Y-12200484D02*
X6543872Y-12000484D01*
X6543872Y-12000484D02*
X6524825Y-12029055D01*
X6524825Y-12029055D02*
X6505777Y-12048103D01*
X6505777Y-12048103D02*
X6486729Y-12057627D01*
X6781968Y-12000484D02*
X6686729Y-12000484D01*
X6686729Y-12000484D02*
X6677206Y-12095722D01*
X6677206Y-12095722D02*
X6686729Y-12086198D01*
X6686729Y-12086198D02*
X6705777Y-12076674D01*
X6705777Y-12076674D02*
X6753396Y-12076674D01*
X6753396Y-12076674D02*
X6772444Y-12086198D01*
X6772444Y-12086198D02*
X6781968Y-12095722D01*
X6781968Y-12095722D02*
X6791491Y-12114769D01*
X6791491Y-12114769D02*
X6791491Y-12162388D01*
X6791491Y-12162388D02*
X6781968Y-12181436D01*
X6781968Y-12181436D02*
X6772444Y-12190960D01*
X6772444Y-12190960D02*
X6753396Y-12200484D01*
X6753396Y-12200484D02*
X6705777Y-12200484D01*
X6705777Y-12200484D02*
X6686729Y-12190960D01*
X6686729Y-12190960D02*
X6677206Y-12181436D01*
X6886729Y-12200484D02*
X6924825Y-12200484D01*
X6924825Y-12200484D02*
X6943872Y-12190960D01*
X6943872Y-12190960D02*
X6953396Y-12181436D01*
X6953396Y-12181436D02*
X6972444Y-12152865D01*
X6972444Y-12152865D02*
X6981968Y-12114769D01*
X6981968Y-12114769D02*
X6981968Y-12038579D01*
X6981968Y-12038579D02*
X6972444Y-12019531D01*
X6972444Y-12019531D02*
X6962920Y-12010008D01*
X6962920Y-12010008D02*
X6943872Y-12000484D01*
X6943872Y-12000484D02*
X6905777Y-12000484D01*
X6905777Y-12000484D02*
X6886729Y-12010008D01*
X6886729Y-12010008D02*
X6877206Y-12019531D01*
X6877206Y-12019531D02*
X6867682Y-12038579D01*
X6867682Y-12038579D02*
X6867682Y-12086198D01*
X6867682Y-12086198D02*
X6877206Y-12105246D01*
X6877206Y-12105246D02*
X6886729Y-12114769D01*
X6886729Y-12114769D02*
X6905777Y-12124293D01*
X6905777Y-12124293D02*
X6943872Y-12124293D01*
X6943872Y-12124293D02*
X6962920Y-12114769D01*
X6962920Y-12114769D02*
X6972444Y-12105246D01*
X6972444Y-12105246D02*
X6981968Y-12086198D01*
X7220063Y-12200484D02*
X7220063Y-12000484D01*
X7305777Y-12200484D02*
X7305777Y-12095722D01*
X7305777Y-12095722D02*
X7296253Y-12076674D01*
X7296253Y-12076674D02*
X7277206Y-12067150D01*
X7277206Y-12067150D02*
X7248634Y-12067150D01*
X7248634Y-12067150D02*
X7229587Y-12076674D01*
X7229587Y-12076674D02*
X7220063Y-12086198D01*
X7429587Y-12200484D02*
X7410539Y-12190960D01*
X7410539Y-12190960D02*
X7401015Y-12181436D01*
X7401015Y-12181436D02*
X7391491Y-12162388D01*
X7391491Y-12162388D02*
X7391491Y-12105246D01*
X7391491Y-12105246D02*
X7401015Y-12086198D01*
X7401015Y-12086198D02*
X7410539Y-12076674D01*
X7410539Y-12076674D02*
X7429587Y-12067150D01*
X7429587Y-12067150D02*
X7458158Y-12067150D01*
X7458158Y-12067150D02*
X7477206Y-12076674D01*
X7477206Y-12076674D02*
X7486730Y-12086198D01*
X7486730Y-12086198D02*
X7496253Y-12105246D01*
X7496253Y-12105246D02*
X7496253Y-12162388D01*
X7496253Y-12162388D02*
X7486730Y-12181436D01*
X7486730Y-12181436D02*
X7477206Y-12190960D01*
X7477206Y-12190960D02*
X7458158Y-12200484D01*
X7458158Y-12200484D02*
X7429587Y-12200484D01*
X7610539Y-12200484D02*
X7591491Y-12190960D01*
X7591491Y-12190960D02*
X7581968Y-12171912D01*
X7581968Y-12171912D02*
X7581968Y-12000484D01*
X7762920Y-12190960D02*
X7743872Y-12200484D01*
X7743872Y-12200484D02*
X7705777Y-12200484D01*
X7705777Y-12200484D02*
X7686730Y-12190960D01*
X7686730Y-12190960D02*
X7677206Y-12171912D01*
X7677206Y-12171912D02*
X7677206Y-12095722D01*
X7677206Y-12095722D02*
X7686730Y-12076674D01*
X7686730Y-12076674D02*
X7705777Y-12067150D01*
X7705777Y-12067150D02*
X7743872Y-12067150D01*
X7743872Y-12067150D02*
X7762920Y-12076674D01*
X7762920Y-12076674D02*
X7772444Y-12095722D01*
X7772444Y-12095722D02*
X7772444Y-12114769D01*
X7772444Y-12114769D02*
X7677206Y-12133817D01*
X7848634Y-12190960D02*
X7867682Y-12200484D01*
X7867682Y-12200484D02*
X7905777Y-12200484D01*
X7905777Y-12200484D02*
X7924825Y-12190960D01*
X7924825Y-12190960D02*
X7934349Y-12171912D01*
X7934349Y-12171912D02*
X7934349Y-12162388D01*
X7934349Y-12162388D02*
X7924825Y-12143341D01*
X7924825Y-12143341D02*
X7905777Y-12133817D01*
X7905777Y-12133817D02*
X7877206Y-12133817D01*
X7877206Y-12133817D02*
X7858158Y-12124293D01*
X7858158Y-12124293D02*
X7848634Y-12105246D01*
X7848634Y-12105246D02*
X7848634Y-12095722D01*
X7848634Y-12095722D02*
X7858158Y-12076674D01*
X7858158Y-12076674D02*
X7877206Y-12067150D01*
X7877206Y-12067150D02*
X7905777Y-12067150D01*
X7905777Y-12067150D02*
X7924825Y-12076674D01*
X8001015Y-12276674D02*
X8010539Y-12267150D01*
X8010539Y-12267150D02*
X8029587Y-12238579D01*
X8029587Y-12238579D02*
X8039111Y-12219531D01*
X8039111Y-12219531D02*
X8048634Y-12190960D01*
X8048634Y-12190960D02*
X8058158Y-12143341D01*
X8058158Y-12143341D02*
X8058158Y-12105246D01*
X8058158Y-12105246D02*
X8048634Y-12057627D01*
X8048634Y-12057627D02*
X8039111Y-12029055D01*
X8039111Y-12029055D02*
X8029587Y-12010008D01*
X8029587Y-12010008D02*
X8010539Y-11981436D01*
X8010539Y-11981436D02*
X8001015Y-11971912D01*
D14*
X2822500Y-12350500D02*
X2822500Y-12395500D01*
X2800000Y-12373000D02*
X2845000Y-12373000D01*
D11*
X3143872Y-12264484D02*
X3162920Y-12264484D01*
X3162920Y-12264484D02*
X3181967Y-12274008D01*
X3181967Y-12274008D02*
X3191491Y-12283531D01*
X3191491Y-12283531D02*
X3201015Y-12302579D01*
X3201015Y-12302579D02*
X3210539Y-12340674D01*
X3210539Y-12340674D02*
X3210539Y-12388293D01*
X3210539Y-12388293D02*
X3201015Y-12426388D01*
X3201015Y-12426388D02*
X3191491Y-12445436D01*
X3191491Y-12445436D02*
X3181967Y-12454960D01*
X3181967Y-12454960D02*
X3162920Y-12464484D01*
X3162920Y-12464484D02*
X3143872Y-12464484D01*
X3143872Y-12464484D02*
X3124824Y-12454960D01*
X3124824Y-12454960D02*
X3115301Y-12445436D01*
X3115301Y-12445436D02*
X3105777Y-12426388D01*
X3105777Y-12426388D02*
X3096253Y-12388293D01*
X3096253Y-12388293D02*
X3096253Y-12340674D01*
X3096253Y-12340674D02*
X3105777Y-12302579D01*
X3105777Y-12302579D02*
X3115301Y-12283531D01*
X3115301Y-12283531D02*
X3124824Y-12274008D01*
X3124824Y-12274008D02*
X3143872Y-12264484D01*
X3296253Y-12445436D02*
X3305777Y-12454960D01*
X3305777Y-12454960D02*
X3296253Y-12464484D01*
X3296253Y-12464484D02*
X3286729Y-12454960D01*
X3286729Y-12454960D02*
X3296253Y-12445436D01*
X3296253Y-12445436D02*
X3296253Y-12464484D01*
X3477205Y-12331150D02*
X3477205Y-12464484D01*
X3429586Y-12254960D02*
X3381967Y-12397817D01*
X3381967Y-12397817D02*
X3505777Y-12397817D01*
X3677205Y-12264484D02*
X3581967Y-12264484D01*
X3581967Y-12264484D02*
X3572443Y-12359722D01*
X3572443Y-12359722D02*
X3581967Y-12350198D01*
X3581967Y-12350198D02*
X3601015Y-12340674D01*
X3601015Y-12340674D02*
X3648634Y-12340674D01*
X3648634Y-12340674D02*
X3667682Y-12350198D01*
X3667682Y-12350198D02*
X3677205Y-12359722D01*
X3677205Y-12359722D02*
X3686729Y-12378769D01*
X3686729Y-12378769D02*
X3686729Y-12426388D01*
X3686729Y-12426388D02*
X3677205Y-12445436D01*
X3677205Y-12445436D02*
X3667682Y-12454960D01*
X3667682Y-12454960D02*
X3648634Y-12464484D01*
X3648634Y-12464484D02*
X3601015Y-12464484D01*
X3601015Y-12464484D02*
X3581967Y-12454960D01*
X3581967Y-12454960D02*
X3572443Y-12445436D01*
X3810539Y-12264484D02*
X3829586Y-12264484D01*
X3829586Y-12264484D02*
X3848634Y-12274008D01*
X3848634Y-12274008D02*
X3858158Y-12283531D01*
X3858158Y-12283531D02*
X3867682Y-12302579D01*
X3867682Y-12302579D02*
X3877205Y-12340674D01*
X3877205Y-12340674D02*
X3877205Y-12388293D01*
X3877205Y-12388293D02*
X3867682Y-12426388D01*
X3867682Y-12426388D02*
X3858158Y-12445436D01*
X3858158Y-12445436D02*
X3848634Y-12454960D01*
X3848634Y-12454960D02*
X3829586Y-12464484D01*
X3829586Y-12464484D02*
X3810539Y-12464484D01*
X3810539Y-12464484D02*
X3791491Y-12454960D01*
X3791491Y-12454960D02*
X3781967Y-12445436D01*
X3781967Y-12445436D02*
X3772443Y-12426388D01*
X3772443Y-12426388D02*
X3762920Y-12388293D01*
X3762920Y-12388293D02*
X3762920Y-12340674D01*
X3762920Y-12340674D02*
X3772443Y-12302579D01*
X3772443Y-12302579D02*
X3781967Y-12283531D01*
X3781967Y-12283531D02*
X3791491Y-12274008D01*
X3791491Y-12274008D02*
X3810539Y-12264484D01*
X3962920Y-12464484D02*
X3962920Y-12331150D01*
X3962920Y-12350198D02*
X3972443Y-12340674D01*
X3972443Y-12340674D02*
X3991491Y-12331150D01*
X3991491Y-12331150D02*
X4020063Y-12331150D01*
X4020063Y-12331150D02*
X4039110Y-12340674D01*
X4039110Y-12340674D02*
X4048634Y-12359722D01*
X4048634Y-12359722D02*
X4048634Y-12464484D01*
X4048634Y-12359722D02*
X4058158Y-12340674D01*
X4058158Y-12340674D02*
X4077205Y-12331150D01*
X4077205Y-12331150D02*
X4105777Y-12331150D01*
X4105777Y-12331150D02*
X4124824Y-12340674D01*
X4124824Y-12340674D02*
X4134348Y-12359722D01*
X4134348Y-12359722D02*
X4134348Y-12464484D01*
X4229586Y-12464484D02*
X4229586Y-12331150D01*
X4229586Y-12350198D02*
X4239110Y-12340674D01*
X4239110Y-12340674D02*
X4258158Y-12331150D01*
X4258158Y-12331150D02*
X4286729Y-12331150D01*
X4286729Y-12331150D02*
X4305777Y-12340674D01*
X4305777Y-12340674D02*
X4315301Y-12359722D01*
X4315301Y-12359722D02*
X4315301Y-12464484D01*
X4315301Y-12359722D02*
X4324825Y-12340674D01*
X4324825Y-12340674D02*
X4343872Y-12331150D01*
X4343872Y-12331150D02*
X4372444Y-12331150D01*
X4372444Y-12331150D02*
X4391491Y-12340674D01*
X4391491Y-12340674D02*
X4401015Y-12359722D01*
X4401015Y-12359722D02*
X4401015Y-12464484D01*
X4791491Y-12254960D02*
X4620063Y-12512103D01*
X5048634Y-12264484D02*
X5067682Y-12264484D01*
X5067682Y-12264484D02*
X5086729Y-12274008D01*
X5086729Y-12274008D02*
X5096253Y-12283531D01*
X5096253Y-12283531D02*
X5105777Y-12302579D01*
X5105777Y-12302579D02*
X5115301Y-12340674D01*
X5115301Y-12340674D02*
X5115301Y-12388293D01*
X5115301Y-12388293D02*
X5105777Y-12426388D01*
X5105777Y-12426388D02*
X5096253Y-12445436D01*
X5096253Y-12445436D02*
X5086729Y-12454960D01*
X5086729Y-12454960D02*
X5067682Y-12464484D01*
X5067682Y-12464484D02*
X5048634Y-12464484D01*
X5048634Y-12464484D02*
X5029587Y-12454960D01*
X5029587Y-12454960D02*
X5020063Y-12445436D01*
X5020063Y-12445436D02*
X5010539Y-12426388D01*
X5010539Y-12426388D02*
X5001015Y-12388293D01*
X5001015Y-12388293D02*
X5001015Y-12340674D01*
X5001015Y-12340674D02*
X5010539Y-12302579D01*
X5010539Y-12302579D02*
X5020063Y-12283531D01*
X5020063Y-12283531D02*
X5029587Y-12274008D01*
X5029587Y-12274008D02*
X5048634Y-12264484D01*
X5201015Y-12445436D02*
X5210539Y-12454960D01*
X5210539Y-12454960D02*
X5201015Y-12464484D01*
X5201015Y-12464484D02*
X5191491Y-12454960D01*
X5191491Y-12454960D02*
X5201015Y-12445436D01*
X5201015Y-12445436D02*
X5201015Y-12464484D01*
X5334348Y-12264484D02*
X5353396Y-12264484D01*
X5353396Y-12264484D02*
X5372444Y-12274008D01*
X5372444Y-12274008D02*
X5381968Y-12283531D01*
X5381968Y-12283531D02*
X5391491Y-12302579D01*
X5391491Y-12302579D02*
X5401015Y-12340674D01*
X5401015Y-12340674D02*
X5401015Y-12388293D01*
X5401015Y-12388293D02*
X5391491Y-12426388D01*
X5391491Y-12426388D02*
X5381968Y-12445436D01*
X5381968Y-12445436D02*
X5372444Y-12454960D01*
X5372444Y-12454960D02*
X5353396Y-12464484D01*
X5353396Y-12464484D02*
X5334348Y-12464484D01*
X5334348Y-12464484D02*
X5315301Y-12454960D01*
X5315301Y-12454960D02*
X5305777Y-12445436D01*
X5305777Y-12445436D02*
X5296253Y-12426388D01*
X5296253Y-12426388D02*
X5286729Y-12388293D01*
X5286729Y-12388293D02*
X5286729Y-12340674D01*
X5286729Y-12340674D02*
X5296253Y-12302579D01*
X5296253Y-12302579D02*
X5305777Y-12283531D01*
X5305777Y-12283531D02*
X5315301Y-12274008D01*
X5315301Y-12274008D02*
X5334348Y-12264484D01*
X5591491Y-12464484D02*
X5477206Y-12464484D01*
X5534348Y-12464484D02*
X5534348Y-12264484D01*
X5534348Y-12264484D02*
X5515301Y-12293055D01*
X5515301Y-12293055D02*
X5496253Y-12312103D01*
X5496253Y-12312103D02*
X5477206Y-12321627D01*
X5658158Y-12264484D02*
X5791491Y-12264484D01*
X5791491Y-12264484D02*
X5705777Y-12464484D01*
X5848634Y-12264484D02*
X5981967Y-12264484D01*
X5981967Y-12264484D02*
X5896253Y-12464484D01*
X6048634Y-12264484D02*
X6048634Y-12302579D01*
X6124825Y-12264484D02*
X6124825Y-12302579D01*
X6420063Y-12540674D02*
X6410539Y-12531150D01*
X6410539Y-12531150D02*
X6391491Y-12502579D01*
X6391491Y-12502579D02*
X6381968Y-12483531D01*
X6381968Y-12483531D02*
X6372444Y-12454960D01*
X6372444Y-12454960D02*
X6362920Y-12407341D01*
X6362920Y-12407341D02*
X6362920Y-12369246D01*
X6362920Y-12369246D02*
X6372444Y-12321627D01*
X6372444Y-12321627D02*
X6381968Y-12293055D01*
X6381968Y-12293055D02*
X6391491Y-12274008D01*
X6391491Y-12274008D02*
X6410539Y-12245436D01*
X6410539Y-12245436D02*
X6420063Y-12235912D01*
X6534348Y-12264484D02*
X6553396Y-12264484D01*
X6553396Y-12264484D02*
X6572444Y-12274008D01*
X6572444Y-12274008D02*
X6581968Y-12283531D01*
X6581968Y-12283531D02*
X6591491Y-12302579D01*
X6591491Y-12302579D02*
X6601015Y-12340674D01*
X6601015Y-12340674D02*
X6601015Y-12388293D01*
X6601015Y-12388293D02*
X6591491Y-12426388D01*
X6591491Y-12426388D02*
X6581968Y-12445436D01*
X6581968Y-12445436D02*
X6572444Y-12454960D01*
X6572444Y-12454960D02*
X6553396Y-12464484D01*
X6553396Y-12464484D02*
X6534348Y-12464484D01*
X6534348Y-12464484D02*
X6515301Y-12454960D01*
X6515301Y-12454960D02*
X6505777Y-12445436D01*
X6505777Y-12445436D02*
X6496253Y-12426388D01*
X6496253Y-12426388D02*
X6486729Y-12388293D01*
X6486729Y-12388293D02*
X6486729Y-12340674D01*
X6486729Y-12340674D02*
X6496253Y-12302579D01*
X6496253Y-12302579D02*
X6505777Y-12283531D01*
X6505777Y-12283531D02*
X6515301Y-12274008D01*
X6515301Y-12274008D02*
X6534348Y-12264484D01*
X6839110Y-12464484D02*
X6839110Y-12264484D01*
X6924825Y-12464484D02*
X6924825Y-12359722D01*
X6924825Y-12359722D02*
X6915301Y-12340674D01*
X6915301Y-12340674D02*
X6896253Y-12331150D01*
X6896253Y-12331150D02*
X6867682Y-12331150D01*
X6867682Y-12331150D02*
X6848634Y-12340674D01*
X6848634Y-12340674D02*
X6839110Y-12350198D01*
X7048634Y-12464484D02*
X7029587Y-12454960D01*
X7029587Y-12454960D02*
X7020063Y-12445436D01*
X7020063Y-12445436D02*
X7010539Y-12426388D01*
X7010539Y-12426388D02*
X7010539Y-12369246D01*
X7010539Y-12369246D02*
X7020063Y-12350198D01*
X7020063Y-12350198D02*
X7029587Y-12340674D01*
X7029587Y-12340674D02*
X7048634Y-12331150D01*
X7048634Y-12331150D02*
X7077206Y-12331150D01*
X7077206Y-12331150D02*
X7096253Y-12340674D01*
X7096253Y-12340674D02*
X7105777Y-12350198D01*
X7105777Y-12350198D02*
X7115301Y-12369246D01*
X7115301Y-12369246D02*
X7115301Y-12426388D01*
X7115301Y-12426388D02*
X7105777Y-12445436D01*
X7105777Y-12445436D02*
X7096253Y-12454960D01*
X7096253Y-12454960D02*
X7077206Y-12464484D01*
X7077206Y-12464484D02*
X7048634Y-12464484D01*
X7229587Y-12464484D02*
X7210539Y-12454960D01*
X7210539Y-12454960D02*
X7201015Y-12435912D01*
X7201015Y-12435912D02*
X7201015Y-12264484D01*
X7381968Y-12454960D02*
X7362920Y-12464484D01*
X7362920Y-12464484D02*
X7324825Y-12464484D01*
X7324825Y-12464484D02*
X7305777Y-12454960D01*
X7305777Y-12454960D02*
X7296253Y-12435912D01*
X7296253Y-12435912D02*
X7296253Y-12359722D01*
X7296253Y-12359722D02*
X7305777Y-12340674D01*
X7305777Y-12340674D02*
X7324825Y-12331150D01*
X7324825Y-12331150D02*
X7362920Y-12331150D01*
X7362920Y-12331150D02*
X7381968Y-12340674D01*
X7381968Y-12340674D02*
X7391491Y-12359722D01*
X7391491Y-12359722D02*
X7391491Y-12378769D01*
X7391491Y-12378769D02*
X7296253Y-12397817D01*
X7467682Y-12454960D02*
X7486730Y-12464484D01*
X7486730Y-12464484D02*
X7524825Y-12464484D01*
X7524825Y-12464484D02*
X7543872Y-12454960D01*
X7543872Y-12454960D02*
X7553396Y-12435912D01*
X7553396Y-12435912D02*
X7553396Y-12426388D01*
X7553396Y-12426388D02*
X7543872Y-12407341D01*
X7543872Y-12407341D02*
X7524825Y-12397817D01*
X7524825Y-12397817D02*
X7496253Y-12397817D01*
X7496253Y-12397817D02*
X7477206Y-12388293D01*
X7477206Y-12388293D02*
X7467682Y-12369246D01*
X7467682Y-12369246D02*
X7467682Y-12359722D01*
X7467682Y-12359722D02*
X7477206Y-12340674D01*
X7477206Y-12340674D02*
X7496253Y-12331150D01*
X7496253Y-12331150D02*
X7524825Y-12331150D01*
X7524825Y-12331150D02*
X7543872Y-12340674D01*
X7791492Y-12388293D02*
X7943873Y-12388293D01*
X7867682Y-12464484D02*
X7867682Y-12312103D01*
X8181968Y-12283531D02*
X8191492Y-12274008D01*
X8191492Y-12274008D02*
X8210539Y-12264484D01*
X8210539Y-12264484D02*
X8258158Y-12264484D01*
X8258158Y-12264484D02*
X8277206Y-12274008D01*
X8277206Y-12274008D02*
X8286730Y-12283531D01*
X8286730Y-12283531D02*
X8296253Y-12302579D01*
X8296253Y-12302579D02*
X8296253Y-12321627D01*
X8296253Y-12321627D02*
X8286730Y-12350198D01*
X8286730Y-12350198D02*
X8172444Y-12464484D01*
X8172444Y-12464484D02*
X8296253Y-12464484D01*
X8524825Y-12454960D02*
X8543873Y-12464484D01*
X8543873Y-12464484D02*
X8581968Y-12464484D01*
X8581968Y-12464484D02*
X8601016Y-12454960D01*
X8601016Y-12454960D02*
X8610539Y-12435912D01*
X8610539Y-12435912D02*
X8610539Y-12426388D01*
X8610539Y-12426388D02*
X8601016Y-12407341D01*
X8601016Y-12407341D02*
X8581968Y-12397817D01*
X8581968Y-12397817D02*
X8553396Y-12397817D01*
X8553396Y-12397817D02*
X8534349Y-12388293D01*
X8534349Y-12388293D02*
X8524825Y-12369246D01*
X8524825Y-12369246D02*
X8524825Y-12359722D01*
X8524825Y-12359722D02*
X8534349Y-12340674D01*
X8534349Y-12340674D02*
X8553396Y-12331150D01*
X8553396Y-12331150D02*
X8581968Y-12331150D01*
X8581968Y-12331150D02*
X8601016Y-12340674D01*
X8724825Y-12464484D02*
X8705777Y-12454960D01*
X8705777Y-12454960D02*
X8696254Y-12435912D01*
X8696254Y-12435912D02*
X8696254Y-12264484D01*
X8829587Y-12464484D02*
X8810539Y-12454960D01*
X8810539Y-12454960D02*
X8801016Y-12445436D01*
X8801016Y-12445436D02*
X8791492Y-12426388D01*
X8791492Y-12426388D02*
X8791492Y-12369246D01*
X8791492Y-12369246D02*
X8801016Y-12350198D01*
X8801016Y-12350198D02*
X8810539Y-12340674D01*
X8810539Y-12340674D02*
X8829587Y-12331150D01*
X8829587Y-12331150D02*
X8858158Y-12331150D01*
X8858158Y-12331150D02*
X8877206Y-12340674D01*
X8877206Y-12340674D02*
X8886730Y-12350198D01*
X8886730Y-12350198D02*
X8896254Y-12369246D01*
X8896254Y-12369246D02*
X8896254Y-12426388D01*
X8896254Y-12426388D02*
X8886730Y-12445436D01*
X8886730Y-12445436D02*
X8877206Y-12454960D01*
X8877206Y-12454960D02*
X8858158Y-12464484D01*
X8858158Y-12464484D02*
X8829587Y-12464484D01*
X8953397Y-12331150D02*
X9029587Y-12331150D01*
X8981968Y-12264484D02*
X8981968Y-12435912D01*
X8981968Y-12435912D02*
X8991492Y-12454960D01*
X8991492Y-12454960D02*
X9010539Y-12464484D01*
X9010539Y-12464484D02*
X9029587Y-12464484D01*
X9086730Y-12454960D02*
X9105777Y-12464484D01*
X9105777Y-12464484D02*
X9143873Y-12464484D01*
X9143873Y-12464484D02*
X9162920Y-12454960D01*
X9162920Y-12454960D02*
X9172444Y-12435912D01*
X9172444Y-12435912D02*
X9172444Y-12426388D01*
X9172444Y-12426388D02*
X9162920Y-12407341D01*
X9162920Y-12407341D02*
X9143873Y-12397817D01*
X9143873Y-12397817D02*
X9115301Y-12397817D01*
X9115301Y-12397817D02*
X9096254Y-12388293D01*
X9096254Y-12388293D02*
X9086730Y-12369246D01*
X9086730Y-12369246D02*
X9086730Y-12359722D01*
X9086730Y-12359722D02*
X9096254Y-12340674D01*
X9096254Y-12340674D02*
X9115301Y-12331150D01*
X9115301Y-12331150D02*
X9143873Y-12331150D01*
X9143873Y-12331150D02*
X9162920Y-12340674D01*
X9239111Y-12540674D02*
X9248635Y-12531150D01*
X9248635Y-12531150D02*
X9267682Y-12502579D01*
X9267682Y-12502579D02*
X9277206Y-12483531D01*
X9277206Y-12483531D02*
X9286730Y-12454960D01*
X9286730Y-12454960D02*
X9296254Y-12407341D01*
X9296254Y-12407341D02*
X9296254Y-12369246D01*
X9296254Y-12369246D02*
X9286730Y-12321627D01*
X9286730Y-12321627D02*
X9277206Y-12293055D01*
X9277206Y-12293055D02*
X9267682Y-12274008D01*
X9267682Y-12274008D02*
X9248635Y-12245436D01*
X9248635Y-12245436D02*
X9239111Y-12235912D01*
D15*
X2833284Y-12665284D02*
X2833284Y-12608715D01*
X2776716Y-12608715D01*
X2776716Y-12665284D01*
X2833284Y-12665284D01*
D11*
X3143872Y-12528484D02*
X3162920Y-12528484D01*
X3162920Y-12528484D02*
X3181967Y-12538008D01*
X3181967Y-12538008D02*
X3191491Y-12547531D01*
X3191491Y-12547531D02*
X3201015Y-12566579D01*
X3201015Y-12566579D02*
X3210539Y-12604674D01*
X3210539Y-12604674D02*
X3210539Y-12652293D01*
X3210539Y-12652293D02*
X3201015Y-12690388D01*
X3201015Y-12690388D02*
X3191491Y-12709436D01*
X3191491Y-12709436D02*
X3181967Y-12718960D01*
X3181967Y-12718960D02*
X3162920Y-12728484D01*
X3162920Y-12728484D02*
X3143872Y-12728484D01*
X3143872Y-12728484D02*
X3124824Y-12718960D01*
X3124824Y-12718960D02*
X3115301Y-12709436D01*
X3115301Y-12709436D02*
X3105777Y-12690388D01*
X3105777Y-12690388D02*
X3096253Y-12652293D01*
X3096253Y-12652293D02*
X3096253Y-12604674D01*
X3096253Y-12604674D02*
X3105777Y-12566579D01*
X3105777Y-12566579D02*
X3115301Y-12547531D01*
X3115301Y-12547531D02*
X3124824Y-12538008D01*
X3124824Y-12538008D02*
X3143872Y-12528484D01*
X3296253Y-12709436D02*
X3305777Y-12718960D01*
X3305777Y-12718960D02*
X3296253Y-12728484D01*
X3296253Y-12728484D02*
X3286729Y-12718960D01*
X3286729Y-12718960D02*
X3296253Y-12709436D01*
X3296253Y-12709436D02*
X3296253Y-12728484D01*
X3420062Y-12614198D02*
X3401015Y-12604674D01*
X3401015Y-12604674D02*
X3391491Y-12595150D01*
X3391491Y-12595150D02*
X3381967Y-12576103D01*
X3381967Y-12576103D02*
X3381967Y-12566579D01*
X3381967Y-12566579D02*
X3391491Y-12547531D01*
X3391491Y-12547531D02*
X3401015Y-12538008D01*
X3401015Y-12538008D02*
X3420062Y-12528484D01*
X3420062Y-12528484D02*
X3458158Y-12528484D01*
X3458158Y-12528484D02*
X3477205Y-12538008D01*
X3477205Y-12538008D02*
X3486729Y-12547531D01*
X3486729Y-12547531D02*
X3496253Y-12566579D01*
X3496253Y-12566579D02*
X3496253Y-12576103D01*
X3496253Y-12576103D02*
X3486729Y-12595150D01*
X3486729Y-12595150D02*
X3477205Y-12604674D01*
X3477205Y-12604674D02*
X3458158Y-12614198D01*
X3458158Y-12614198D02*
X3420062Y-12614198D01*
X3420062Y-12614198D02*
X3401015Y-12623722D01*
X3401015Y-12623722D02*
X3391491Y-12633246D01*
X3391491Y-12633246D02*
X3381967Y-12652293D01*
X3381967Y-12652293D02*
X3381967Y-12690388D01*
X3381967Y-12690388D02*
X3391491Y-12709436D01*
X3391491Y-12709436D02*
X3401015Y-12718960D01*
X3401015Y-12718960D02*
X3420062Y-12728484D01*
X3420062Y-12728484D02*
X3458158Y-12728484D01*
X3458158Y-12728484D02*
X3477205Y-12718960D01*
X3477205Y-12718960D02*
X3486729Y-12709436D01*
X3486729Y-12709436D02*
X3496253Y-12690388D01*
X3496253Y-12690388D02*
X3496253Y-12652293D01*
X3496253Y-12652293D02*
X3486729Y-12633246D01*
X3486729Y-12633246D02*
X3477205Y-12623722D01*
X3477205Y-12623722D02*
X3458158Y-12614198D01*
X3620062Y-12528484D02*
X3639110Y-12528484D01*
X3639110Y-12528484D02*
X3658158Y-12538008D01*
X3658158Y-12538008D02*
X3667682Y-12547531D01*
X3667682Y-12547531D02*
X3677205Y-12566579D01*
X3677205Y-12566579D02*
X3686729Y-12604674D01*
X3686729Y-12604674D02*
X3686729Y-12652293D01*
X3686729Y-12652293D02*
X3677205Y-12690388D01*
X3677205Y-12690388D02*
X3667682Y-12709436D01*
X3667682Y-12709436D02*
X3658158Y-12718960D01*
X3658158Y-12718960D02*
X3639110Y-12728484D01*
X3639110Y-12728484D02*
X3620062Y-12728484D01*
X3620062Y-12728484D02*
X3601015Y-12718960D01*
X3601015Y-12718960D02*
X3591491Y-12709436D01*
X3591491Y-12709436D02*
X3581967Y-12690388D01*
X3581967Y-12690388D02*
X3572443Y-12652293D01*
X3572443Y-12652293D02*
X3572443Y-12604674D01*
X3572443Y-12604674D02*
X3581967Y-12566579D01*
X3581967Y-12566579D02*
X3591491Y-12547531D01*
X3591491Y-12547531D02*
X3601015Y-12538008D01*
X3601015Y-12538008D02*
X3620062Y-12528484D01*
X3810539Y-12528484D02*
X3829586Y-12528484D01*
X3829586Y-12528484D02*
X3848634Y-12538008D01*
X3848634Y-12538008D02*
X3858158Y-12547531D01*
X3858158Y-12547531D02*
X3867682Y-12566579D01*
X3867682Y-12566579D02*
X3877205Y-12604674D01*
X3877205Y-12604674D02*
X3877205Y-12652293D01*
X3877205Y-12652293D02*
X3867682Y-12690388D01*
X3867682Y-12690388D02*
X3858158Y-12709436D01*
X3858158Y-12709436D02*
X3848634Y-12718960D01*
X3848634Y-12718960D02*
X3829586Y-12728484D01*
X3829586Y-12728484D02*
X3810539Y-12728484D01*
X3810539Y-12728484D02*
X3791491Y-12718960D01*
X3791491Y-12718960D02*
X3781967Y-12709436D01*
X3781967Y-12709436D02*
X3772443Y-12690388D01*
X3772443Y-12690388D02*
X3762920Y-12652293D01*
X3762920Y-12652293D02*
X3762920Y-12604674D01*
X3762920Y-12604674D02*
X3772443Y-12566579D01*
X3772443Y-12566579D02*
X3781967Y-12547531D01*
X3781967Y-12547531D02*
X3791491Y-12538008D01*
X3791491Y-12538008D02*
X3810539Y-12528484D01*
X3962920Y-12728484D02*
X3962920Y-12595150D01*
X3962920Y-12614198D02*
X3972443Y-12604674D01*
X3972443Y-12604674D02*
X3991491Y-12595150D01*
X3991491Y-12595150D02*
X4020063Y-12595150D01*
X4020063Y-12595150D02*
X4039110Y-12604674D01*
X4039110Y-12604674D02*
X4048634Y-12623722D01*
X4048634Y-12623722D02*
X4048634Y-12728484D01*
X4048634Y-12623722D02*
X4058158Y-12604674D01*
X4058158Y-12604674D02*
X4077205Y-12595150D01*
X4077205Y-12595150D02*
X4105777Y-12595150D01*
X4105777Y-12595150D02*
X4124824Y-12604674D01*
X4124824Y-12604674D02*
X4134348Y-12623722D01*
X4134348Y-12623722D02*
X4134348Y-12728484D01*
X4229586Y-12728484D02*
X4229586Y-12595150D01*
X4229586Y-12614198D02*
X4239110Y-12604674D01*
X4239110Y-12604674D02*
X4258158Y-12595150D01*
X4258158Y-12595150D02*
X4286729Y-12595150D01*
X4286729Y-12595150D02*
X4305777Y-12604674D01*
X4305777Y-12604674D02*
X4315301Y-12623722D01*
X4315301Y-12623722D02*
X4315301Y-12728484D01*
X4315301Y-12623722D02*
X4324825Y-12604674D01*
X4324825Y-12604674D02*
X4343872Y-12595150D01*
X4343872Y-12595150D02*
X4372444Y-12595150D01*
X4372444Y-12595150D02*
X4391491Y-12604674D01*
X4391491Y-12604674D02*
X4401015Y-12623722D01*
X4401015Y-12623722D02*
X4401015Y-12728484D01*
X4791491Y-12518960D02*
X4620063Y-12776103D01*
X5048634Y-12528484D02*
X5067682Y-12528484D01*
X5067682Y-12528484D02*
X5086729Y-12538008D01*
X5086729Y-12538008D02*
X5096253Y-12547531D01*
X5096253Y-12547531D02*
X5105777Y-12566579D01*
X5105777Y-12566579D02*
X5115301Y-12604674D01*
X5115301Y-12604674D02*
X5115301Y-12652293D01*
X5115301Y-12652293D02*
X5105777Y-12690388D01*
X5105777Y-12690388D02*
X5096253Y-12709436D01*
X5096253Y-12709436D02*
X5086729Y-12718960D01*
X5086729Y-12718960D02*
X5067682Y-12728484D01*
X5067682Y-12728484D02*
X5048634Y-12728484D01*
X5048634Y-12728484D02*
X5029587Y-12718960D01*
X5029587Y-12718960D02*
X5020063Y-12709436D01*
X5020063Y-12709436D02*
X5010539Y-12690388D01*
X5010539Y-12690388D02*
X5001015Y-12652293D01*
X5001015Y-12652293D02*
X5001015Y-12604674D01*
X5001015Y-12604674D02*
X5010539Y-12566579D01*
X5010539Y-12566579D02*
X5020063Y-12547531D01*
X5020063Y-12547531D02*
X5029587Y-12538008D01*
X5029587Y-12538008D02*
X5048634Y-12528484D01*
X5201015Y-12709436D02*
X5210539Y-12718960D01*
X5210539Y-12718960D02*
X5201015Y-12728484D01*
X5201015Y-12728484D02*
X5191491Y-12718960D01*
X5191491Y-12718960D02*
X5201015Y-12709436D01*
X5201015Y-12709436D02*
X5201015Y-12728484D01*
X5334348Y-12528484D02*
X5353396Y-12528484D01*
X5353396Y-12528484D02*
X5372444Y-12538008D01*
X5372444Y-12538008D02*
X5381968Y-12547531D01*
X5381968Y-12547531D02*
X5391491Y-12566579D01*
X5391491Y-12566579D02*
X5401015Y-12604674D01*
X5401015Y-12604674D02*
X5401015Y-12652293D01*
X5401015Y-12652293D02*
X5391491Y-12690388D01*
X5391491Y-12690388D02*
X5381968Y-12709436D01*
X5381968Y-12709436D02*
X5372444Y-12718960D01*
X5372444Y-12718960D02*
X5353396Y-12728484D01*
X5353396Y-12728484D02*
X5334348Y-12728484D01*
X5334348Y-12728484D02*
X5315301Y-12718960D01*
X5315301Y-12718960D02*
X5305777Y-12709436D01*
X5305777Y-12709436D02*
X5296253Y-12690388D01*
X5296253Y-12690388D02*
X5286729Y-12652293D01*
X5286729Y-12652293D02*
X5286729Y-12604674D01*
X5286729Y-12604674D02*
X5296253Y-12566579D01*
X5296253Y-12566579D02*
X5305777Y-12547531D01*
X5305777Y-12547531D02*
X5315301Y-12538008D01*
X5315301Y-12538008D02*
X5334348Y-12528484D01*
X5467682Y-12528484D02*
X5591491Y-12528484D01*
X5591491Y-12528484D02*
X5524825Y-12604674D01*
X5524825Y-12604674D02*
X5553396Y-12604674D01*
X5553396Y-12604674D02*
X5572444Y-12614198D01*
X5572444Y-12614198D02*
X5581968Y-12623722D01*
X5581968Y-12623722D02*
X5591491Y-12642769D01*
X5591491Y-12642769D02*
X5591491Y-12690388D01*
X5591491Y-12690388D02*
X5581968Y-12709436D01*
X5581968Y-12709436D02*
X5572444Y-12718960D01*
X5572444Y-12718960D02*
X5553396Y-12728484D01*
X5553396Y-12728484D02*
X5496253Y-12728484D01*
X5496253Y-12728484D02*
X5477206Y-12718960D01*
X5477206Y-12718960D02*
X5467682Y-12709436D01*
X5781967Y-12728484D02*
X5667682Y-12728484D01*
X5724825Y-12728484D02*
X5724825Y-12528484D01*
X5724825Y-12528484D02*
X5705777Y-12557055D01*
X5705777Y-12557055D02*
X5686729Y-12576103D01*
X5686729Y-12576103D02*
X5667682Y-12585627D01*
X5962920Y-12528484D02*
X5867682Y-12528484D01*
X5867682Y-12528484D02*
X5858158Y-12623722D01*
X5858158Y-12623722D02*
X5867682Y-12614198D01*
X5867682Y-12614198D02*
X5886729Y-12604674D01*
X5886729Y-12604674D02*
X5934348Y-12604674D01*
X5934348Y-12604674D02*
X5953396Y-12614198D01*
X5953396Y-12614198D02*
X5962920Y-12623722D01*
X5962920Y-12623722D02*
X5972444Y-12642769D01*
X5972444Y-12642769D02*
X5972444Y-12690388D01*
X5972444Y-12690388D02*
X5962920Y-12709436D01*
X5962920Y-12709436D02*
X5953396Y-12718960D01*
X5953396Y-12718960D02*
X5934348Y-12728484D01*
X5934348Y-12728484D02*
X5886729Y-12728484D01*
X5886729Y-12728484D02*
X5867682Y-12718960D01*
X5867682Y-12718960D02*
X5858158Y-12709436D01*
X6048634Y-12528484D02*
X6048634Y-12566579D01*
X6124825Y-12528484D02*
X6124825Y-12566579D01*
X6420063Y-12804674D02*
X6410539Y-12795150D01*
X6410539Y-12795150D02*
X6391491Y-12766579D01*
X6391491Y-12766579D02*
X6381968Y-12747531D01*
X6381968Y-12747531D02*
X6372444Y-12718960D01*
X6372444Y-12718960D02*
X6362920Y-12671341D01*
X6362920Y-12671341D02*
X6362920Y-12633246D01*
X6362920Y-12633246D02*
X6372444Y-12585627D01*
X6372444Y-12585627D02*
X6381968Y-12557055D01*
X6381968Y-12557055D02*
X6391491Y-12538008D01*
X6391491Y-12538008D02*
X6410539Y-12509436D01*
X6410539Y-12509436D02*
X6420063Y-12499912D01*
X6524825Y-12614198D02*
X6505777Y-12604674D01*
X6505777Y-12604674D02*
X6496253Y-12595150D01*
X6496253Y-12595150D02*
X6486729Y-12576103D01*
X6486729Y-12576103D02*
X6486729Y-12566579D01*
X6486729Y-12566579D02*
X6496253Y-12547531D01*
X6496253Y-12547531D02*
X6505777Y-12538008D01*
X6505777Y-12538008D02*
X6524825Y-12528484D01*
X6524825Y-12528484D02*
X6562920Y-12528484D01*
X6562920Y-12528484D02*
X6581968Y-12538008D01*
X6581968Y-12538008D02*
X6591491Y-12547531D01*
X6591491Y-12547531D02*
X6601015Y-12566579D01*
X6601015Y-12566579D02*
X6601015Y-12576103D01*
X6601015Y-12576103D02*
X6591491Y-12595150D01*
X6591491Y-12595150D02*
X6581968Y-12604674D01*
X6581968Y-12604674D02*
X6562920Y-12614198D01*
X6562920Y-12614198D02*
X6524825Y-12614198D01*
X6524825Y-12614198D02*
X6505777Y-12623722D01*
X6505777Y-12623722D02*
X6496253Y-12633246D01*
X6496253Y-12633246D02*
X6486729Y-12652293D01*
X6486729Y-12652293D02*
X6486729Y-12690388D01*
X6486729Y-12690388D02*
X6496253Y-12709436D01*
X6496253Y-12709436D02*
X6505777Y-12718960D01*
X6505777Y-12718960D02*
X6524825Y-12728484D01*
X6524825Y-12728484D02*
X6562920Y-12728484D01*
X6562920Y-12728484D02*
X6581968Y-12718960D01*
X6581968Y-12718960D02*
X6591491Y-12709436D01*
X6591491Y-12709436D02*
X6601015Y-12690388D01*
X6601015Y-12690388D02*
X6601015Y-12652293D01*
X6601015Y-12652293D02*
X6591491Y-12633246D01*
X6591491Y-12633246D02*
X6581968Y-12623722D01*
X6581968Y-12623722D02*
X6562920Y-12614198D01*
X6772444Y-12528484D02*
X6734348Y-12528484D01*
X6734348Y-12528484D02*
X6715301Y-12538008D01*
X6715301Y-12538008D02*
X6705777Y-12547531D01*
X6705777Y-12547531D02*
X6686729Y-12576103D01*
X6686729Y-12576103D02*
X6677206Y-12614198D01*
X6677206Y-12614198D02*
X6677206Y-12690388D01*
X6677206Y-12690388D02*
X6686729Y-12709436D01*
X6686729Y-12709436D02*
X6696253Y-12718960D01*
X6696253Y-12718960D02*
X6715301Y-12728484D01*
X6715301Y-12728484D02*
X6753396Y-12728484D01*
X6753396Y-12728484D02*
X6772444Y-12718960D01*
X6772444Y-12718960D02*
X6781968Y-12709436D01*
X6781968Y-12709436D02*
X6791491Y-12690388D01*
X6791491Y-12690388D02*
X6791491Y-12642769D01*
X6791491Y-12642769D02*
X6781968Y-12623722D01*
X6781968Y-12623722D02*
X6772444Y-12614198D01*
X6772444Y-12614198D02*
X6753396Y-12604674D01*
X6753396Y-12604674D02*
X6715301Y-12604674D01*
X6715301Y-12604674D02*
X6696253Y-12614198D01*
X6696253Y-12614198D02*
X6686729Y-12623722D01*
X6686729Y-12623722D02*
X6677206Y-12642769D01*
X7029587Y-12728484D02*
X7029587Y-12528484D01*
X7115301Y-12728484D02*
X7115301Y-12623722D01*
X7115301Y-12623722D02*
X7105777Y-12604674D01*
X7105777Y-12604674D02*
X7086730Y-12595150D01*
X7086730Y-12595150D02*
X7058158Y-12595150D01*
X7058158Y-12595150D02*
X7039110Y-12604674D01*
X7039110Y-12604674D02*
X7029587Y-12614198D01*
X7239110Y-12728484D02*
X7220063Y-12718960D01*
X7220063Y-12718960D02*
X7210539Y-12709436D01*
X7210539Y-12709436D02*
X7201015Y-12690388D01*
X7201015Y-12690388D02*
X7201015Y-12633246D01*
X7201015Y-12633246D02*
X7210539Y-12614198D01*
X7210539Y-12614198D02*
X7220063Y-12604674D01*
X7220063Y-12604674D02*
X7239110Y-12595150D01*
X7239110Y-12595150D02*
X7267682Y-12595150D01*
X7267682Y-12595150D02*
X7286730Y-12604674D01*
X7286730Y-12604674D02*
X7296253Y-12614198D01*
X7296253Y-12614198D02*
X7305777Y-12633246D01*
X7305777Y-12633246D02*
X7305777Y-12690388D01*
X7305777Y-12690388D02*
X7296253Y-12709436D01*
X7296253Y-12709436D02*
X7286730Y-12718960D01*
X7286730Y-12718960D02*
X7267682Y-12728484D01*
X7267682Y-12728484D02*
X7239110Y-12728484D01*
X7420063Y-12728484D02*
X7401015Y-12718960D01*
X7401015Y-12718960D02*
X7391491Y-12699912D01*
X7391491Y-12699912D02*
X7391491Y-12528484D01*
X7572444Y-12718960D02*
X7553396Y-12728484D01*
X7553396Y-12728484D02*
X7515301Y-12728484D01*
X7515301Y-12728484D02*
X7496253Y-12718960D01*
X7496253Y-12718960D02*
X7486730Y-12699912D01*
X7486730Y-12699912D02*
X7486730Y-12623722D01*
X7486730Y-12623722D02*
X7496253Y-12604674D01*
X7496253Y-12604674D02*
X7515301Y-12595150D01*
X7515301Y-12595150D02*
X7553396Y-12595150D01*
X7553396Y-12595150D02*
X7572444Y-12604674D01*
X7572444Y-12604674D02*
X7581968Y-12623722D01*
X7581968Y-12623722D02*
X7581968Y-12642769D01*
X7581968Y-12642769D02*
X7486730Y-12661817D01*
X7658158Y-12718960D02*
X7677206Y-12728484D01*
X7677206Y-12728484D02*
X7715301Y-12728484D01*
X7715301Y-12728484D02*
X7734349Y-12718960D01*
X7734349Y-12718960D02*
X7743872Y-12699912D01*
X7743872Y-12699912D02*
X7743872Y-12690388D01*
X7743872Y-12690388D02*
X7734349Y-12671341D01*
X7734349Y-12671341D02*
X7715301Y-12661817D01*
X7715301Y-12661817D02*
X7686730Y-12661817D01*
X7686730Y-12661817D02*
X7667682Y-12652293D01*
X7667682Y-12652293D02*
X7658158Y-12633246D01*
X7658158Y-12633246D02*
X7658158Y-12623722D01*
X7658158Y-12623722D02*
X7667682Y-12604674D01*
X7667682Y-12604674D02*
X7686730Y-12595150D01*
X7686730Y-12595150D02*
X7715301Y-12595150D01*
X7715301Y-12595150D02*
X7734349Y-12604674D01*
X7810539Y-12804674D02*
X7820063Y-12795150D01*
X7820063Y-12795150D02*
X7839111Y-12766579D01*
X7839111Y-12766579D02*
X7848634Y-12747531D01*
X7848634Y-12747531D02*
X7858158Y-12718960D01*
X7858158Y-12718960D02*
X7867682Y-12671341D01*
X7867682Y-12671341D02*
X7867682Y-12633246D01*
X7867682Y-12633246D02*
X7858158Y-12585627D01*
X7858158Y-12585627D02*
X7848634Y-12557055D01*
X7848634Y-12557055D02*
X7839111Y-12538008D01*
X7839111Y-12538008D02*
X7820063Y-12509436D01*
X7820063Y-12509436D02*
X7810539Y-12499912D01*
D15*
X2805000Y-12941000D02*
X2845000Y-12901000D01*
X2805000Y-12861000D01*
X2765000Y-12901000D01*
X2805000Y-12941000D01*
D11*
X3143872Y-12792484D02*
X3162920Y-12792484D01*
X3162920Y-12792484D02*
X3181967Y-12802008D01*
X3181967Y-12802008D02*
X3191491Y-12811531D01*
X3191491Y-12811531D02*
X3201015Y-12830579D01*
X3201015Y-12830579D02*
X3210539Y-12868674D01*
X3210539Y-12868674D02*
X3210539Y-12916293D01*
X3210539Y-12916293D02*
X3201015Y-12954388D01*
X3201015Y-12954388D02*
X3191491Y-12973436D01*
X3191491Y-12973436D02*
X3181967Y-12982960D01*
X3181967Y-12982960D02*
X3162920Y-12992484D01*
X3162920Y-12992484D02*
X3143872Y-12992484D01*
X3143872Y-12992484D02*
X3124824Y-12982960D01*
X3124824Y-12982960D02*
X3115301Y-12973436D01*
X3115301Y-12973436D02*
X3105777Y-12954388D01*
X3105777Y-12954388D02*
X3096253Y-12916293D01*
X3096253Y-12916293D02*
X3096253Y-12868674D01*
X3096253Y-12868674D02*
X3105777Y-12830579D01*
X3105777Y-12830579D02*
X3115301Y-12811531D01*
X3115301Y-12811531D02*
X3124824Y-12802008D01*
X3124824Y-12802008D02*
X3143872Y-12792484D01*
X3296253Y-12973436D02*
X3305777Y-12982960D01*
X3305777Y-12982960D02*
X3296253Y-12992484D01*
X3296253Y-12992484D02*
X3286729Y-12982960D01*
X3286729Y-12982960D02*
X3296253Y-12973436D01*
X3296253Y-12973436D02*
X3296253Y-12992484D01*
X3420062Y-12878198D02*
X3401015Y-12868674D01*
X3401015Y-12868674D02*
X3391491Y-12859150D01*
X3391491Y-12859150D02*
X3381967Y-12840103D01*
X3381967Y-12840103D02*
X3381967Y-12830579D01*
X3381967Y-12830579D02*
X3391491Y-12811531D01*
X3391491Y-12811531D02*
X3401015Y-12802008D01*
X3401015Y-12802008D02*
X3420062Y-12792484D01*
X3420062Y-12792484D02*
X3458158Y-12792484D01*
X3458158Y-12792484D02*
X3477205Y-12802008D01*
X3477205Y-12802008D02*
X3486729Y-12811531D01*
X3486729Y-12811531D02*
X3496253Y-12830579D01*
X3496253Y-12830579D02*
X3496253Y-12840103D01*
X3496253Y-12840103D02*
X3486729Y-12859150D01*
X3486729Y-12859150D02*
X3477205Y-12868674D01*
X3477205Y-12868674D02*
X3458158Y-12878198D01*
X3458158Y-12878198D02*
X3420062Y-12878198D01*
X3420062Y-12878198D02*
X3401015Y-12887722D01*
X3401015Y-12887722D02*
X3391491Y-12897246D01*
X3391491Y-12897246D02*
X3381967Y-12916293D01*
X3381967Y-12916293D02*
X3381967Y-12954388D01*
X3381967Y-12954388D02*
X3391491Y-12973436D01*
X3391491Y-12973436D02*
X3401015Y-12982960D01*
X3401015Y-12982960D02*
X3420062Y-12992484D01*
X3420062Y-12992484D02*
X3458158Y-12992484D01*
X3458158Y-12992484D02*
X3477205Y-12982960D01*
X3477205Y-12982960D02*
X3486729Y-12973436D01*
X3486729Y-12973436D02*
X3496253Y-12954388D01*
X3496253Y-12954388D02*
X3496253Y-12916293D01*
X3496253Y-12916293D02*
X3486729Y-12897246D01*
X3486729Y-12897246D02*
X3477205Y-12887722D01*
X3477205Y-12887722D02*
X3458158Y-12878198D01*
X3620062Y-12792484D02*
X3639110Y-12792484D01*
X3639110Y-12792484D02*
X3658158Y-12802008D01*
X3658158Y-12802008D02*
X3667682Y-12811531D01*
X3667682Y-12811531D02*
X3677205Y-12830579D01*
X3677205Y-12830579D02*
X3686729Y-12868674D01*
X3686729Y-12868674D02*
X3686729Y-12916293D01*
X3686729Y-12916293D02*
X3677205Y-12954388D01*
X3677205Y-12954388D02*
X3667682Y-12973436D01*
X3667682Y-12973436D02*
X3658158Y-12982960D01*
X3658158Y-12982960D02*
X3639110Y-12992484D01*
X3639110Y-12992484D02*
X3620062Y-12992484D01*
X3620062Y-12992484D02*
X3601015Y-12982960D01*
X3601015Y-12982960D02*
X3591491Y-12973436D01*
X3591491Y-12973436D02*
X3581967Y-12954388D01*
X3581967Y-12954388D02*
X3572443Y-12916293D01*
X3572443Y-12916293D02*
X3572443Y-12868674D01*
X3572443Y-12868674D02*
X3581967Y-12830579D01*
X3581967Y-12830579D02*
X3591491Y-12811531D01*
X3591491Y-12811531D02*
X3601015Y-12802008D01*
X3601015Y-12802008D02*
X3620062Y-12792484D01*
X3810539Y-12792484D02*
X3829586Y-12792484D01*
X3829586Y-12792484D02*
X3848634Y-12802008D01*
X3848634Y-12802008D02*
X3858158Y-12811531D01*
X3858158Y-12811531D02*
X3867682Y-12830579D01*
X3867682Y-12830579D02*
X3877205Y-12868674D01*
X3877205Y-12868674D02*
X3877205Y-12916293D01*
X3877205Y-12916293D02*
X3867682Y-12954388D01*
X3867682Y-12954388D02*
X3858158Y-12973436D01*
X3858158Y-12973436D02*
X3848634Y-12982960D01*
X3848634Y-12982960D02*
X3829586Y-12992484D01*
X3829586Y-12992484D02*
X3810539Y-12992484D01*
X3810539Y-12992484D02*
X3791491Y-12982960D01*
X3791491Y-12982960D02*
X3781967Y-12973436D01*
X3781967Y-12973436D02*
X3772443Y-12954388D01*
X3772443Y-12954388D02*
X3762920Y-12916293D01*
X3762920Y-12916293D02*
X3762920Y-12868674D01*
X3762920Y-12868674D02*
X3772443Y-12830579D01*
X3772443Y-12830579D02*
X3781967Y-12811531D01*
X3781967Y-12811531D02*
X3791491Y-12802008D01*
X3791491Y-12802008D02*
X3810539Y-12792484D01*
X3962920Y-12992484D02*
X3962920Y-12859150D01*
X3962920Y-12878198D02*
X3972443Y-12868674D01*
X3972443Y-12868674D02*
X3991491Y-12859150D01*
X3991491Y-12859150D02*
X4020063Y-12859150D01*
X4020063Y-12859150D02*
X4039110Y-12868674D01*
X4039110Y-12868674D02*
X4048634Y-12887722D01*
X4048634Y-12887722D02*
X4048634Y-12992484D01*
X4048634Y-12887722D02*
X4058158Y-12868674D01*
X4058158Y-12868674D02*
X4077205Y-12859150D01*
X4077205Y-12859150D02*
X4105777Y-12859150D01*
X4105777Y-12859150D02*
X4124824Y-12868674D01*
X4124824Y-12868674D02*
X4134348Y-12887722D01*
X4134348Y-12887722D02*
X4134348Y-12992484D01*
X4229586Y-12992484D02*
X4229586Y-12859150D01*
X4229586Y-12878198D02*
X4239110Y-12868674D01*
X4239110Y-12868674D02*
X4258158Y-12859150D01*
X4258158Y-12859150D02*
X4286729Y-12859150D01*
X4286729Y-12859150D02*
X4305777Y-12868674D01*
X4305777Y-12868674D02*
X4315301Y-12887722D01*
X4315301Y-12887722D02*
X4315301Y-12992484D01*
X4315301Y-12887722D02*
X4324825Y-12868674D01*
X4324825Y-12868674D02*
X4343872Y-12859150D01*
X4343872Y-12859150D02*
X4372444Y-12859150D01*
X4372444Y-12859150D02*
X4391491Y-12868674D01*
X4391491Y-12868674D02*
X4401015Y-12887722D01*
X4401015Y-12887722D02*
X4401015Y-12992484D01*
X4791491Y-12782960D02*
X4620063Y-13040103D01*
X5048634Y-12792484D02*
X5067682Y-12792484D01*
X5067682Y-12792484D02*
X5086729Y-12802008D01*
X5086729Y-12802008D02*
X5096253Y-12811531D01*
X5096253Y-12811531D02*
X5105777Y-12830579D01*
X5105777Y-12830579D02*
X5115301Y-12868674D01*
X5115301Y-12868674D02*
X5115301Y-12916293D01*
X5115301Y-12916293D02*
X5105777Y-12954388D01*
X5105777Y-12954388D02*
X5096253Y-12973436D01*
X5096253Y-12973436D02*
X5086729Y-12982960D01*
X5086729Y-12982960D02*
X5067682Y-12992484D01*
X5067682Y-12992484D02*
X5048634Y-12992484D01*
X5048634Y-12992484D02*
X5029587Y-12982960D01*
X5029587Y-12982960D02*
X5020063Y-12973436D01*
X5020063Y-12973436D02*
X5010539Y-12954388D01*
X5010539Y-12954388D02*
X5001015Y-12916293D01*
X5001015Y-12916293D02*
X5001015Y-12868674D01*
X5001015Y-12868674D02*
X5010539Y-12830579D01*
X5010539Y-12830579D02*
X5020063Y-12811531D01*
X5020063Y-12811531D02*
X5029587Y-12802008D01*
X5029587Y-12802008D02*
X5048634Y-12792484D01*
X5201015Y-12973436D02*
X5210539Y-12982960D01*
X5210539Y-12982960D02*
X5201015Y-12992484D01*
X5201015Y-12992484D02*
X5191491Y-12982960D01*
X5191491Y-12982960D02*
X5201015Y-12973436D01*
X5201015Y-12973436D02*
X5201015Y-12992484D01*
X5334348Y-12792484D02*
X5353396Y-12792484D01*
X5353396Y-12792484D02*
X5372444Y-12802008D01*
X5372444Y-12802008D02*
X5381968Y-12811531D01*
X5381968Y-12811531D02*
X5391491Y-12830579D01*
X5391491Y-12830579D02*
X5401015Y-12868674D01*
X5401015Y-12868674D02*
X5401015Y-12916293D01*
X5401015Y-12916293D02*
X5391491Y-12954388D01*
X5391491Y-12954388D02*
X5381968Y-12973436D01*
X5381968Y-12973436D02*
X5372444Y-12982960D01*
X5372444Y-12982960D02*
X5353396Y-12992484D01*
X5353396Y-12992484D02*
X5334348Y-12992484D01*
X5334348Y-12992484D02*
X5315301Y-12982960D01*
X5315301Y-12982960D02*
X5305777Y-12973436D01*
X5305777Y-12973436D02*
X5296253Y-12954388D01*
X5296253Y-12954388D02*
X5286729Y-12916293D01*
X5286729Y-12916293D02*
X5286729Y-12868674D01*
X5286729Y-12868674D02*
X5296253Y-12830579D01*
X5296253Y-12830579D02*
X5305777Y-12811531D01*
X5305777Y-12811531D02*
X5315301Y-12802008D01*
X5315301Y-12802008D02*
X5334348Y-12792484D01*
X5467682Y-12792484D02*
X5591491Y-12792484D01*
X5591491Y-12792484D02*
X5524825Y-12868674D01*
X5524825Y-12868674D02*
X5553396Y-12868674D01*
X5553396Y-12868674D02*
X5572444Y-12878198D01*
X5572444Y-12878198D02*
X5581968Y-12887722D01*
X5581968Y-12887722D02*
X5591491Y-12906769D01*
X5591491Y-12906769D02*
X5591491Y-12954388D01*
X5591491Y-12954388D02*
X5581968Y-12973436D01*
X5581968Y-12973436D02*
X5572444Y-12982960D01*
X5572444Y-12982960D02*
X5553396Y-12992484D01*
X5553396Y-12992484D02*
X5496253Y-12992484D01*
X5496253Y-12992484D02*
X5477206Y-12982960D01*
X5477206Y-12982960D02*
X5467682Y-12973436D01*
X5781967Y-12992484D02*
X5667682Y-12992484D01*
X5724825Y-12992484D02*
X5724825Y-12792484D01*
X5724825Y-12792484D02*
X5705777Y-12821055D01*
X5705777Y-12821055D02*
X5686729Y-12840103D01*
X5686729Y-12840103D02*
X5667682Y-12849627D01*
X5962920Y-12792484D02*
X5867682Y-12792484D01*
X5867682Y-12792484D02*
X5858158Y-12887722D01*
X5858158Y-12887722D02*
X5867682Y-12878198D01*
X5867682Y-12878198D02*
X5886729Y-12868674D01*
X5886729Y-12868674D02*
X5934348Y-12868674D01*
X5934348Y-12868674D02*
X5953396Y-12878198D01*
X5953396Y-12878198D02*
X5962920Y-12887722D01*
X5962920Y-12887722D02*
X5972444Y-12906769D01*
X5972444Y-12906769D02*
X5972444Y-12954388D01*
X5972444Y-12954388D02*
X5962920Y-12973436D01*
X5962920Y-12973436D02*
X5953396Y-12982960D01*
X5953396Y-12982960D02*
X5934348Y-12992484D01*
X5934348Y-12992484D02*
X5886729Y-12992484D01*
X5886729Y-12992484D02*
X5867682Y-12982960D01*
X5867682Y-12982960D02*
X5858158Y-12973436D01*
X6048634Y-12792484D02*
X6048634Y-12830579D01*
X6124825Y-12792484D02*
X6124825Y-12830579D01*
X6420063Y-13068674D02*
X6410539Y-13059150D01*
X6410539Y-13059150D02*
X6391491Y-13030579D01*
X6391491Y-13030579D02*
X6381968Y-13011531D01*
X6381968Y-13011531D02*
X6372444Y-12982960D01*
X6372444Y-12982960D02*
X6362920Y-12935341D01*
X6362920Y-12935341D02*
X6362920Y-12897246D01*
X6362920Y-12897246D02*
X6372444Y-12849627D01*
X6372444Y-12849627D02*
X6381968Y-12821055D01*
X6381968Y-12821055D02*
X6391491Y-12802008D01*
X6391491Y-12802008D02*
X6410539Y-12773436D01*
X6410539Y-12773436D02*
X6420063Y-12763912D01*
X6477206Y-12792484D02*
X6601015Y-12792484D01*
X6601015Y-12792484D02*
X6534348Y-12868674D01*
X6534348Y-12868674D02*
X6562920Y-12868674D01*
X6562920Y-12868674D02*
X6581968Y-12878198D01*
X6581968Y-12878198D02*
X6591491Y-12887722D01*
X6591491Y-12887722D02*
X6601015Y-12906769D01*
X6601015Y-12906769D02*
X6601015Y-12954388D01*
X6601015Y-12954388D02*
X6591491Y-12973436D01*
X6591491Y-12973436D02*
X6581968Y-12982960D01*
X6581968Y-12982960D02*
X6562920Y-12992484D01*
X6562920Y-12992484D02*
X6505777Y-12992484D01*
X6505777Y-12992484D02*
X6486729Y-12982960D01*
X6486729Y-12982960D02*
X6477206Y-12973436D01*
X6772444Y-12792484D02*
X6734348Y-12792484D01*
X6734348Y-12792484D02*
X6715301Y-12802008D01*
X6715301Y-12802008D02*
X6705777Y-12811531D01*
X6705777Y-12811531D02*
X6686729Y-12840103D01*
X6686729Y-12840103D02*
X6677206Y-12878198D01*
X6677206Y-12878198D02*
X6677206Y-12954388D01*
X6677206Y-12954388D02*
X6686729Y-12973436D01*
X6686729Y-12973436D02*
X6696253Y-12982960D01*
X6696253Y-12982960D02*
X6715301Y-12992484D01*
X6715301Y-12992484D02*
X6753396Y-12992484D01*
X6753396Y-12992484D02*
X6772444Y-12982960D01*
X6772444Y-12982960D02*
X6781968Y-12973436D01*
X6781968Y-12973436D02*
X6791491Y-12954388D01*
X6791491Y-12954388D02*
X6791491Y-12906769D01*
X6791491Y-12906769D02*
X6781968Y-12887722D01*
X6781968Y-12887722D02*
X6772444Y-12878198D01*
X6772444Y-12878198D02*
X6753396Y-12868674D01*
X6753396Y-12868674D02*
X6715301Y-12868674D01*
X6715301Y-12868674D02*
X6696253Y-12878198D01*
X6696253Y-12878198D02*
X6686729Y-12887722D01*
X6686729Y-12887722D02*
X6677206Y-12906769D01*
X7029587Y-12992484D02*
X7029587Y-12792484D01*
X7115301Y-12992484D02*
X7115301Y-12887722D01*
X7115301Y-12887722D02*
X7105777Y-12868674D01*
X7105777Y-12868674D02*
X7086730Y-12859150D01*
X7086730Y-12859150D02*
X7058158Y-12859150D01*
X7058158Y-12859150D02*
X7039110Y-12868674D01*
X7039110Y-12868674D02*
X7029587Y-12878198D01*
X7239110Y-12992484D02*
X7220063Y-12982960D01*
X7220063Y-12982960D02*
X7210539Y-12973436D01*
X7210539Y-12973436D02*
X7201015Y-12954388D01*
X7201015Y-12954388D02*
X7201015Y-12897246D01*
X7201015Y-12897246D02*
X7210539Y-12878198D01*
X7210539Y-12878198D02*
X7220063Y-12868674D01*
X7220063Y-12868674D02*
X7239110Y-12859150D01*
X7239110Y-12859150D02*
X7267682Y-12859150D01*
X7267682Y-12859150D02*
X7286730Y-12868674D01*
X7286730Y-12868674D02*
X7296253Y-12878198D01*
X7296253Y-12878198D02*
X7305777Y-12897246D01*
X7305777Y-12897246D02*
X7305777Y-12954388D01*
X7305777Y-12954388D02*
X7296253Y-12973436D01*
X7296253Y-12973436D02*
X7286730Y-12982960D01*
X7286730Y-12982960D02*
X7267682Y-12992484D01*
X7267682Y-12992484D02*
X7239110Y-12992484D01*
X7420063Y-12992484D02*
X7401015Y-12982960D01*
X7401015Y-12982960D02*
X7391491Y-12963912D01*
X7391491Y-12963912D02*
X7391491Y-12792484D01*
X7572444Y-12982960D02*
X7553396Y-12992484D01*
X7553396Y-12992484D02*
X7515301Y-12992484D01*
X7515301Y-12992484D02*
X7496253Y-12982960D01*
X7496253Y-12982960D02*
X7486730Y-12963912D01*
X7486730Y-12963912D02*
X7486730Y-12887722D01*
X7486730Y-12887722D02*
X7496253Y-12868674D01*
X7496253Y-12868674D02*
X7515301Y-12859150D01*
X7515301Y-12859150D02*
X7553396Y-12859150D01*
X7553396Y-12859150D02*
X7572444Y-12868674D01*
X7572444Y-12868674D02*
X7581968Y-12887722D01*
X7581968Y-12887722D02*
X7581968Y-12906769D01*
X7581968Y-12906769D02*
X7486730Y-12925817D01*
X7658158Y-12982960D02*
X7677206Y-12992484D01*
X7677206Y-12992484D02*
X7715301Y-12992484D01*
X7715301Y-12992484D02*
X7734349Y-12982960D01*
X7734349Y-12982960D02*
X7743872Y-12963912D01*
X7743872Y-12963912D02*
X7743872Y-12954388D01*
X7743872Y-12954388D02*
X7734349Y-12935341D01*
X7734349Y-12935341D02*
X7715301Y-12925817D01*
X7715301Y-12925817D02*
X7686730Y-12925817D01*
X7686730Y-12925817D02*
X7667682Y-12916293D01*
X7667682Y-12916293D02*
X7658158Y-12897246D01*
X7658158Y-12897246D02*
X7658158Y-12887722D01*
X7658158Y-12887722D02*
X7667682Y-12868674D01*
X7667682Y-12868674D02*
X7686730Y-12859150D01*
X7686730Y-12859150D02*
X7715301Y-12859150D01*
X7715301Y-12859150D02*
X7734349Y-12868674D01*
X7810539Y-13068674D02*
X7820063Y-13059150D01*
X7820063Y-13059150D02*
X7839111Y-13030579D01*
X7839111Y-13030579D02*
X7848634Y-13011531D01*
X7848634Y-13011531D02*
X7858158Y-12982960D01*
X7858158Y-12982960D02*
X7867682Y-12935341D01*
X7867682Y-12935341D02*
X7867682Y-12897246D01*
X7867682Y-12897246D02*
X7858158Y-12849627D01*
X7858158Y-12849627D02*
X7848634Y-12821055D01*
X7848634Y-12821055D02*
X7839111Y-12802008D01*
X7839111Y-12802008D02*
X7820063Y-12773436D01*
X7820063Y-12773436D02*
X7810539Y-12763912D01*
D10*
X2745000Y-13115000D02*
X2845000Y-13215000D01*
X2845000Y-13115000D02*
X2745000Y-13215000D01*
X2845000Y-13165000D02*
G75*
G03*
X2845000Y-13165000I-50000J0D01*
G01*
D11*
X3210539Y-13256484D02*
X3096253Y-13256484D01*
X3153396Y-13256484D02*
X3153396Y-13056484D01*
X3153396Y-13056484D02*
X3134348Y-13085055D01*
X3134348Y-13085055D02*
X3115301Y-13104103D01*
X3115301Y-13104103D02*
X3096253Y-13113627D01*
X3296253Y-13237436D02*
X3305777Y-13246960D01*
X3305777Y-13246960D02*
X3296253Y-13256484D01*
X3296253Y-13256484D02*
X3286729Y-13246960D01*
X3286729Y-13246960D02*
X3296253Y-13237436D01*
X3296253Y-13237436D02*
X3296253Y-13256484D01*
X3429586Y-13056484D02*
X3448634Y-13056484D01*
X3448634Y-13056484D02*
X3467682Y-13066008D01*
X3467682Y-13066008D02*
X3477205Y-13075531D01*
X3477205Y-13075531D02*
X3486729Y-13094579D01*
X3486729Y-13094579D02*
X3496253Y-13132674D01*
X3496253Y-13132674D02*
X3496253Y-13180293D01*
X3496253Y-13180293D02*
X3486729Y-13218388D01*
X3486729Y-13218388D02*
X3477205Y-13237436D01*
X3477205Y-13237436D02*
X3467682Y-13246960D01*
X3467682Y-13246960D02*
X3448634Y-13256484D01*
X3448634Y-13256484D02*
X3429586Y-13256484D01*
X3429586Y-13256484D02*
X3410539Y-13246960D01*
X3410539Y-13246960D02*
X3401015Y-13237436D01*
X3401015Y-13237436D02*
X3391491Y-13218388D01*
X3391491Y-13218388D02*
X3381967Y-13180293D01*
X3381967Y-13180293D02*
X3381967Y-13132674D01*
X3381967Y-13132674D02*
X3391491Y-13094579D01*
X3391491Y-13094579D02*
X3401015Y-13075531D01*
X3401015Y-13075531D02*
X3410539Y-13066008D01*
X3410539Y-13066008D02*
X3429586Y-13056484D01*
X3620062Y-13056484D02*
X3639110Y-13056484D01*
X3639110Y-13056484D02*
X3658158Y-13066008D01*
X3658158Y-13066008D02*
X3667682Y-13075531D01*
X3667682Y-13075531D02*
X3677205Y-13094579D01*
X3677205Y-13094579D02*
X3686729Y-13132674D01*
X3686729Y-13132674D02*
X3686729Y-13180293D01*
X3686729Y-13180293D02*
X3677205Y-13218388D01*
X3677205Y-13218388D02*
X3667682Y-13237436D01*
X3667682Y-13237436D02*
X3658158Y-13246960D01*
X3658158Y-13246960D02*
X3639110Y-13256484D01*
X3639110Y-13256484D02*
X3620062Y-13256484D01*
X3620062Y-13256484D02*
X3601015Y-13246960D01*
X3601015Y-13246960D02*
X3591491Y-13237436D01*
X3591491Y-13237436D02*
X3581967Y-13218388D01*
X3581967Y-13218388D02*
X3572443Y-13180293D01*
X3572443Y-13180293D02*
X3572443Y-13132674D01*
X3572443Y-13132674D02*
X3581967Y-13094579D01*
X3581967Y-13094579D02*
X3591491Y-13075531D01*
X3591491Y-13075531D02*
X3601015Y-13066008D01*
X3601015Y-13066008D02*
X3620062Y-13056484D01*
X3810539Y-13056484D02*
X3829586Y-13056484D01*
X3829586Y-13056484D02*
X3848634Y-13066008D01*
X3848634Y-13066008D02*
X3858158Y-13075531D01*
X3858158Y-13075531D02*
X3867682Y-13094579D01*
X3867682Y-13094579D02*
X3877205Y-13132674D01*
X3877205Y-13132674D02*
X3877205Y-13180293D01*
X3877205Y-13180293D02*
X3867682Y-13218388D01*
X3867682Y-13218388D02*
X3858158Y-13237436D01*
X3858158Y-13237436D02*
X3848634Y-13246960D01*
X3848634Y-13246960D02*
X3829586Y-13256484D01*
X3829586Y-13256484D02*
X3810539Y-13256484D01*
X3810539Y-13256484D02*
X3791491Y-13246960D01*
X3791491Y-13246960D02*
X3781967Y-13237436D01*
X3781967Y-13237436D02*
X3772443Y-13218388D01*
X3772443Y-13218388D02*
X3762920Y-13180293D01*
X3762920Y-13180293D02*
X3762920Y-13132674D01*
X3762920Y-13132674D02*
X3772443Y-13094579D01*
X3772443Y-13094579D02*
X3781967Y-13075531D01*
X3781967Y-13075531D02*
X3791491Y-13066008D01*
X3791491Y-13066008D02*
X3810539Y-13056484D01*
X3962920Y-13256484D02*
X3962920Y-13123150D01*
X3962920Y-13142198D02*
X3972443Y-13132674D01*
X3972443Y-13132674D02*
X3991491Y-13123150D01*
X3991491Y-13123150D02*
X4020063Y-13123150D01*
X4020063Y-13123150D02*
X4039110Y-13132674D01*
X4039110Y-13132674D02*
X4048634Y-13151722D01*
X4048634Y-13151722D02*
X4048634Y-13256484D01*
X4048634Y-13151722D02*
X4058158Y-13132674D01*
X4058158Y-13132674D02*
X4077205Y-13123150D01*
X4077205Y-13123150D02*
X4105777Y-13123150D01*
X4105777Y-13123150D02*
X4124824Y-13132674D01*
X4124824Y-13132674D02*
X4134348Y-13151722D01*
X4134348Y-13151722D02*
X4134348Y-13256484D01*
X4229586Y-13256484D02*
X4229586Y-13123150D01*
X4229586Y-13142198D02*
X4239110Y-13132674D01*
X4239110Y-13132674D02*
X4258158Y-13123150D01*
X4258158Y-13123150D02*
X4286729Y-13123150D01*
X4286729Y-13123150D02*
X4305777Y-13132674D01*
X4305777Y-13132674D02*
X4315301Y-13151722D01*
X4315301Y-13151722D02*
X4315301Y-13256484D01*
X4315301Y-13151722D02*
X4324825Y-13132674D01*
X4324825Y-13132674D02*
X4343872Y-13123150D01*
X4343872Y-13123150D02*
X4372444Y-13123150D01*
X4372444Y-13123150D02*
X4391491Y-13132674D01*
X4391491Y-13132674D02*
X4401015Y-13151722D01*
X4401015Y-13151722D02*
X4401015Y-13256484D01*
X4791491Y-13046960D02*
X4620063Y-13304103D01*
X5048634Y-13056484D02*
X5067682Y-13056484D01*
X5067682Y-13056484D02*
X5086729Y-13066008D01*
X5086729Y-13066008D02*
X5096253Y-13075531D01*
X5096253Y-13075531D02*
X5105777Y-13094579D01*
X5105777Y-13094579D02*
X5115301Y-13132674D01*
X5115301Y-13132674D02*
X5115301Y-13180293D01*
X5115301Y-13180293D02*
X5105777Y-13218388D01*
X5105777Y-13218388D02*
X5096253Y-13237436D01*
X5096253Y-13237436D02*
X5086729Y-13246960D01*
X5086729Y-13246960D02*
X5067682Y-13256484D01*
X5067682Y-13256484D02*
X5048634Y-13256484D01*
X5048634Y-13256484D02*
X5029587Y-13246960D01*
X5029587Y-13246960D02*
X5020063Y-13237436D01*
X5020063Y-13237436D02*
X5010539Y-13218388D01*
X5010539Y-13218388D02*
X5001015Y-13180293D01*
X5001015Y-13180293D02*
X5001015Y-13132674D01*
X5001015Y-13132674D02*
X5010539Y-13094579D01*
X5010539Y-13094579D02*
X5020063Y-13075531D01*
X5020063Y-13075531D02*
X5029587Y-13066008D01*
X5029587Y-13066008D02*
X5048634Y-13056484D01*
X5201015Y-13237436D02*
X5210539Y-13246960D01*
X5210539Y-13246960D02*
X5201015Y-13256484D01*
X5201015Y-13256484D02*
X5191491Y-13246960D01*
X5191491Y-13246960D02*
X5201015Y-13237436D01*
X5201015Y-13237436D02*
X5201015Y-13256484D01*
X5334348Y-13056484D02*
X5353396Y-13056484D01*
X5353396Y-13056484D02*
X5372444Y-13066008D01*
X5372444Y-13066008D02*
X5381968Y-13075531D01*
X5381968Y-13075531D02*
X5391491Y-13094579D01*
X5391491Y-13094579D02*
X5401015Y-13132674D01*
X5401015Y-13132674D02*
X5401015Y-13180293D01*
X5401015Y-13180293D02*
X5391491Y-13218388D01*
X5391491Y-13218388D02*
X5381968Y-13237436D01*
X5381968Y-13237436D02*
X5372444Y-13246960D01*
X5372444Y-13246960D02*
X5353396Y-13256484D01*
X5353396Y-13256484D02*
X5334348Y-13256484D01*
X5334348Y-13256484D02*
X5315301Y-13246960D01*
X5315301Y-13246960D02*
X5305777Y-13237436D01*
X5305777Y-13237436D02*
X5296253Y-13218388D01*
X5296253Y-13218388D02*
X5286729Y-13180293D01*
X5286729Y-13180293D02*
X5286729Y-13132674D01*
X5286729Y-13132674D02*
X5296253Y-13094579D01*
X5296253Y-13094579D02*
X5305777Y-13075531D01*
X5305777Y-13075531D02*
X5315301Y-13066008D01*
X5315301Y-13066008D02*
X5334348Y-13056484D01*
X5467682Y-13056484D02*
X5591491Y-13056484D01*
X5591491Y-13056484D02*
X5524825Y-13132674D01*
X5524825Y-13132674D02*
X5553396Y-13132674D01*
X5553396Y-13132674D02*
X5572444Y-13142198D01*
X5572444Y-13142198D02*
X5581968Y-13151722D01*
X5581968Y-13151722D02*
X5591491Y-13170769D01*
X5591491Y-13170769D02*
X5591491Y-13218388D01*
X5591491Y-13218388D02*
X5581968Y-13237436D01*
X5581968Y-13237436D02*
X5572444Y-13246960D01*
X5572444Y-13246960D02*
X5553396Y-13256484D01*
X5553396Y-13256484D02*
X5496253Y-13256484D01*
X5496253Y-13256484D02*
X5477206Y-13246960D01*
X5477206Y-13246960D02*
X5467682Y-13237436D01*
X5686729Y-13256484D02*
X5724825Y-13256484D01*
X5724825Y-13256484D02*
X5743872Y-13246960D01*
X5743872Y-13246960D02*
X5753396Y-13237436D01*
X5753396Y-13237436D02*
X5772444Y-13208865D01*
X5772444Y-13208865D02*
X5781967Y-13170769D01*
X5781967Y-13170769D02*
X5781967Y-13094579D01*
X5781967Y-13094579D02*
X5772444Y-13075531D01*
X5772444Y-13075531D02*
X5762920Y-13066008D01*
X5762920Y-13066008D02*
X5743872Y-13056484D01*
X5743872Y-13056484D02*
X5705777Y-13056484D01*
X5705777Y-13056484D02*
X5686729Y-13066008D01*
X5686729Y-13066008D02*
X5677206Y-13075531D01*
X5677206Y-13075531D02*
X5667682Y-13094579D01*
X5667682Y-13094579D02*
X5667682Y-13142198D01*
X5667682Y-13142198D02*
X5677206Y-13161246D01*
X5677206Y-13161246D02*
X5686729Y-13170769D01*
X5686729Y-13170769D02*
X5705777Y-13180293D01*
X5705777Y-13180293D02*
X5743872Y-13180293D01*
X5743872Y-13180293D02*
X5762920Y-13170769D01*
X5762920Y-13170769D02*
X5772444Y-13161246D01*
X5772444Y-13161246D02*
X5781967Y-13142198D01*
X5953396Y-13123150D02*
X5953396Y-13256484D01*
X5905777Y-13046960D02*
X5858158Y-13189817D01*
X5858158Y-13189817D02*
X5981967Y-13189817D01*
X6048634Y-13056484D02*
X6048634Y-13094579D01*
X6124825Y-13056484D02*
X6124825Y-13094579D01*
X6420063Y-13332674D02*
X6410539Y-13323150D01*
X6410539Y-13323150D02*
X6391491Y-13294579D01*
X6391491Y-13294579D02*
X6381968Y-13275531D01*
X6381968Y-13275531D02*
X6372444Y-13246960D01*
X6372444Y-13246960D02*
X6362920Y-13199341D01*
X6362920Y-13199341D02*
X6362920Y-13161246D01*
X6362920Y-13161246D02*
X6372444Y-13113627D01*
X6372444Y-13113627D02*
X6381968Y-13085055D01*
X6381968Y-13085055D02*
X6391491Y-13066008D01*
X6391491Y-13066008D02*
X6410539Y-13037436D01*
X6410539Y-13037436D02*
X6420063Y-13027912D01*
X6486729Y-13075531D02*
X6496253Y-13066008D01*
X6496253Y-13066008D02*
X6515301Y-13056484D01*
X6515301Y-13056484D02*
X6562920Y-13056484D01*
X6562920Y-13056484D02*
X6581968Y-13066008D01*
X6581968Y-13066008D02*
X6591491Y-13075531D01*
X6591491Y-13075531D02*
X6601015Y-13094579D01*
X6601015Y-13094579D02*
X6601015Y-13113627D01*
X6601015Y-13113627D02*
X6591491Y-13142198D01*
X6591491Y-13142198D02*
X6477206Y-13256484D01*
X6477206Y-13256484D02*
X6601015Y-13256484D01*
X6715301Y-13142198D02*
X6696253Y-13132674D01*
X6696253Y-13132674D02*
X6686729Y-13123150D01*
X6686729Y-13123150D02*
X6677206Y-13104103D01*
X6677206Y-13104103D02*
X6677206Y-13094579D01*
X6677206Y-13094579D02*
X6686729Y-13075531D01*
X6686729Y-13075531D02*
X6696253Y-13066008D01*
X6696253Y-13066008D02*
X6715301Y-13056484D01*
X6715301Y-13056484D02*
X6753396Y-13056484D01*
X6753396Y-13056484D02*
X6772444Y-13066008D01*
X6772444Y-13066008D02*
X6781968Y-13075531D01*
X6781968Y-13075531D02*
X6791491Y-13094579D01*
X6791491Y-13094579D02*
X6791491Y-13104103D01*
X6791491Y-13104103D02*
X6781968Y-13123150D01*
X6781968Y-13123150D02*
X6772444Y-13132674D01*
X6772444Y-13132674D02*
X6753396Y-13142198D01*
X6753396Y-13142198D02*
X6715301Y-13142198D01*
X6715301Y-13142198D02*
X6696253Y-13151722D01*
X6696253Y-13151722D02*
X6686729Y-13161246D01*
X6686729Y-13161246D02*
X6677206Y-13180293D01*
X6677206Y-13180293D02*
X6677206Y-13218388D01*
X6677206Y-13218388D02*
X6686729Y-13237436D01*
X6686729Y-13237436D02*
X6696253Y-13246960D01*
X6696253Y-13246960D02*
X6715301Y-13256484D01*
X6715301Y-13256484D02*
X6753396Y-13256484D01*
X6753396Y-13256484D02*
X6772444Y-13246960D01*
X6772444Y-13246960D02*
X6781968Y-13237436D01*
X6781968Y-13237436D02*
X6791491Y-13218388D01*
X6791491Y-13218388D02*
X6791491Y-13180293D01*
X6791491Y-13180293D02*
X6781968Y-13161246D01*
X6781968Y-13161246D02*
X6772444Y-13151722D01*
X6772444Y-13151722D02*
X6753396Y-13142198D01*
X7029587Y-13256484D02*
X7029587Y-13056484D01*
X7115301Y-13256484D02*
X7115301Y-13151722D01*
X7115301Y-13151722D02*
X7105777Y-13132674D01*
X7105777Y-13132674D02*
X7086730Y-13123150D01*
X7086730Y-13123150D02*
X7058158Y-13123150D01*
X7058158Y-13123150D02*
X7039110Y-13132674D01*
X7039110Y-13132674D02*
X7029587Y-13142198D01*
X7239110Y-13256484D02*
X7220063Y-13246960D01*
X7220063Y-13246960D02*
X7210539Y-13237436D01*
X7210539Y-13237436D02*
X7201015Y-13218388D01*
X7201015Y-13218388D02*
X7201015Y-13161246D01*
X7201015Y-13161246D02*
X7210539Y-13142198D01*
X7210539Y-13142198D02*
X7220063Y-13132674D01*
X7220063Y-13132674D02*
X7239110Y-13123150D01*
X7239110Y-13123150D02*
X7267682Y-13123150D01*
X7267682Y-13123150D02*
X7286730Y-13132674D01*
X7286730Y-13132674D02*
X7296253Y-13142198D01*
X7296253Y-13142198D02*
X7305777Y-13161246D01*
X7305777Y-13161246D02*
X7305777Y-13218388D01*
X7305777Y-13218388D02*
X7296253Y-13237436D01*
X7296253Y-13237436D02*
X7286730Y-13246960D01*
X7286730Y-13246960D02*
X7267682Y-13256484D01*
X7267682Y-13256484D02*
X7239110Y-13256484D01*
X7420063Y-13256484D02*
X7401015Y-13246960D01*
X7401015Y-13246960D02*
X7391491Y-13227912D01*
X7391491Y-13227912D02*
X7391491Y-13056484D01*
X7572444Y-13246960D02*
X7553396Y-13256484D01*
X7553396Y-13256484D02*
X7515301Y-13256484D01*
X7515301Y-13256484D02*
X7496253Y-13246960D01*
X7496253Y-13246960D02*
X7486730Y-13227912D01*
X7486730Y-13227912D02*
X7486730Y-13151722D01*
X7486730Y-13151722D02*
X7496253Y-13132674D01*
X7496253Y-13132674D02*
X7515301Y-13123150D01*
X7515301Y-13123150D02*
X7553396Y-13123150D01*
X7553396Y-13123150D02*
X7572444Y-13132674D01*
X7572444Y-13132674D02*
X7581968Y-13151722D01*
X7581968Y-13151722D02*
X7581968Y-13170769D01*
X7581968Y-13170769D02*
X7486730Y-13189817D01*
X7658158Y-13246960D02*
X7677206Y-13256484D01*
X7677206Y-13256484D02*
X7715301Y-13256484D01*
X7715301Y-13256484D02*
X7734349Y-13246960D01*
X7734349Y-13246960D02*
X7743872Y-13227912D01*
X7743872Y-13227912D02*
X7743872Y-13218388D01*
X7743872Y-13218388D02*
X7734349Y-13199341D01*
X7734349Y-13199341D02*
X7715301Y-13189817D01*
X7715301Y-13189817D02*
X7686730Y-13189817D01*
X7686730Y-13189817D02*
X7667682Y-13180293D01*
X7667682Y-13180293D02*
X7658158Y-13161246D01*
X7658158Y-13161246D02*
X7658158Y-13151722D01*
X7658158Y-13151722D02*
X7667682Y-13132674D01*
X7667682Y-13132674D02*
X7686730Y-13123150D01*
X7686730Y-13123150D02*
X7715301Y-13123150D01*
X7715301Y-13123150D02*
X7734349Y-13132674D01*
X7810539Y-13332674D02*
X7820063Y-13323150D01*
X7820063Y-13323150D02*
X7839111Y-13294579D01*
X7839111Y-13294579D02*
X7848634Y-13275531D01*
X7848634Y-13275531D02*
X7858158Y-13246960D01*
X7858158Y-13246960D02*
X7867682Y-13199341D01*
X7867682Y-13199341D02*
X7867682Y-13161246D01*
X7867682Y-13161246D02*
X7858158Y-13113627D01*
X7858158Y-13113627D02*
X7848634Y-13085055D01*
X7848634Y-13085055D02*
X7839111Y-13066008D01*
X7839111Y-13066008D02*
X7820063Y-13037436D01*
X7820063Y-13037436D02*
X7810539Y-13027912D01*
D16*
X2735000Y-13374000D02*
X2845000Y-13484000D01*
X2845000Y-13374000D02*
X2735000Y-13484000D01*
X2790000Y-13374000D02*
X2790000Y-13484000D01*
X2735000Y-13429000D02*
X2845000Y-13429000D01*
D11*
X3210539Y-13520484D02*
X3096253Y-13520484D01*
X3153396Y-13520484D02*
X3153396Y-13320484D01*
X3153396Y-13320484D02*
X3134348Y-13349055D01*
X3134348Y-13349055D02*
X3115301Y-13368103D01*
X3115301Y-13368103D02*
X3096253Y-13377627D01*
X3296253Y-13501436D02*
X3305777Y-13510960D01*
X3305777Y-13510960D02*
X3296253Y-13520484D01*
X3296253Y-13520484D02*
X3286729Y-13510960D01*
X3286729Y-13510960D02*
X3296253Y-13501436D01*
X3296253Y-13501436D02*
X3296253Y-13520484D01*
X3496253Y-13520484D02*
X3381967Y-13520484D01*
X3439110Y-13520484D02*
X3439110Y-13320484D01*
X3439110Y-13320484D02*
X3420062Y-13349055D01*
X3420062Y-13349055D02*
X3401015Y-13368103D01*
X3401015Y-13368103D02*
X3381967Y-13377627D01*
X3620062Y-13320484D02*
X3639110Y-13320484D01*
X3639110Y-13320484D02*
X3658158Y-13330008D01*
X3658158Y-13330008D02*
X3667682Y-13339531D01*
X3667682Y-13339531D02*
X3677205Y-13358579D01*
X3677205Y-13358579D02*
X3686729Y-13396674D01*
X3686729Y-13396674D02*
X3686729Y-13444293D01*
X3686729Y-13444293D02*
X3677205Y-13482388D01*
X3677205Y-13482388D02*
X3667682Y-13501436D01*
X3667682Y-13501436D02*
X3658158Y-13510960D01*
X3658158Y-13510960D02*
X3639110Y-13520484D01*
X3639110Y-13520484D02*
X3620062Y-13520484D01*
X3620062Y-13520484D02*
X3601015Y-13510960D01*
X3601015Y-13510960D02*
X3591491Y-13501436D01*
X3591491Y-13501436D02*
X3581967Y-13482388D01*
X3581967Y-13482388D02*
X3572443Y-13444293D01*
X3572443Y-13444293D02*
X3572443Y-13396674D01*
X3572443Y-13396674D02*
X3581967Y-13358579D01*
X3581967Y-13358579D02*
X3591491Y-13339531D01*
X3591491Y-13339531D02*
X3601015Y-13330008D01*
X3601015Y-13330008D02*
X3620062Y-13320484D01*
X3810539Y-13320484D02*
X3829586Y-13320484D01*
X3829586Y-13320484D02*
X3848634Y-13330008D01*
X3848634Y-13330008D02*
X3858158Y-13339531D01*
X3858158Y-13339531D02*
X3867682Y-13358579D01*
X3867682Y-13358579D02*
X3877205Y-13396674D01*
X3877205Y-13396674D02*
X3877205Y-13444293D01*
X3877205Y-13444293D02*
X3867682Y-13482388D01*
X3867682Y-13482388D02*
X3858158Y-13501436D01*
X3858158Y-13501436D02*
X3848634Y-13510960D01*
X3848634Y-13510960D02*
X3829586Y-13520484D01*
X3829586Y-13520484D02*
X3810539Y-13520484D01*
X3810539Y-13520484D02*
X3791491Y-13510960D01*
X3791491Y-13510960D02*
X3781967Y-13501436D01*
X3781967Y-13501436D02*
X3772443Y-13482388D01*
X3772443Y-13482388D02*
X3762920Y-13444293D01*
X3762920Y-13444293D02*
X3762920Y-13396674D01*
X3762920Y-13396674D02*
X3772443Y-13358579D01*
X3772443Y-13358579D02*
X3781967Y-13339531D01*
X3781967Y-13339531D02*
X3791491Y-13330008D01*
X3791491Y-13330008D02*
X3810539Y-13320484D01*
X3962920Y-13520484D02*
X3962920Y-13387150D01*
X3962920Y-13406198D02*
X3972443Y-13396674D01*
X3972443Y-13396674D02*
X3991491Y-13387150D01*
X3991491Y-13387150D02*
X4020063Y-13387150D01*
X4020063Y-13387150D02*
X4039110Y-13396674D01*
X4039110Y-13396674D02*
X4048634Y-13415722D01*
X4048634Y-13415722D02*
X4048634Y-13520484D01*
X4048634Y-13415722D02*
X4058158Y-13396674D01*
X4058158Y-13396674D02*
X4077205Y-13387150D01*
X4077205Y-13387150D02*
X4105777Y-13387150D01*
X4105777Y-13387150D02*
X4124824Y-13396674D01*
X4124824Y-13396674D02*
X4134348Y-13415722D01*
X4134348Y-13415722D02*
X4134348Y-13520484D01*
X4229586Y-13520484D02*
X4229586Y-13387150D01*
X4229586Y-13406198D02*
X4239110Y-13396674D01*
X4239110Y-13396674D02*
X4258158Y-13387150D01*
X4258158Y-13387150D02*
X4286729Y-13387150D01*
X4286729Y-13387150D02*
X4305777Y-13396674D01*
X4305777Y-13396674D02*
X4315301Y-13415722D01*
X4315301Y-13415722D02*
X4315301Y-13520484D01*
X4315301Y-13415722D02*
X4324825Y-13396674D01*
X4324825Y-13396674D02*
X4343872Y-13387150D01*
X4343872Y-13387150D02*
X4372444Y-13387150D01*
X4372444Y-13387150D02*
X4391491Y-13396674D01*
X4391491Y-13396674D02*
X4401015Y-13415722D01*
X4401015Y-13415722D02*
X4401015Y-13520484D01*
X4791491Y-13310960D02*
X4620063Y-13568103D01*
X5048634Y-13320484D02*
X5067682Y-13320484D01*
X5067682Y-13320484D02*
X5086729Y-13330008D01*
X5086729Y-13330008D02*
X5096253Y-13339531D01*
X5096253Y-13339531D02*
X5105777Y-13358579D01*
X5105777Y-13358579D02*
X5115301Y-13396674D01*
X5115301Y-13396674D02*
X5115301Y-13444293D01*
X5115301Y-13444293D02*
X5105777Y-13482388D01*
X5105777Y-13482388D02*
X5096253Y-13501436D01*
X5096253Y-13501436D02*
X5086729Y-13510960D01*
X5086729Y-13510960D02*
X5067682Y-13520484D01*
X5067682Y-13520484D02*
X5048634Y-13520484D01*
X5048634Y-13520484D02*
X5029587Y-13510960D01*
X5029587Y-13510960D02*
X5020063Y-13501436D01*
X5020063Y-13501436D02*
X5010539Y-13482388D01*
X5010539Y-13482388D02*
X5001015Y-13444293D01*
X5001015Y-13444293D02*
X5001015Y-13396674D01*
X5001015Y-13396674D02*
X5010539Y-13358579D01*
X5010539Y-13358579D02*
X5020063Y-13339531D01*
X5020063Y-13339531D02*
X5029587Y-13330008D01*
X5029587Y-13330008D02*
X5048634Y-13320484D01*
X5201015Y-13501436D02*
X5210539Y-13510960D01*
X5210539Y-13510960D02*
X5201015Y-13520484D01*
X5201015Y-13520484D02*
X5191491Y-13510960D01*
X5191491Y-13510960D02*
X5201015Y-13501436D01*
X5201015Y-13501436D02*
X5201015Y-13520484D01*
X5334348Y-13320484D02*
X5353396Y-13320484D01*
X5353396Y-13320484D02*
X5372444Y-13330008D01*
X5372444Y-13330008D02*
X5381968Y-13339531D01*
X5381968Y-13339531D02*
X5391491Y-13358579D01*
X5391491Y-13358579D02*
X5401015Y-13396674D01*
X5401015Y-13396674D02*
X5401015Y-13444293D01*
X5401015Y-13444293D02*
X5391491Y-13482388D01*
X5391491Y-13482388D02*
X5381968Y-13501436D01*
X5381968Y-13501436D02*
X5372444Y-13510960D01*
X5372444Y-13510960D02*
X5353396Y-13520484D01*
X5353396Y-13520484D02*
X5334348Y-13520484D01*
X5334348Y-13520484D02*
X5315301Y-13510960D01*
X5315301Y-13510960D02*
X5305777Y-13501436D01*
X5305777Y-13501436D02*
X5296253Y-13482388D01*
X5296253Y-13482388D02*
X5286729Y-13444293D01*
X5286729Y-13444293D02*
X5286729Y-13396674D01*
X5286729Y-13396674D02*
X5296253Y-13358579D01*
X5296253Y-13358579D02*
X5305777Y-13339531D01*
X5305777Y-13339531D02*
X5315301Y-13330008D01*
X5315301Y-13330008D02*
X5334348Y-13320484D01*
X5572444Y-13387150D02*
X5572444Y-13520484D01*
X5524825Y-13310960D02*
X5477206Y-13453817D01*
X5477206Y-13453817D02*
X5601015Y-13453817D01*
X5658158Y-13320484D02*
X5781967Y-13320484D01*
X5781967Y-13320484D02*
X5715301Y-13396674D01*
X5715301Y-13396674D02*
X5743872Y-13396674D01*
X5743872Y-13396674D02*
X5762920Y-13406198D01*
X5762920Y-13406198D02*
X5772444Y-13415722D01*
X5772444Y-13415722D02*
X5781967Y-13434769D01*
X5781967Y-13434769D02*
X5781967Y-13482388D01*
X5781967Y-13482388D02*
X5772444Y-13501436D01*
X5772444Y-13501436D02*
X5762920Y-13510960D01*
X5762920Y-13510960D02*
X5743872Y-13520484D01*
X5743872Y-13520484D02*
X5686729Y-13520484D01*
X5686729Y-13520484D02*
X5667682Y-13510960D01*
X5667682Y-13510960D02*
X5658158Y-13501436D01*
X5848634Y-13320484D02*
X5972444Y-13320484D01*
X5972444Y-13320484D02*
X5905777Y-13396674D01*
X5905777Y-13396674D02*
X5934348Y-13396674D01*
X5934348Y-13396674D02*
X5953396Y-13406198D01*
X5953396Y-13406198D02*
X5962920Y-13415722D01*
X5962920Y-13415722D02*
X5972444Y-13434769D01*
X5972444Y-13434769D02*
X5972444Y-13482388D01*
X5972444Y-13482388D02*
X5962920Y-13501436D01*
X5962920Y-13501436D02*
X5953396Y-13510960D01*
X5953396Y-13510960D02*
X5934348Y-13520484D01*
X5934348Y-13520484D02*
X5877206Y-13520484D01*
X5877206Y-13520484D02*
X5858158Y-13510960D01*
X5858158Y-13510960D02*
X5848634Y-13501436D01*
X6048634Y-13320484D02*
X6048634Y-13358579D01*
X6124825Y-13320484D02*
X6124825Y-13358579D01*
X6420063Y-13596674D02*
X6410539Y-13587150D01*
X6410539Y-13587150D02*
X6391491Y-13558579D01*
X6391491Y-13558579D02*
X6381968Y-13539531D01*
X6381968Y-13539531D02*
X6372444Y-13510960D01*
X6372444Y-13510960D02*
X6362920Y-13463341D01*
X6362920Y-13463341D02*
X6362920Y-13425246D01*
X6362920Y-13425246D02*
X6372444Y-13377627D01*
X6372444Y-13377627D02*
X6381968Y-13349055D01*
X6381968Y-13349055D02*
X6391491Y-13330008D01*
X6391491Y-13330008D02*
X6410539Y-13301436D01*
X6410539Y-13301436D02*
X6420063Y-13291912D01*
X6581968Y-13387150D02*
X6581968Y-13520484D01*
X6534348Y-13310960D02*
X6486729Y-13453817D01*
X6486729Y-13453817D02*
X6610539Y-13453817D01*
X6839110Y-13520484D02*
X6839110Y-13320484D01*
X6924825Y-13520484D02*
X6924825Y-13415722D01*
X6924825Y-13415722D02*
X6915301Y-13396674D01*
X6915301Y-13396674D02*
X6896253Y-13387150D01*
X6896253Y-13387150D02*
X6867682Y-13387150D01*
X6867682Y-13387150D02*
X6848634Y-13396674D01*
X6848634Y-13396674D02*
X6839110Y-13406198D01*
X7048634Y-13520484D02*
X7029587Y-13510960D01*
X7029587Y-13510960D02*
X7020063Y-13501436D01*
X7020063Y-13501436D02*
X7010539Y-13482388D01*
X7010539Y-13482388D02*
X7010539Y-13425246D01*
X7010539Y-13425246D02*
X7020063Y-13406198D01*
X7020063Y-13406198D02*
X7029587Y-13396674D01*
X7029587Y-13396674D02*
X7048634Y-13387150D01*
X7048634Y-13387150D02*
X7077206Y-13387150D01*
X7077206Y-13387150D02*
X7096253Y-13396674D01*
X7096253Y-13396674D02*
X7105777Y-13406198D01*
X7105777Y-13406198D02*
X7115301Y-13425246D01*
X7115301Y-13425246D02*
X7115301Y-13482388D01*
X7115301Y-13482388D02*
X7105777Y-13501436D01*
X7105777Y-13501436D02*
X7096253Y-13510960D01*
X7096253Y-13510960D02*
X7077206Y-13520484D01*
X7077206Y-13520484D02*
X7048634Y-13520484D01*
X7229587Y-13520484D02*
X7210539Y-13510960D01*
X7210539Y-13510960D02*
X7201015Y-13491912D01*
X7201015Y-13491912D02*
X7201015Y-13320484D01*
X7381968Y-13510960D02*
X7362920Y-13520484D01*
X7362920Y-13520484D02*
X7324825Y-13520484D01*
X7324825Y-13520484D02*
X7305777Y-13510960D01*
X7305777Y-13510960D02*
X7296253Y-13491912D01*
X7296253Y-13491912D02*
X7296253Y-13415722D01*
X7296253Y-13415722D02*
X7305777Y-13396674D01*
X7305777Y-13396674D02*
X7324825Y-13387150D01*
X7324825Y-13387150D02*
X7362920Y-13387150D01*
X7362920Y-13387150D02*
X7381968Y-13396674D01*
X7381968Y-13396674D02*
X7391491Y-13415722D01*
X7391491Y-13415722D02*
X7391491Y-13434769D01*
X7391491Y-13434769D02*
X7296253Y-13453817D01*
X7467682Y-13510960D02*
X7486730Y-13520484D01*
X7486730Y-13520484D02*
X7524825Y-13520484D01*
X7524825Y-13520484D02*
X7543872Y-13510960D01*
X7543872Y-13510960D02*
X7553396Y-13491912D01*
X7553396Y-13491912D02*
X7553396Y-13482388D01*
X7553396Y-13482388D02*
X7543872Y-13463341D01*
X7543872Y-13463341D02*
X7524825Y-13453817D01*
X7524825Y-13453817D02*
X7496253Y-13453817D01*
X7496253Y-13453817D02*
X7477206Y-13444293D01*
X7477206Y-13444293D02*
X7467682Y-13425246D01*
X7467682Y-13425246D02*
X7467682Y-13415722D01*
X7467682Y-13415722D02*
X7477206Y-13396674D01*
X7477206Y-13396674D02*
X7496253Y-13387150D01*
X7496253Y-13387150D02*
X7524825Y-13387150D01*
X7524825Y-13387150D02*
X7543872Y-13396674D01*
X7620063Y-13596674D02*
X7629587Y-13587150D01*
X7629587Y-13587150D02*
X7648634Y-13558579D01*
X7648634Y-13558579D02*
X7658158Y-13539531D01*
X7658158Y-13539531D02*
X7667682Y-13510960D01*
X7667682Y-13510960D02*
X7677206Y-13463341D01*
X7677206Y-13463341D02*
X7677206Y-13425246D01*
X7677206Y-13425246D02*
X7667682Y-13377627D01*
X7667682Y-13377627D02*
X7658158Y-13349055D01*
X7658158Y-13349055D02*
X7648634Y-13330008D01*
X7648634Y-13330008D02*
X7629587Y-13301436D01*
X7629587Y-13301436D02*
X7620063Y-13291912D01*
D17*
X2693000Y-13617000D02*
X2845000Y-13769000D01*
X2845000Y-13617000D02*
X2693000Y-13769000D01*
X2822741Y-13746741D02*
X2822741Y-13639259D01*
X2715259Y-13639259D01*
X2715259Y-13746741D01*
X2822741Y-13746741D01*
D11*
X3210539Y-13784484D02*
X3096253Y-13784484D01*
X3153396Y-13784484D02*
X3153396Y-13584484D01*
X3153396Y-13584484D02*
X3134348Y-13613055D01*
X3134348Y-13613055D02*
X3115301Y-13632103D01*
X3115301Y-13632103D02*
X3096253Y-13641627D01*
X3296253Y-13765436D02*
X3305777Y-13774960D01*
X3305777Y-13774960D02*
X3296253Y-13784484D01*
X3296253Y-13784484D02*
X3286729Y-13774960D01*
X3286729Y-13774960D02*
X3296253Y-13765436D01*
X3296253Y-13765436D02*
X3296253Y-13784484D01*
X3486729Y-13584484D02*
X3391491Y-13584484D01*
X3391491Y-13584484D02*
X3381967Y-13679722D01*
X3381967Y-13679722D02*
X3391491Y-13670198D01*
X3391491Y-13670198D02*
X3410539Y-13660674D01*
X3410539Y-13660674D02*
X3458158Y-13660674D01*
X3458158Y-13660674D02*
X3477205Y-13670198D01*
X3477205Y-13670198D02*
X3486729Y-13679722D01*
X3486729Y-13679722D02*
X3496253Y-13698769D01*
X3496253Y-13698769D02*
X3496253Y-13746388D01*
X3496253Y-13746388D02*
X3486729Y-13765436D01*
X3486729Y-13765436D02*
X3477205Y-13774960D01*
X3477205Y-13774960D02*
X3458158Y-13784484D01*
X3458158Y-13784484D02*
X3410539Y-13784484D01*
X3410539Y-13784484D02*
X3391491Y-13774960D01*
X3391491Y-13774960D02*
X3381967Y-13765436D01*
X3572443Y-13603531D02*
X3581967Y-13594008D01*
X3581967Y-13594008D02*
X3601015Y-13584484D01*
X3601015Y-13584484D02*
X3648634Y-13584484D01*
X3648634Y-13584484D02*
X3667682Y-13594008D01*
X3667682Y-13594008D02*
X3677205Y-13603531D01*
X3677205Y-13603531D02*
X3686729Y-13622579D01*
X3686729Y-13622579D02*
X3686729Y-13641627D01*
X3686729Y-13641627D02*
X3677205Y-13670198D01*
X3677205Y-13670198D02*
X3562920Y-13784484D01*
X3562920Y-13784484D02*
X3686729Y-13784484D01*
X3810539Y-13584484D02*
X3829586Y-13584484D01*
X3829586Y-13584484D02*
X3848634Y-13594008D01*
X3848634Y-13594008D02*
X3858158Y-13603531D01*
X3858158Y-13603531D02*
X3867682Y-13622579D01*
X3867682Y-13622579D02*
X3877205Y-13660674D01*
X3877205Y-13660674D02*
X3877205Y-13708293D01*
X3877205Y-13708293D02*
X3867682Y-13746388D01*
X3867682Y-13746388D02*
X3858158Y-13765436D01*
X3858158Y-13765436D02*
X3848634Y-13774960D01*
X3848634Y-13774960D02*
X3829586Y-13784484D01*
X3829586Y-13784484D02*
X3810539Y-13784484D01*
X3810539Y-13784484D02*
X3791491Y-13774960D01*
X3791491Y-13774960D02*
X3781967Y-13765436D01*
X3781967Y-13765436D02*
X3772443Y-13746388D01*
X3772443Y-13746388D02*
X3762920Y-13708293D01*
X3762920Y-13708293D02*
X3762920Y-13660674D01*
X3762920Y-13660674D02*
X3772443Y-13622579D01*
X3772443Y-13622579D02*
X3781967Y-13603531D01*
X3781967Y-13603531D02*
X3791491Y-13594008D01*
X3791491Y-13594008D02*
X3810539Y-13584484D01*
X3962920Y-13784484D02*
X3962920Y-13651150D01*
X3962920Y-13670198D02*
X3972443Y-13660674D01*
X3972443Y-13660674D02*
X3991491Y-13651150D01*
X3991491Y-13651150D02*
X4020063Y-13651150D01*
X4020063Y-13651150D02*
X4039110Y-13660674D01*
X4039110Y-13660674D02*
X4048634Y-13679722D01*
X4048634Y-13679722D02*
X4048634Y-13784484D01*
X4048634Y-13679722D02*
X4058158Y-13660674D01*
X4058158Y-13660674D02*
X4077205Y-13651150D01*
X4077205Y-13651150D02*
X4105777Y-13651150D01*
X4105777Y-13651150D02*
X4124824Y-13660674D01*
X4124824Y-13660674D02*
X4134348Y-13679722D01*
X4134348Y-13679722D02*
X4134348Y-13784484D01*
X4229586Y-13784484D02*
X4229586Y-13651150D01*
X4229586Y-13670198D02*
X4239110Y-13660674D01*
X4239110Y-13660674D02*
X4258158Y-13651150D01*
X4258158Y-13651150D02*
X4286729Y-13651150D01*
X4286729Y-13651150D02*
X4305777Y-13660674D01*
X4305777Y-13660674D02*
X4315301Y-13679722D01*
X4315301Y-13679722D02*
X4315301Y-13784484D01*
X4315301Y-13679722D02*
X4324825Y-13660674D01*
X4324825Y-13660674D02*
X4343872Y-13651150D01*
X4343872Y-13651150D02*
X4372444Y-13651150D01*
X4372444Y-13651150D02*
X4391491Y-13660674D01*
X4391491Y-13660674D02*
X4401015Y-13679722D01*
X4401015Y-13679722D02*
X4401015Y-13784484D01*
X4791491Y-13574960D02*
X4620063Y-13832103D01*
X5048634Y-13584484D02*
X5067682Y-13584484D01*
X5067682Y-13584484D02*
X5086729Y-13594008D01*
X5086729Y-13594008D02*
X5096253Y-13603531D01*
X5096253Y-13603531D02*
X5105777Y-13622579D01*
X5105777Y-13622579D02*
X5115301Y-13660674D01*
X5115301Y-13660674D02*
X5115301Y-13708293D01*
X5115301Y-13708293D02*
X5105777Y-13746388D01*
X5105777Y-13746388D02*
X5096253Y-13765436D01*
X5096253Y-13765436D02*
X5086729Y-13774960D01*
X5086729Y-13774960D02*
X5067682Y-13784484D01*
X5067682Y-13784484D02*
X5048634Y-13784484D01*
X5048634Y-13784484D02*
X5029587Y-13774960D01*
X5029587Y-13774960D02*
X5020063Y-13765436D01*
X5020063Y-13765436D02*
X5010539Y-13746388D01*
X5010539Y-13746388D02*
X5001015Y-13708293D01*
X5001015Y-13708293D02*
X5001015Y-13660674D01*
X5001015Y-13660674D02*
X5010539Y-13622579D01*
X5010539Y-13622579D02*
X5020063Y-13603531D01*
X5020063Y-13603531D02*
X5029587Y-13594008D01*
X5029587Y-13594008D02*
X5048634Y-13584484D01*
X5201015Y-13765436D02*
X5210539Y-13774960D01*
X5210539Y-13774960D02*
X5201015Y-13784484D01*
X5201015Y-13784484D02*
X5191491Y-13774960D01*
X5191491Y-13774960D02*
X5201015Y-13765436D01*
X5201015Y-13765436D02*
X5201015Y-13784484D01*
X5334348Y-13584484D02*
X5353396Y-13584484D01*
X5353396Y-13584484D02*
X5372444Y-13594008D01*
X5372444Y-13594008D02*
X5381968Y-13603531D01*
X5381968Y-13603531D02*
X5391491Y-13622579D01*
X5391491Y-13622579D02*
X5401015Y-13660674D01*
X5401015Y-13660674D02*
X5401015Y-13708293D01*
X5401015Y-13708293D02*
X5391491Y-13746388D01*
X5391491Y-13746388D02*
X5381968Y-13765436D01*
X5381968Y-13765436D02*
X5372444Y-13774960D01*
X5372444Y-13774960D02*
X5353396Y-13784484D01*
X5353396Y-13784484D02*
X5334348Y-13784484D01*
X5334348Y-13784484D02*
X5315301Y-13774960D01*
X5315301Y-13774960D02*
X5305777Y-13765436D01*
X5305777Y-13765436D02*
X5296253Y-13746388D01*
X5296253Y-13746388D02*
X5286729Y-13708293D01*
X5286729Y-13708293D02*
X5286729Y-13660674D01*
X5286729Y-13660674D02*
X5296253Y-13622579D01*
X5296253Y-13622579D02*
X5305777Y-13603531D01*
X5305777Y-13603531D02*
X5315301Y-13594008D01*
X5315301Y-13594008D02*
X5334348Y-13584484D01*
X5581968Y-13584484D02*
X5486729Y-13584484D01*
X5486729Y-13584484D02*
X5477206Y-13679722D01*
X5477206Y-13679722D02*
X5486729Y-13670198D01*
X5486729Y-13670198D02*
X5505777Y-13660674D01*
X5505777Y-13660674D02*
X5553396Y-13660674D01*
X5553396Y-13660674D02*
X5572444Y-13670198D01*
X5572444Y-13670198D02*
X5581968Y-13679722D01*
X5581968Y-13679722D02*
X5591491Y-13698769D01*
X5591491Y-13698769D02*
X5591491Y-13746388D01*
X5591491Y-13746388D02*
X5581968Y-13765436D01*
X5581968Y-13765436D02*
X5572444Y-13774960D01*
X5572444Y-13774960D02*
X5553396Y-13784484D01*
X5553396Y-13784484D02*
X5505777Y-13784484D01*
X5505777Y-13784484D02*
X5486729Y-13774960D01*
X5486729Y-13774960D02*
X5477206Y-13765436D01*
X5686729Y-13784484D02*
X5724825Y-13784484D01*
X5724825Y-13784484D02*
X5743872Y-13774960D01*
X5743872Y-13774960D02*
X5753396Y-13765436D01*
X5753396Y-13765436D02*
X5772444Y-13736865D01*
X5772444Y-13736865D02*
X5781967Y-13698769D01*
X5781967Y-13698769D02*
X5781967Y-13622579D01*
X5781967Y-13622579D02*
X5772444Y-13603531D01*
X5772444Y-13603531D02*
X5762920Y-13594008D01*
X5762920Y-13594008D02*
X5743872Y-13584484D01*
X5743872Y-13584484D02*
X5705777Y-13584484D01*
X5705777Y-13584484D02*
X5686729Y-13594008D01*
X5686729Y-13594008D02*
X5677206Y-13603531D01*
X5677206Y-13603531D02*
X5667682Y-13622579D01*
X5667682Y-13622579D02*
X5667682Y-13670198D01*
X5667682Y-13670198D02*
X5677206Y-13689246D01*
X5677206Y-13689246D02*
X5686729Y-13698769D01*
X5686729Y-13698769D02*
X5705777Y-13708293D01*
X5705777Y-13708293D02*
X5743872Y-13708293D01*
X5743872Y-13708293D02*
X5762920Y-13698769D01*
X5762920Y-13698769D02*
X5772444Y-13689246D01*
X5772444Y-13689246D02*
X5781967Y-13670198D01*
X5896253Y-13670198D02*
X5877206Y-13660674D01*
X5877206Y-13660674D02*
X5867682Y-13651150D01*
X5867682Y-13651150D02*
X5858158Y-13632103D01*
X5858158Y-13632103D02*
X5858158Y-13622579D01*
X5858158Y-13622579D02*
X5867682Y-13603531D01*
X5867682Y-13603531D02*
X5877206Y-13594008D01*
X5877206Y-13594008D02*
X5896253Y-13584484D01*
X5896253Y-13584484D02*
X5934348Y-13584484D01*
X5934348Y-13584484D02*
X5953396Y-13594008D01*
X5953396Y-13594008D02*
X5962920Y-13603531D01*
X5962920Y-13603531D02*
X5972444Y-13622579D01*
X5972444Y-13622579D02*
X5972444Y-13632103D01*
X5972444Y-13632103D02*
X5962920Y-13651150D01*
X5962920Y-13651150D02*
X5953396Y-13660674D01*
X5953396Y-13660674D02*
X5934348Y-13670198D01*
X5934348Y-13670198D02*
X5896253Y-13670198D01*
X5896253Y-13670198D02*
X5877206Y-13679722D01*
X5877206Y-13679722D02*
X5867682Y-13689246D01*
X5867682Y-13689246D02*
X5858158Y-13708293D01*
X5858158Y-13708293D02*
X5858158Y-13746388D01*
X5858158Y-13746388D02*
X5867682Y-13765436D01*
X5867682Y-13765436D02*
X5877206Y-13774960D01*
X5877206Y-13774960D02*
X5896253Y-13784484D01*
X5896253Y-13784484D02*
X5934348Y-13784484D01*
X5934348Y-13784484D02*
X5953396Y-13774960D01*
X5953396Y-13774960D02*
X5962920Y-13765436D01*
X5962920Y-13765436D02*
X5972444Y-13746388D01*
X5972444Y-13746388D02*
X5972444Y-13708293D01*
X5972444Y-13708293D02*
X5962920Y-13689246D01*
X5962920Y-13689246D02*
X5953396Y-13679722D01*
X5953396Y-13679722D02*
X5934348Y-13670198D01*
X6048634Y-13584484D02*
X6048634Y-13622579D01*
X6124825Y-13584484D02*
X6124825Y-13622579D01*
X6420063Y-13860674D02*
X6410539Y-13851150D01*
X6410539Y-13851150D02*
X6391491Y-13822579D01*
X6391491Y-13822579D02*
X6381968Y-13803531D01*
X6381968Y-13803531D02*
X6372444Y-13774960D01*
X6372444Y-13774960D02*
X6362920Y-13727341D01*
X6362920Y-13727341D02*
X6362920Y-13689246D01*
X6362920Y-13689246D02*
X6372444Y-13641627D01*
X6372444Y-13641627D02*
X6381968Y-13613055D01*
X6381968Y-13613055D02*
X6391491Y-13594008D01*
X6391491Y-13594008D02*
X6410539Y-13565436D01*
X6410539Y-13565436D02*
X6420063Y-13555912D01*
X6601015Y-13784484D02*
X6486729Y-13784484D01*
X6543872Y-13784484D02*
X6543872Y-13584484D01*
X6543872Y-13584484D02*
X6524825Y-13613055D01*
X6524825Y-13613055D02*
X6505777Y-13632103D01*
X6505777Y-13632103D02*
X6486729Y-13641627D01*
X6791491Y-13784484D02*
X6677206Y-13784484D01*
X6734348Y-13784484D02*
X6734348Y-13584484D01*
X6734348Y-13584484D02*
X6715301Y-13613055D01*
X6715301Y-13613055D02*
X6696253Y-13632103D01*
X6696253Y-13632103D02*
X6677206Y-13641627D01*
X7029587Y-13784484D02*
X7029587Y-13584484D01*
X7115301Y-13784484D02*
X7115301Y-13679722D01*
X7115301Y-13679722D02*
X7105777Y-13660674D01*
X7105777Y-13660674D02*
X7086730Y-13651150D01*
X7086730Y-13651150D02*
X7058158Y-13651150D01*
X7058158Y-13651150D02*
X7039110Y-13660674D01*
X7039110Y-13660674D02*
X7029587Y-13670198D01*
X7239110Y-13784484D02*
X7220063Y-13774960D01*
X7220063Y-13774960D02*
X7210539Y-13765436D01*
X7210539Y-13765436D02*
X7201015Y-13746388D01*
X7201015Y-13746388D02*
X7201015Y-13689246D01*
X7201015Y-13689246D02*
X7210539Y-13670198D01*
X7210539Y-13670198D02*
X7220063Y-13660674D01*
X7220063Y-13660674D02*
X7239110Y-13651150D01*
X7239110Y-13651150D02*
X7267682Y-13651150D01*
X7267682Y-13651150D02*
X7286730Y-13660674D01*
X7286730Y-13660674D02*
X7296253Y-13670198D01*
X7296253Y-13670198D02*
X7305777Y-13689246D01*
X7305777Y-13689246D02*
X7305777Y-13746388D01*
X7305777Y-13746388D02*
X7296253Y-13765436D01*
X7296253Y-13765436D02*
X7286730Y-13774960D01*
X7286730Y-13774960D02*
X7267682Y-13784484D01*
X7267682Y-13784484D02*
X7239110Y-13784484D01*
X7420063Y-13784484D02*
X7401015Y-13774960D01*
X7401015Y-13774960D02*
X7391491Y-13755912D01*
X7391491Y-13755912D02*
X7391491Y-13584484D01*
X7572444Y-13774960D02*
X7553396Y-13784484D01*
X7553396Y-13784484D02*
X7515301Y-13784484D01*
X7515301Y-13784484D02*
X7496253Y-13774960D01*
X7496253Y-13774960D02*
X7486730Y-13755912D01*
X7486730Y-13755912D02*
X7486730Y-13679722D01*
X7486730Y-13679722D02*
X7496253Y-13660674D01*
X7496253Y-13660674D02*
X7515301Y-13651150D01*
X7515301Y-13651150D02*
X7553396Y-13651150D01*
X7553396Y-13651150D02*
X7572444Y-13660674D01*
X7572444Y-13660674D02*
X7581968Y-13679722D01*
X7581968Y-13679722D02*
X7581968Y-13698769D01*
X7581968Y-13698769D02*
X7486730Y-13717817D01*
X7658158Y-13774960D02*
X7677206Y-13784484D01*
X7677206Y-13784484D02*
X7715301Y-13784484D01*
X7715301Y-13784484D02*
X7734349Y-13774960D01*
X7734349Y-13774960D02*
X7743872Y-13755912D01*
X7743872Y-13755912D02*
X7743872Y-13746388D01*
X7743872Y-13746388D02*
X7734349Y-13727341D01*
X7734349Y-13727341D02*
X7715301Y-13717817D01*
X7715301Y-13717817D02*
X7686730Y-13717817D01*
X7686730Y-13717817D02*
X7667682Y-13708293D01*
X7667682Y-13708293D02*
X7658158Y-13689246D01*
X7658158Y-13689246D02*
X7658158Y-13679722D01*
X7658158Y-13679722D02*
X7667682Y-13660674D01*
X7667682Y-13660674D02*
X7686730Y-13651150D01*
X7686730Y-13651150D02*
X7715301Y-13651150D01*
X7715301Y-13651150D02*
X7734349Y-13660674D01*
X7810539Y-13860674D02*
X7820063Y-13851150D01*
X7820063Y-13851150D02*
X7839111Y-13822579D01*
X7839111Y-13822579D02*
X7848634Y-13803531D01*
X7848634Y-13803531D02*
X7858158Y-13774960D01*
X7858158Y-13774960D02*
X7867682Y-13727341D01*
X7867682Y-13727341D02*
X7867682Y-13689246D01*
X7867682Y-13689246D02*
X7858158Y-13641627D01*
X7858158Y-13641627D02*
X7848634Y-13613055D01*
X7848634Y-13613055D02*
X7839111Y-13594008D01*
X7839111Y-13594008D02*
X7820063Y-13565436D01*
X7820063Y-13565436D02*
X7810539Y-13555912D01*
D18*
X2660000Y-13872500D02*
X2845000Y-14057500D01*
X2845000Y-13872500D02*
X2660000Y-14057500D01*
X2752500Y-14057500D02*
X2845000Y-13965000D01*
X2752500Y-13872500D01*
X2660000Y-13965000D01*
X2752500Y-14057500D01*
D11*
X3210539Y-14056484D02*
X3096253Y-14056484D01*
X3153396Y-14056484D02*
X3153396Y-13856484D01*
X3153396Y-13856484D02*
X3134348Y-13885055D01*
X3134348Y-13885055D02*
X3115301Y-13904103D01*
X3115301Y-13904103D02*
X3096253Y-13913627D01*
X3296253Y-14037436D02*
X3305777Y-14046960D01*
X3305777Y-14046960D02*
X3296253Y-14056484D01*
X3296253Y-14056484D02*
X3286729Y-14046960D01*
X3286729Y-14046960D02*
X3296253Y-14037436D01*
X3296253Y-14037436D02*
X3296253Y-14056484D01*
X3420062Y-13942198D02*
X3401015Y-13932674D01*
X3401015Y-13932674D02*
X3391491Y-13923150D01*
X3391491Y-13923150D02*
X3381967Y-13904103D01*
X3381967Y-13904103D02*
X3381967Y-13894579D01*
X3381967Y-13894579D02*
X3391491Y-13875531D01*
X3391491Y-13875531D02*
X3401015Y-13866008D01*
X3401015Y-13866008D02*
X3420062Y-13856484D01*
X3420062Y-13856484D02*
X3458158Y-13856484D01*
X3458158Y-13856484D02*
X3477205Y-13866008D01*
X3477205Y-13866008D02*
X3486729Y-13875531D01*
X3486729Y-13875531D02*
X3496253Y-13894579D01*
X3496253Y-13894579D02*
X3496253Y-13904103D01*
X3496253Y-13904103D02*
X3486729Y-13923150D01*
X3486729Y-13923150D02*
X3477205Y-13932674D01*
X3477205Y-13932674D02*
X3458158Y-13942198D01*
X3458158Y-13942198D02*
X3420062Y-13942198D01*
X3420062Y-13942198D02*
X3401015Y-13951722D01*
X3401015Y-13951722D02*
X3391491Y-13961246D01*
X3391491Y-13961246D02*
X3381967Y-13980293D01*
X3381967Y-13980293D02*
X3381967Y-14018388D01*
X3381967Y-14018388D02*
X3391491Y-14037436D01*
X3391491Y-14037436D02*
X3401015Y-14046960D01*
X3401015Y-14046960D02*
X3420062Y-14056484D01*
X3420062Y-14056484D02*
X3458158Y-14056484D01*
X3458158Y-14056484D02*
X3477205Y-14046960D01*
X3477205Y-14046960D02*
X3486729Y-14037436D01*
X3486729Y-14037436D02*
X3496253Y-14018388D01*
X3496253Y-14018388D02*
X3496253Y-13980293D01*
X3496253Y-13980293D02*
X3486729Y-13961246D01*
X3486729Y-13961246D02*
X3477205Y-13951722D01*
X3477205Y-13951722D02*
X3458158Y-13942198D01*
X3677205Y-13856484D02*
X3581967Y-13856484D01*
X3581967Y-13856484D02*
X3572443Y-13951722D01*
X3572443Y-13951722D02*
X3581967Y-13942198D01*
X3581967Y-13942198D02*
X3601015Y-13932674D01*
X3601015Y-13932674D02*
X3648634Y-13932674D01*
X3648634Y-13932674D02*
X3667682Y-13942198D01*
X3667682Y-13942198D02*
X3677205Y-13951722D01*
X3677205Y-13951722D02*
X3686729Y-13970769D01*
X3686729Y-13970769D02*
X3686729Y-14018388D01*
X3686729Y-14018388D02*
X3677205Y-14037436D01*
X3677205Y-14037436D02*
X3667682Y-14046960D01*
X3667682Y-14046960D02*
X3648634Y-14056484D01*
X3648634Y-14056484D02*
X3601015Y-14056484D01*
X3601015Y-14056484D02*
X3581967Y-14046960D01*
X3581967Y-14046960D02*
X3572443Y-14037436D01*
X3810539Y-13856484D02*
X3829586Y-13856484D01*
X3829586Y-13856484D02*
X3848634Y-13866008D01*
X3848634Y-13866008D02*
X3858158Y-13875531D01*
X3858158Y-13875531D02*
X3867682Y-13894579D01*
X3867682Y-13894579D02*
X3877205Y-13932674D01*
X3877205Y-13932674D02*
X3877205Y-13980293D01*
X3877205Y-13980293D02*
X3867682Y-14018388D01*
X3867682Y-14018388D02*
X3858158Y-14037436D01*
X3858158Y-14037436D02*
X3848634Y-14046960D01*
X3848634Y-14046960D02*
X3829586Y-14056484D01*
X3829586Y-14056484D02*
X3810539Y-14056484D01*
X3810539Y-14056484D02*
X3791491Y-14046960D01*
X3791491Y-14046960D02*
X3781967Y-14037436D01*
X3781967Y-14037436D02*
X3772443Y-14018388D01*
X3772443Y-14018388D02*
X3762920Y-13980293D01*
X3762920Y-13980293D02*
X3762920Y-13932674D01*
X3762920Y-13932674D02*
X3772443Y-13894579D01*
X3772443Y-13894579D02*
X3781967Y-13875531D01*
X3781967Y-13875531D02*
X3791491Y-13866008D01*
X3791491Y-13866008D02*
X3810539Y-13856484D01*
X3962920Y-14056484D02*
X3962920Y-13923150D01*
X3962920Y-13942198D02*
X3972443Y-13932674D01*
X3972443Y-13932674D02*
X3991491Y-13923150D01*
X3991491Y-13923150D02*
X4020063Y-13923150D01*
X4020063Y-13923150D02*
X4039110Y-13932674D01*
X4039110Y-13932674D02*
X4048634Y-13951722D01*
X4048634Y-13951722D02*
X4048634Y-14056484D01*
X4048634Y-13951722D02*
X4058158Y-13932674D01*
X4058158Y-13932674D02*
X4077205Y-13923150D01*
X4077205Y-13923150D02*
X4105777Y-13923150D01*
X4105777Y-13923150D02*
X4124824Y-13932674D01*
X4124824Y-13932674D02*
X4134348Y-13951722D01*
X4134348Y-13951722D02*
X4134348Y-14056484D01*
X4229586Y-14056484D02*
X4229586Y-13923150D01*
X4229586Y-13942198D02*
X4239110Y-13932674D01*
X4239110Y-13932674D02*
X4258158Y-13923150D01*
X4258158Y-13923150D02*
X4286729Y-13923150D01*
X4286729Y-13923150D02*
X4305777Y-13932674D01*
X4305777Y-13932674D02*
X4315301Y-13951722D01*
X4315301Y-13951722D02*
X4315301Y-14056484D01*
X4315301Y-13951722D02*
X4324825Y-13932674D01*
X4324825Y-13932674D02*
X4343872Y-13923150D01*
X4343872Y-13923150D02*
X4372444Y-13923150D01*
X4372444Y-13923150D02*
X4391491Y-13932674D01*
X4391491Y-13932674D02*
X4401015Y-13951722D01*
X4401015Y-13951722D02*
X4401015Y-14056484D01*
X4791491Y-13846960D02*
X4620063Y-14104103D01*
X5048634Y-13856484D02*
X5067682Y-13856484D01*
X5067682Y-13856484D02*
X5086729Y-13866008D01*
X5086729Y-13866008D02*
X5096253Y-13875531D01*
X5096253Y-13875531D02*
X5105777Y-13894579D01*
X5105777Y-13894579D02*
X5115301Y-13932674D01*
X5115301Y-13932674D02*
X5115301Y-13980293D01*
X5115301Y-13980293D02*
X5105777Y-14018388D01*
X5105777Y-14018388D02*
X5096253Y-14037436D01*
X5096253Y-14037436D02*
X5086729Y-14046960D01*
X5086729Y-14046960D02*
X5067682Y-14056484D01*
X5067682Y-14056484D02*
X5048634Y-14056484D01*
X5048634Y-14056484D02*
X5029587Y-14046960D01*
X5029587Y-14046960D02*
X5020063Y-14037436D01*
X5020063Y-14037436D02*
X5010539Y-14018388D01*
X5010539Y-14018388D02*
X5001015Y-13980293D01*
X5001015Y-13980293D02*
X5001015Y-13932674D01*
X5001015Y-13932674D02*
X5010539Y-13894579D01*
X5010539Y-13894579D02*
X5020063Y-13875531D01*
X5020063Y-13875531D02*
X5029587Y-13866008D01*
X5029587Y-13866008D02*
X5048634Y-13856484D01*
X5201015Y-14037436D02*
X5210539Y-14046960D01*
X5210539Y-14046960D02*
X5201015Y-14056484D01*
X5201015Y-14056484D02*
X5191491Y-14046960D01*
X5191491Y-14046960D02*
X5201015Y-14037436D01*
X5201015Y-14037436D02*
X5201015Y-14056484D01*
X5334348Y-13856484D02*
X5353396Y-13856484D01*
X5353396Y-13856484D02*
X5372444Y-13866008D01*
X5372444Y-13866008D02*
X5381968Y-13875531D01*
X5381968Y-13875531D02*
X5391491Y-13894579D01*
X5391491Y-13894579D02*
X5401015Y-13932674D01*
X5401015Y-13932674D02*
X5401015Y-13980293D01*
X5401015Y-13980293D02*
X5391491Y-14018388D01*
X5391491Y-14018388D02*
X5381968Y-14037436D01*
X5381968Y-14037436D02*
X5372444Y-14046960D01*
X5372444Y-14046960D02*
X5353396Y-14056484D01*
X5353396Y-14056484D02*
X5334348Y-14056484D01*
X5334348Y-14056484D02*
X5315301Y-14046960D01*
X5315301Y-14046960D02*
X5305777Y-14037436D01*
X5305777Y-14037436D02*
X5296253Y-14018388D01*
X5296253Y-14018388D02*
X5286729Y-13980293D01*
X5286729Y-13980293D02*
X5286729Y-13932674D01*
X5286729Y-13932674D02*
X5296253Y-13894579D01*
X5296253Y-13894579D02*
X5305777Y-13875531D01*
X5305777Y-13875531D02*
X5315301Y-13866008D01*
X5315301Y-13866008D02*
X5334348Y-13856484D01*
X5467682Y-13856484D02*
X5601015Y-13856484D01*
X5601015Y-13856484D02*
X5515301Y-14056484D01*
X5667682Y-13875531D02*
X5677206Y-13866008D01*
X5677206Y-13866008D02*
X5696253Y-13856484D01*
X5696253Y-13856484D02*
X5743872Y-13856484D01*
X5743872Y-13856484D02*
X5762920Y-13866008D01*
X5762920Y-13866008D02*
X5772444Y-13875531D01*
X5772444Y-13875531D02*
X5781967Y-13894579D01*
X5781967Y-13894579D02*
X5781967Y-13913627D01*
X5781967Y-13913627D02*
X5772444Y-13942198D01*
X5772444Y-13942198D02*
X5658158Y-14056484D01*
X5658158Y-14056484D02*
X5781967Y-14056484D01*
X5896253Y-13942198D02*
X5877206Y-13932674D01*
X5877206Y-13932674D02*
X5867682Y-13923150D01*
X5867682Y-13923150D02*
X5858158Y-13904103D01*
X5858158Y-13904103D02*
X5858158Y-13894579D01*
X5858158Y-13894579D02*
X5867682Y-13875531D01*
X5867682Y-13875531D02*
X5877206Y-13866008D01*
X5877206Y-13866008D02*
X5896253Y-13856484D01*
X5896253Y-13856484D02*
X5934348Y-13856484D01*
X5934348Y-13856484D02*
X5953396Y-13866008D01*
X5953396Y-13866008D02*
X5962920Y-13875531D01*
X5962920Y-13875531D02*
X5972444Y-13894579D01*
X5972444Y-13894579D02*
X5972444Y-13904103D01*
X5972444Y-13904103D02*
X5962920Y-13923150D01*
X5962920Y-13923150D02*
X5953396Y-13932674D01*
X5953396Y-13932674D02*
X5934348Y-13942198D01*
X5934348Y-13942198D02*
X5896253Y-13942198D01*
X5896253Y-13942198D02*
X5877206Y-13951722D01*
X5877206Y-13951722D02*
X5867682Y-13961246D01*
X5867682Y-13961246D02*
X5858158Y-13980293D01*
X5858158Y-13980293D02*
X5858158Y-14018388D01*
X5858158Y-14018388D02*
X5867682Y-14037436D01*
X5867682Y-14037436D02*
X5877206Y-14046960D01*
X5877206Y-14046960D02*
X5896253Y-14056484D01*
X5896253Y-14056484D02*
X5934348Y-14056484D01*
X5934348Y-14056484D02*
X5953396Y-14046960D01*
X5953396Y-14046960D02*
X5962920Y-14037436D01*
X5962920Y-14037436D02*
X5972444Y-14018388D01*
X5972444Y-14018388D02*
X5972444Y-13980293D01*
X5972444Y-13980293D02*
X5962920Y-13961246D01*
X5962920Y-13961246D02*
X5953396Y-13951722D01*
X5953396Y-13951722D02*
X5934348Y-13942198D01*
X6048634Y-13856484D02*
X6048634Y-13894579D01*
X6124825Y-13856484D02*
X6124825Y-13894579D01*
X6420063Y-14132674D02*
X6410539Y-14123150D01*
X6410539Y-14123150D02*
X6391491Y-14094579D01*
X6391491Y-14094579D02*
X6381968Y-14075531D01*
X6381968Y-14075531D02*
X6372444Y-14046960D01*
X6372444Y-14046960D02*
X6362920Y-13999341D01*
X6362920Y-13999341D02*
X6362920Y-13961246D01*
X6362920Y-13961246D02*
X6372444Y-13913627D01*
X6372444Y-13913627D02*
X6381968Y-13885055D01*
X6381968Y-13885055D02*
X6391491Y-13866008D01*
X6391491Y-13866008D02*
X6410539Y-13837436D01*
X6410539Y-13837436D02*
X6420063Y-13827912D01*
X6477206Y-13856484D02*
X6601015Y-13856484D01*
X6601015Y-13856484D02*
X6534348Y-13932674D01*
X6534348Y-13932674D02*
X6562920Y-13932674D01*
X6562920Y-13932674D02*
X6581968Y-13942198D01*
X6581968Y-13942198D02*
X6591491Y-13951722D01*
X6591491Y-13951722D02*
X6601015Y-13970769D01*
X6601015Y-13970769D02*
X6601015Y-14018388D01*
X6601015Y-14018388D02*
X6591491Y-14037436D01*
X6591491Y-14037436D02*
X6581968Y-14046960D01*
X6581968Y-14046960D02*
X6562920Y-14056484D01*
X6562920Y-14056484D02*
X6505777Y-14056484D01*
X6505777Y-14056484D02*
X6486729Y-14046960D01*
X6486729Y-14046960D02*
X6477206Y-14037436D01*
X6839110Y-14056484D02*
X6839110Y-13856484D01*
X6924825Y-14056484D02*
X6924825Y-13951722D01*
X6924825Y-13951722D02*
X6915301Y-13932674D01*
X6915301Y-13932674D02*
X6896253Y-13923150D01*
X6896253Y-13923150D02*
X6867682Y-13923150D01*
X6867682Y-13923150D02*
X6848634Y-13932674D01*
X6848634Y-13932674D02*
X6839110Y-13942198D01*
X7048634Y-14056484D02*
X7029587Y-14046960D01*
X7029587Y-14046960D02*
X7020063Y-14037436D01*
X7020063Y-14037436D02*
X7010539Y-14018388D01*
X7010539Y-14018388D02*
X7010539Y-13961246D01*
X7010539Y-13961246D02*
X7020063Y-13942198D01*
X7020063Y-13942198D02*
X7029587Y-13932674D01*
X7029587Y-13932674D02*
X7048634Y-13923150D01*
X7048634Y-13923150D02*
X7077206Y-13923150D01*
X7077206Y-13923150D02*
X7096253Y-13932674D01*
X7096253Y-13932674D02*
X7105777Y-13942198D01*
X7105777Y-13942198D02*
X7115301Y-13961246D01*
X7115301Y-13961246D02*
X7115301Y-14018388D01*
X7115301Y-14018388D02*
X7105777Y-14037436D01*
X7105777Y-14037436D02*
X7096253Y-14046960D01*
X7096253Y-14046960D02*
X7077206Y-14056484D01*
X7077206Y-14056484D02*
X7048634Y-14056484D01*
X7229587Y-14056484D02*
X7210539Y-14046960D01*
X7210539Y-14046960D02*
X7201015Y-14027912D01*
X7201015Y-14027912D02*
X7201015Y-13856484D01*
X7381968Y-14046960D02*
X7362920Y-14056484D01*
X7362920Y-14056484D02*
X7324825Y-14056484D01*
X7324825Y-14056484D02*
X7305777Y-14046960D01*
X7305777Y-14046960D02*
X7296253Y-14027912D01*
X7296253Y-14027912D02*
X7296253Y-13951722D01*
X7296253Y-13951722D02*
X7305777Y-13932674D01*
X7305777Y-13932674D02*
X7324825Y-13923150D01*
X7324825Y-13923150D02*
X7362920Y-13923150D01*
X7362920Y-13923150D02*
X7381968Y-13932674D01*
X7381968Y-13932674D02*
X7391491Y-13951722D01*
X7391491Y-13951722D02*
X7391491Y-13970769D01*
X7391491Y-13970769D02*
X7296253Y-13989817D01*
X7467682Y-14046960D02*
X7486730Y-14056484D01*
X7486730Y-14056484D02*
X7524825Y-14056484D01*
X7524825Y-14056484D02*
X7543872Y-14046960D01*
X7543872Y-14046960D02*
X7553396Y-14027912D01*
X7553396Y-14027912D02*
X7553396Y-14018388D01*
X7553396Y-14018388D02*
X7543872Y-13999341D01*
X7543872Y-13999341D02*
X7524825Y-13989817D01*
X7524825Y-13989817D02*
X7496253Y-13989817D01*
X7496253Y-13989817D02*
X7477206Y-13980293D01*
X7477206Y-13980293D02*
X7467682Y-13961246D01*
X7467682Y-13961246D02*
X7467682Y-13951722D01*
X7467682Y-13951722D02*
X7477206Y-13932674D01*
X7477206Y-13932674D02*
X7496253Y-13923150D01*
X7496253Y-13923150D02*
X7524825Y-13923150D01*
X7524825Y-13923150D02*
X7543872Y-13932674D01*
X7620063Y-14132674D02*
X7629587Y-14123150D01*
X7629587Y-14123150D02*
X7648634Y-14094579D01*
X7648634Y-14094579D02*
X7658158Y-14075531D01*
X7658158Y-14075531D02*
X7667682Y-14046960D01*
X7667682Y-14046960D02*
X7677206Y-13999341D01*
X7677206Y-13999341D02*
X7677206Y-13961246D01*
X7677206Y-13961246D02*
X7667682Y-13913627D01*
X7667682Y-13913627D02*
X7658158Y-13885055D01*
X7658158Y-13885055D02*
X7648634Y-13866008D01*
X7648634Y-13866008D02*
X7629587Y-13837436D01*
X7629587Y-13837436D02*
X7620063Y-13827912D01*
M02*
