M48
; DRILL file {KiCad 7.0.8} date Sun Mar 31 13:52:43 2024
; FORMAT={-:-/ absolute / inch / decimal}
; #@! TF.CreationDate,2024-03-31T13:52:43+01:00
; #@! TF.GenerationSoftware,Kicad,Pcbnew,7.0.8
; #@! TF.FileFunction,Plated,1,2,PTH
FMAT,2
INCH
; #@! TA.AperFunction,Plated,PTH,ViaDrill
T1C0.0157
; #@! TA.AperFunction,Plated,PTH,ViaDrill
T2C0.0160
; #@! TA.AperFunction,Plated,PTH,ComponentDrill
T3C0.0177
; #@! TA.AperFunction,Plated,PTH,ViaDrill
T4C0.0315
; #@! TA.AperFunction,Plated,PTH,ComponentDrill
T5C0.0315
; #@! TA.AperFunction,Plated,PTH,ComponentDrill
T6C0.0394
; #@! TA.AperFunction,Plated,PTH,ComponentDrill
T7C0.0433
; #@! TA.AperFunction,Plated,PTH,ComponentDrill
T8C0.0598
; #@! TA.AperFunction,Plated,PTH,ComponentDrill
T9C0.0728
%
G90
G05
T1
X4.878Y-3.1102
X5.0945Y-3.1102
X5.128Y-2.5113
X5.128Y-2.628
T2
X1.998Y-2.7461
X2.0079Y-2.3031
X2.0571Y-2.6083
X2.1161Y-2.7461
X2.1654Y-3.2087
X2.1654Y-3.3071
X2.2343Y-2.9232
X2.313Y-2.7362
X2.3327Y-2.3622
X2.3917Y-2.9232
X2.4213Y-3.7402
X2.4409Y-2.8346
X2.4803Y-3.0118
X2.4803Y-3.1102
X2.5Y-4.2717
X2.5098Y-2.7559
X2.5689Y-2.9626
X2.5787Y-3.1004
X2.5787Y-3.1988
X2.5787Y-4.0748
X2.6378Y-2.8937
X2.6476Y-3.0315
X2.6772Y-3.1594
X2.6772Y-3.2776
X2.6969Y-4.1732
X2.7756Y-4.2913
X2.815Y-4.3307
X2.8346Y-2.9331
X2.8346Y-3.0315
X2.8346Y-3.1299
X2.8346Y-3.2283
X2.8346Y-3.3268
X2.8346Y-3.4252
X2.8346Y-3.5236
X2.8346Y-3.622
X2.8346Y-3.7205
X2.8543Y-2.7756
X2.8543Y-3.8189
X2.8543Y-3.937
X2.8543Y-4.3701
X2.878Y-4.0984
X2.9134Y-2.7362
X2.9331Y-2.9331
X2.9331Y-3.0315
X2.9331Y-3.1299
X2.9331Y-3.2283
X2.9331Y-3.3268
X2.9331Y-3.4252
X2.9331Y-3.5236
X2.9331Y-3.622
X2.9331Y-3.7598
X2.9331Y-3.937
X2.9331Y-4.1732
X2.9921Y-2.7953
X2.9921Y-3.878
X3.0118Y-2.6575
X3.0315Y-2.9724
X3.0315Y-3.0512
X3.0315Y-3.1299
X3.0315Y-3.2087
X3.0315Y-3.2874
X3.0315Y-3.4843
X3.0315Y-3.563
X3.0315Y-3.6417
X3.0315Y-3.7205
X3.0315Y-3.7992
X3.0709Y-2.5984
X3.0709Y-2.7165
X3.1102Y-3.7992
X3.1299Y-2.6575
X3.1299Y-2.7756
X3.189Y-2.7165
X3.2283Y-2.5984
X3.2874Y-2.6969
X3.3071Y-3.9764
X3.3465Y-2.5984
X3.3661Y-3.7598
X3.4055Y-2.6969
X3.4449Y-2.5984
X3.5039Y-2.6969
X3.5433Y-2.4803
X3.563Y-2.5984
X3.6024Y-2.6969
X3.6417Y-4.3701
X3.6811Y-4.3307
X3.7008Y-3.2087
X3.8976Y-3.9173
X3.9173Y-2.4409
X3.937Y-3.0315
X4.0512Y-2.4252
X4.0945Y-2.6969
X4.1043Y-2.7854
X4.2005Y-2.308
X4.2008Y-2.4862
X4.2323Y-2.5591
X4.248Y-2.3228
X4.252Y-3.9173
X4.3406Y-2.7854
X4.374Y-2.3228
X4.4193Y-2.6622
X4.4488Y-2.3169
X4.4488Y-2.4409
X4.4882Y-2.9035
X4.5157Y-2.0906
X4.5374Y-2.5984
X4.5374Y-2.6575
X4.5374Y-3.2638
X4.5591Y-3.3071
X4.626Y-3.8976
X4.6752Y-2.5984
X4.6752Y-2.6476
X4.6936Y-3.8976
X4.7047Y-2.2835
X4.7047Y-2.7067
X4.7244Y-2.4803
X4.7441Y-2.7067
X4.7723Y-3.8976
X4.7835Y-2.7067
X4.7835Y-3.0472
X4.8228Y-2.5689
X4.8228Y-2.7165
X4.8228Y-3.0472
X4.851Y-3.8976
X4.8622Y-2.7165
X4.8819Y-3.3661
X4.9016Y-2.7165
X4.9114Y-3.248
X4.9173Y-3.0472
X4.9213Y-3.3661
X4.9409Y-2.7165
X4.9409Y-3.0906
X4.9803Y-2.7165
X4.9961Y-2.9331
X5.0295Y-2.9331
X5.0394Y-3.0906
X5.0591Y-3.248
X5.0689Y-2.9232
X5.1378Y-3.061
X5.1575Y-2.5787
X5.1772Y-2.5394
X5.1969Y-2.5787
X5.1969Y-2.7756
X5.2362Y-2.7362
X5.2362Y-2.7756
X5.2394Y-2.5591
X5.2472Y-2.6614
X5.2559Y-2.6969
X5.2756Y-2.7362
X5.2756Y-2.7756
X5.2787Y-2.5886
X5.2795Y-2.874
X5.2795Y-2.9331
X5.2953Y-2.815
X5.315Y-3.6319
X5.3378Y-2.6476
X5.4055Y-3.5748
X5.4069Y-3.0551
X5.4069Y-3.3937
X5.4069Y-3.9055
T4
X1.2205Y-2.4409
X1.2205Y-2.5394
X1.2205Y-2.6378
X1.2205Y-2.7362
X1.2205Y-2.8346
X1.2205Y-2.9331
X1.2205Y-3.0315
X1.2205Y-3.2283
X1.2205Y-3.3268
X1.4173Y-2.4409
X1.4173Y-2.6378
X1.4173Y-2.8346
X1.4173Y-3.0315
X1.4173Y-3.2283
X1.4173Y-3.4252
X1.4173Y-3.622
X1.4173Y-3.8189
X1.4173Y-4.0157
X1.5157Y-4.2126
X1.6142Y-3.0315
X1.6142Y-3.2283
X1.811Y-3.0315
X2.0079Y-3.0315
X2.1063Y-4.2126
X2.3031Y-4.311
X2.3622Y-3.6783
X2.4016Y-4.0157
X2.4213Y-3.5807
X2.5Y-2.2441
X2.5Y-2.4409
X2.5Y-4.2126
X2.5787Y-4.1339
X2.5984Y-4.311
X2.8937Y-2.3425
X2.8937Y-2.5984
X3.0512Y-2.5197
X3.0709Y-2.8937
X3.0906Y-2.3425
X3.1693Y-3.8189
X3.189Y-2.4803
X3.189Y-4.2126
X3.248Y-2.8346
X3.248Y-3.9764
X3.2874Y-2.3425
X3.2874Y-4.1142
X3.3268Y-3.7177
X3.3858Y-2.4803
X3.3858Y-4.2126
X3.4843Y-2.3425
X3.878Y-3.9783
X3.9567Y-3.8783
X4.1339Y-2.3789
X4.1929Y-3.5925
X4.2254Y-2.3789
X4.2323Y-3.9783
X4.311Y-3.8783
X4.4186Y-2.5669
X4.439Y-3.9862
X4.4913Y-2.9575
X4.5158Y-2.3819
X4.5276Y-3.501
X4.5276Y-3.5787
X4.5512Y-3.0512
X4.5866Y-3.1102
X4.6457Y-3.0315
X4.685Y-2.1752
X4.7768Y-3.3898
X4.7989Y-2.6476
X4.8327Y-3.4252
X4.8917Y-2.3622
X4.9146Y-2.4803
X5.0787Y-3.435
X5.1378Y-2.7559
X5.2087Y-2.8583
X5.2402Y-2.9823
X5.4921Y-2.7953
X5.4921Y-2.9528
X5.5709Y-2.2441
X5.5709Y-2.4803
X5.6102Y-2.7953
X5.6496Y-2.9528
X5.689Y-2.4803
X5.689Y-3.4843
X5.6988Y-3.9961
X5.7283Y-2.7953
X5.748Y-3.4843
T5
X1.6732Y-2.6772
X1.8732Y-2.6772
X2.0638Y-2.6772
X2.0669Y-2.3622
X2.2638Y-2.6772
X2.2669Y-2.3622
X2.7756Y-2.4783
X2.7756Y-2.5783
X2.7756Y-2.6783
X2.7756Y-2.7783
X2.7756Y-2.8783
X2.7756Y-2.9783
X2.7756Y-3.0783
X2.7756Y-3.1783
X2.7756Y-3.2783
X2.7756Y-3.3783
X2.7756Y-3.4783
X2.7756Y-3.5783
X2.7756Y-3.6783
X2.7756Y-3.7783
X2.7756Y-3.8783
X2.7756Y-3.9783
X3.5756Y-2.8783
X3.5756Y-2.9783
X3.5756Y-3.0783
X3.5756Y-3.1783
X3.5756Y-3.2783
X3.5756Y-3.3783
X3.5756Y-3.4783
X3.5756Y-3.5783
X3.5756Y-3.6783
X3.5756Y-3.7783
X3.5756Y-3.8783
X3.5756Y-3.9783
X5.2165Y-4.1126
X5.2165Y-4.3126
T6
X1.2244Y-3.4583
X1.2244Y-3.5583
X1.2244Y-3.6583
X1.2244Y-3.7583
X1.2244Y-3.8583
X1.6339Y-4.0551
X1.7339Y-4.0551
X1.8339Y-4.0551
X1.9339Y-4.0551
X2.2244Y-3.0583
X2.2244Y-3.1583
X2.2244Y-3.2583
X2.2244Y-3.3583
X2.2244Y-3.4583
X2.2244Y-3.5583
X2.2244Y-3.6583
X2.2244Y-3.7583
X2.2244Y-3.8583
X2.6756Y-2.1358
X2.7756Y-2.1358
X3.8071Y-2.4488
X3.8071Y-2.5488
X3.8071Y-2.6488
X3.8071Y-2.7488
X3.8386Y-2.9232
X3.8386Y-3.1102
X3.9386Y-2.9232
X3.9386Y-3.1102
T7
X3.7992Y-3.2874
X3.7992Y-3.5433
X3.9764Y-3.2874
X3.9764Y-3.5433
T8
X1.6732Y-2.2441
X1.8732Y-2.2441
X4.6016Y-4.2126
X4.8016Y-4.2126
X5.0016Y-4.2126
X5.9252Y-2.6346
X5.9252Y-2.8346
X5.9252Y-3.1283
X5.9252Y-3.3283
X5.9252Y-3.6402
X5.9252Y-3.8402
T9
X4.8575Y-2.2441
X5.0425Y-2.2441
X5.2276Y-2.2441
T3
G00X4.1568Y-2.122
M15
G01X4.1568Y-2.0906
M16
G05
G00X4.4383Y-2.0906
M15
G01X4.4383Y-2.122
M16
G05
T0
M30
